<svg width="150" height="150" viewBox="0 0 150 150" fill="none" xmlns="http://www.w3.org/2000/svg">
<path d="M116.575 52C111.353 52 106.504 53.7178 102.55 56.6306C98.5962 53.7178 93.7471 52 88.525 52C83.303 52 78.4539 53.7178 74.5 56.6306C70.5461 53.7178 65.7716 52 60.4749 52C55.2528 52 50.4037 53.7178 46.4499 56.6306C42.5706 53.7178 37.7215 52 32.4248 52C19.5188 52 9 62.3815 9 75.1529C9 87.9244 19.5188 98.3059 32.4248 98.3059C37.6469 98.3059 42.496 96.5881 46.4499 93.6753C50.4037 96.5881 55.2528 98.3059 60.4749 98.3059C65.697 98.3059 70.5461 96.5881 74.5 93.6753C78.3793 96.5881 83.2284 98.3059 88.525 98.3059C93.7471 98.3059 98.5962 96.5881 102.55 93.6753C106.429 96.5881 111.278 98.3059 116.575 98.3059C129.481 98.3059 140 87.9244 140 75.1529C140 62.3815 129.481 52 116.575 52ZM102.55 87.1029C99.7152 83.8913 97.9994 79.7088 97.9994 75.1529C97.9994 70.597 99.7152 66.4146 102.55 63.203C105.385 66.4146 107.101 70.597 107.101 75.1529C107.101 79.7088 105.385 83.8913 102.55 87.1029ZM74.5 87.1029C71.6652 83.8913 69.9493 79.7088 69.9493 75.1529C69.9493 70.597 71.6652 66.4146 74.5 63.203C77.3348 66.4146 79.0507 70.597 79.0507 75.1529C79.0507 79.7088 77.3348 83.8913 74.5 87.1029ZM46.4499 87.1029C43.615 83.8913 41.8992 79.7088 41.8992 75.1529C41.8992 70.597 43.615 66.4146 46.4499 63.203C49.2847 66.4146 51.0006 70.597 51.0006 75.1529C51.0753 79.7088 49.2847 83.8913 46.4499 87.1029ZM13.8491 75.1529C13.8491 65.0702 22.2044 56.8546 32.4248 56.8546C36.2295 56.8546 39.8104 57.975 42.7944 59.9915C39.2135 64.0246 37.0501 69.3274 37.0501 75.1529C37.0501 80.9785 39.2135 86.2813 42.7944 90.3144C39.8104 92.2562 36.3041 93.4512 32.4248 93.4512C22.2044 93.4512 13.8491 85.2357 13.8491 75.1529ZM50.1053 90.3144C53.6862 86.2813 55.8496 80.9785 55.8496 75.1529C55.8496 69.3274 53.6862 64.0246 50.1053 59.9915C53.0894 58.0496 56.5957 56.8546 60.4749 56.8546C64.3542 56.8546 67.8605 57.975 70.8445 59.9915C67.2636 64.0246 65.0256 69.3274 65.0256 75.1529C65.0256 80.9785 67.1891 86.2813 70.8445 90.3144C67.8605 92.2562 64.3542 93.4512 60.4749 93.4512C56.6703 93.4512 53.0894 92.2562 50.1053 90.3144ZM78.1555 90.3144C81.7363 86.2813 83.9744 80.9785 83.9744 75.1529C83.9744 69.3274 81.8109 64.0246 78.1555 59.9915C81.1395 58.0496 84.6458 56.8546 88.525 56.8546C92.4043 56.8546 95.9106 57.975 98.8946 59.9915C95.3138 64.0246 93.0757 69.3274 93.0757 75.1529C93.0757 80.9785 95.2392 86.2813 98.8946 90.3144C95.9106 92.2562 92.4043 93.4512 88.525 93.4512C84.6458 93.4512 81.1395 92.2562 78.1555 90.3144ZM116.575 93.4512C112.77 93.4512 109.19 92.3309 106.206 90.3144C109.786 86.2813 112.024 80.9785 112.024 75.1529C112.024 69.3274 109.861 64.0246 106.206 59.9915C109.19 58.0496 112.696 56.8546 116.575 56.8546C126.796 56.8546 135.151 65.0702 135.151 75.1529C135.151 85.2357 126.796 93.4512 116.575 93.4512Z" fill="black"/>
</svg>
