<svg xmlns:xlink="http://www.w3.org/1999/xlink" xmlns="http://www.w3.org/2000/svg" width="150" height="150" viewBox="0 0 150 150" fill="none">
<g clip-path="url(#clip0_2301_70)">
<path d="M67.0851 104.35C53.996 104.35 42.8249 101.293 34.7777 95.5095C27.3486 90.1714 23.2571 82.8174 23.2571 74.8031C23.2571 66.7891 27.3486 59.4353 34.7777 54.0964C42.8241 48.3133 53.996 45.2569 67.0851 45.2569C98.3083 45.2569 126.743 59.3396 126.743 74.8031C126.743 90.2664 98.3083 104.35 67.0851 104.35ZM110.519 51.6395C98.4751 45.513 82.6448 42 67.0851 42C53.3103 42 41.4818 45.2681 32.8772 51.4517C24.5734 57.4193 20 65.7123 20 74.8031C20 83.8937 24.5734 92.1868 32.8772 98.155C41.4818 104.338 53.3103 107.607 67.0851 107.607C82.644 107.607 98.4751 104.093 110.519 97.9668C122.899 91.6695 130 83.2268 130 74.8031C130 66.3792 122.899 57.9366 110.519 51.6395ZM123.557 50.9249L124.641 52.4929H124.859L125.943 50.9249V53.0447H126.601V49.4682H126.18L124.753 51.5541L123.32 49.4682H122.904V53.0447H123.557V50.9249ZM120.338 53.0447H121.006V50.1072H122.037V49.4682H119.308V50.1072H120.338V53.0447ZM50.9191 76.6872C50.9191 76.9125 50.8962 77.1257 50.838 77.2901C50.5476 78.118 49.6684 78.9957 48.1383 78.9957C47.023 78.9957 46.3606 78.2711 46.3606 77.294C46.3606 76.7214 46.5502 76.3467 46.9258 75.9811C47.6274 75.3055 48.9751 75.0783 50.9191 75.0899V76.6872ZM48.7276 68.41C47.3787 68.41 46.0032 68.6318 44.9489 69.1703V71.5251C46.2879 70.8578 47.3455 70.6525 48.413 70.6525C49.2115 70.6442 49.8232 70.8619 50.2338 71.2606C50.6316 71.6489 50.8368 72.2413 50.8599 73.0087C48.0489 73.0314 46.0065 73.537 44.8154 74.7141C44.0486 75.4619 43.6648 76.4924 43.6648 77.6322C43.6648 79.4454 45.0086 81.2818 47.5884 81.2818C48.9934 81.2818 50.1025 80.734 50.9191 79.9365V80.8815H53.6223V73.5054C53.6223 70.1754 51.8993 68.41 48.7276 68.41ZM58.5853 76.7951V63.9685H55.8822V76.8675C55.8822 78.417 56.1821 79.5019 56.809 80.1868C57.4055 80.8419 58.3283 81.1987 59.4055 81.1987C60.0811 81.1987 60.6122 81.1124 60.9934 81.0179V78.9014C60.7614 78.9522 60.4674 78.9862 59.9903 78.9862C59.2563 78.9862 58.5853 78.6115 58.5853 76.7951ZM65.172 63.9685H62.4688V68.6724H60.5747V70.7864H62.4688V76.8675C62.4688 78.417 62.7688 79.5019 63.3957 80.1868C63.9919 80.8419 64.9149 81.1987 65.9922 81.1987C66.8626 81.1987 67.5 81.0555 67.8754 80.9358V78.8212L67.7797 78.8507C67.5122 78.9287 67.1998 78.9862 66.577 78.9862C65.843 78.9862 65.172 78.6115 65.172 76.7951V70.7864H67.8754V68.6724H65.172V63.9685ZM114.272 78.9939C112.374 78.9939 110.999 77.2598 110.999 74.8683C110.999 72.7873 112.029 70.6894 114.345 70.6894C116.6 70.6894 117.63 72.8191 117.63 74.793C117.63 77.2295 116.227 78.9939 114.272 78.9939ZM114.395 68.4067C110.793 68.4067 108.276 71.0951 108.276 74.9393C108.276 78.6736 110.708 81.2837 114.225 81.2837C117.173 81.2837 120.349 79.231 120.349 74.7224C120.349 71.0022 117.896 68.4067 114.395 68.4067ZM90.7717 78.9939C88.8743 78.9939 87.4988 77.2598 87.4988 74.8683C87.4988 72.7873 88.5295 70.6894 90.845 70.6894C93.0998 70.6894 94.1303 72.8191 94.1303 74.793C94.1303 77.2295 92.7273 78.9939 90.7717 78.9939ZM90.8952 68.4067C87.2933 68.4067 84.7762 71.0951 84.7762 74.9393C84.7762 78.6736 87.2083 81.2837 90.7253 81.2837C93.673 81.2837 96.849 79.231 96.849 74.7224C96.849 71.0022 94.3965 68.4067 90.8952 68.4067ZM74.6107 74.9803C74.6107 78.7494 77.084 81.2818 80.7666 81.2818C82.0148 81.2818 83.1165 81.0264 83.867 80.7402V78.3689L83.6955 78.4421C83.0573 78.7258 82.3072 78.9862 81.1607 78.9862C78.8508 78.9862 77.3063 77.3502 77.3063 74.8555C77.3063 72.7549 78.518 70.6896 81.2292 70.6896C82.1392 70.6896 82.9343 70.8694 83.6076 71.2212L83.867 71.3598V68.8604C83.2346 68.6206 82.306 68.4067 81.2292 68.4067C77.3366 68.4067 74.6107 71.1106 74.6107 74.9803ZM69.9971 81.0129H72.7048V68.6724H69.9971V81.0129ZM71.3663 63.5574C70.4212 63.5574 69.7398 64.2396 69.7398 65.1786C69.7398 66.0907 70.4133 66.7801 71.3392 66.7801C72.261 66.7801 72.9618 66.0907 72.9618 65.1786C72.9618 64.2526 72.2765 63.5574 71.3663 63.5574ZM108.639 68.6724H105.822L105.761 68.8484L103.467 75.4667C103.177 76.2786 102.914 77.0305 102.685 77.7674C102.492 77.1005 102.259 76.3723 101.935 75.4628L99.6176 68.8484L99.5483 68.6724H96.6934L96.8288 69.0288L101.318 80.846L101.384 81.0129H103.797L103.856 80.8499L108.499 69.0288L108.639 68.6724ZM35.5599 78.9875C34.8585 78.9875 34.3631 78.9631 33.9754 78.9175V72.979H35.5327C36.5087 72.979 39.6771 73.1936 39.6771 76.0036C39.6771 78.6609 37.0972 78.9875 35.5599 78.9875ZM33.9754 65.8524C34.4093 65.777 34.9634 65.7399 35.6643 65.7399C37.9569 65.7399 39.1154 66.518 39.1154 68.1927C39.1154 69.7599 37.7522 70.8095 35.711 70.8095H33.9754V65.8524ZM39.402 71.7063C40.9432 70.949 41.8883 69.5628 41.8883 67.9645C41.8883 66.6094 41.358 65.495 40.339 64.7441C39.2705 63.8552 37.7863 63.4545 35.5327 63.4545C34.0183 63.4545 32.4572 63.603 31.4579 63.8395L31.2569 63.8896V81.0585L31.4812 81.0899C31.8799 81.1481 32.3489 81.1947 32.8448 81.2284C33.4956 81.2709 34.1959 81.2946 34.9285 81.2946C37.7986 81.2946 39.7736 80.7521 40.9742 79.6371C42.0008 78.661 42.5233 77.4523 42.5233 76.0273C42.5233 73.6527 40.9509 72.2715 39.402 71.7063Z" fill="#FFB428"/>
</g>
<defs>
<clipPath id="clip0_2301_70">
<rect width="150" height="150" fill="white"/>
</clipPath>
</defs>
</svg>