<svg xmlns:xlink="http://www.w3.org/1999/xlink" xmlns="http://www.w3.org/2000/svg" id="Layer_1" data-name="Layer 1" width="150" height="150" viewBox="0 0 150 150">
  <defs>
    <style>.cls-1{fill:#878787;}.cls-2{fill:#ffdb00;}.cls-3{fill:#e61876;}</style>
  </defs>
  <path class="cls-1" d="M81.26248,63.13243A2.635,2.635,0,0,1,83.58264,65.753c0,1.7154-1.20948,2.92487-3.52964,2.92487H76.0194V58.29057h3.7312c1.917,0,3.12652,1.10867,3.12652,2.52173a2.29244,2.29244,0,0,1-1.61464,2.32013m-1.6126-.30236c1.20948,0,2.01777-.60673,2.01777-1.7154,0-1.00792-.80829-1.71543-2.11861-1.71543H77.22887v3.43083Zm.3024,4.83987c1.411,0,2.32-.60474,2.32-1.917,0-1.31029-1.11056-2.01581-2.42088-2.01581H77.22887v3.93277Z"/>
  <path class="cls-1" d="M86.81013,58.29115h6.95844v1.10866h-5.749v3.22728h4.53757v1.10867H88.0196V67.467h5.84981v1.11066H86.81013Zm1.31031-2.11858h4.33589v1.00789H88.12044Z"/>
  <path class="cls-1" d="M100.62642,64.64389H98.407v4.03553H97.1975V58.29018H100.324c2.42089,0,3.83192,1.21144,3.83192,3.22725a2.67778,2.67778,0,0,1-2.42088,2.82409l2.52172,4.3379h-1.411Zm-.20156-1.00792c1.51381,0,2.5216-.50393,2.5216-2.01776,0-1.51185-1.00779-2.21737-2.62244-2.21737H98.30625V63.636Z"/>
  <polygon class="cls-1" points="108.796 60.308 108.796 60.308 108.796 62.83 108.796 68.78 107.586 68.78 107.586 58.29 108.796 58.29 114.847 66.662 114.847 64.241 114.847 58.29 116.056 58.29 116.056 68.679 114.847 68.679 108.796 60.308"/>
  <path class="cls-1" d="M128.05793,64.34188c0,2.92491-1.51188,4.53753-4.13444,4.53753-2.72329,0-4.13637-1.61262-4.13637-4.53753V58.29054h1.21152v6.05134c0,2.21936.90708,3.32806,2.92485,3.32806,2.01583,0,2.92484-1.1087,2.92484-3.32806V58.29054h1.2096Z"/>
  <path class="cls-1" d="M76.42252,77.75506a1.25537,1.25537,0,0,0,1.411,1.00791c.70745,0,1.21141-.30237,1.21141-.9071,0-.80633-.90708-.80633-1.61465-1.00792-.80623-.20156-1.81415-.50393-1.81415-1.7154,0-1.00789.80636-1.61263,2.01583-1.61263A2.14282,2.14282,0,0,1,79.85132,74.931l-.70552.40315a1.2268,1.2268,0,0,0-1.31225-.90711c-.70552,0-1.10875.30237-1.10875.80633,0,.70552.70551.8063,1.5138,1.00985.80636.20159,1.81428.504,1.81428,1.71344,0,1.10869-.80636,1.71539-2.11656,1.71539-1.01,0-2.1186-.30433-2.32016-1.61458Z"/>
  <polygon class="cls-1" points="82.07 73.721 82.977 73.721 82.977 78.664 85.902 78.664 85.902 79.47 82.07 79.47 82.07 73.721"/>
  <rect class="cls-1" x="88.0196" y="73.71989" width="0.90708" height="5.74897"/>
  <path class="cls-1" d="M95.88658,77.3517V75.33393a9.23424,9.23424,0,0,1-.70564,1.31225l-.90708,1.41106H93.768l-.90708-1.51184c-.40324-.80633-.70552-1.31225-.70552-1.31225v4.23712h-.9072v-5.749h1.00792l1.81428,3.22725,1.81621-3.22725h.90707v5.749h-.90707Z"/>
  <polygon class="cls-1" points="100.022 75.234 100.022 75.234 100.022 76.645 100.022 79.469 99.114 79.469 99.114 73.722 100.022 73.722 103.047 77.957 103.047 76.645 103.047 73.823 103.954 73.823 103.954 79.57 103.047 79.57 100.022 75.234"/>
  <path class="cls-1" d="M105.86938,72.40963h1.91692V73.216h-1.91692Zm.50589,1.31026h.90708v5.749h-.90708Z"/>
  <path class="cls-1" d="M115.04836,77.85584a2.77833,2.77833,0,0,1-2.72341,1.71542,2.83478,2.83478,0,0,1-2.92484-3.02568A2.80582,2.80582,0,0,1,112.325,73.6207a2.75279,2.75279,0,0,1,2.62257,1.61263l-.90708.20159a2.01683,2.01683,0,0,0-1.81621-1.00789,1.93372,1.93372,0,0,0-2.01583,2.11855,1.98624,1.98624,0,0,0,2.01583,2.11658,2.24864,2.24864,0,0,0,1.91693-1.10869Z"/>
  <path class="cls-1" d="M118.17379,78.1592l-.504,1.31029h-.9072l2.421-5.749h1.00792l2.32005,5.749h-1.0078l-.506-1.31029ZM119.99,75.93984c-.20168-.50392-.504-1.20947-.504-1.20947s-.3024.70555-.504,1.20947l-.504,1.41107h2.11656Z"/>
  <path class="cls-1" d="M124.93165,77.75506c.10072.70554.70551,1.00791,1.51175,1.00791.70757,0,1.21153-.30237,1.21153-.9071,0-.80633-.9072-.80633-1.61465-1.00792-.80635-.20156-1.81427-.50393-1.81427-1.7154,0-1.00789.80636-1.61263,2.01583-1.61263a2.14263,2.14263,0,0,1,2.21933,1.41107l-.90708.40315a1.22663,1.22663,0,0,0-1.31225-.90711c-.70552,0-1.10863.30237-1.10863.80633,0,.70552.70551.8063,1.51175,1.00985.80829.20159,1.81621.504,1.81621,1.71344,0,1.10869-.80624,1.71539-2.11849,1.71539-1.00791,0-2.11667-.30433-2.31823-1.61458Z"/>
  <polygon class="cls-1" points="76.927 85.117 76.927 88.546 81.464 88.546 81.464 89.655 76.927 89.655 76.927 94.295 75.717 94.295 75.717 84.009 82.575 84.009 82.575 85.117 76.927 85.117"/>
  <path class="cls-1" d="M89.73485,83.80579A5.34484,5.34484,0,1,1,84.389,89.15161a5.25413,5.25413,0,0,1,5.34585-5.34582m0,9.48017a3.96955,3.96955,0,0,0,4.13432-4.13435,3.91576,3.91576,0,0,0-4.13432-4.13634,4.13535,4.13535,0,0,0,0,8.27069"/>
  <polygon class="cls-1" points="99.013 85.924 99.013 85.924 99.013 88.345 99.013 94.195 97.804 94.195 97.804 84.007 99.013 84.007 104.964 92.278 104.964 89.857 104.964 84.007 106.173 84.007 106.173 94.195 104.964 94.195 99.013 85.924"/>
  <path class="cls-1" d="M113.13215,84.00738c3.12641,0,5.44657,2.0178,5.44657,5.14426s-2.32016,5.04146-5.34585,5.04146h-3.63036V84.00738Zm0,9.1778c2.32005,0,4.23505-1.31026,4.23505-3.93276a3.914,3.914,0,0,0-4.23505-4.03357H110.812v7.96633Z"/>
  <path class="cls-1" d="M121.9062,91.269c.10072,1.41107,1.3102,2.11858,2.92485,2.11858,1.51187,0,2.42088-.6067,2.42088-1.81618,0-1.71344-1.71536-1.81425-2.92484-2.0178-1.41309-.30237-3.12653-.8063-3.12653-2.92288,0-1.81621,1.31032-2.8241,3.42893-2.8241,1.915,0,3.328.8063,3.7312,2.51974l-1.10876.30436a2.4066,2.4066,0,0,0-2.62244-1.81621c-1.51381,0-2.21945.60474-2.21945,1.7154,0,1.31029,1.31225,1.61266,2.72341,1.915,1.51175.30236,3.4288.80629,3.4288,3.02565,0,1.917-1.31032,2.92487-3.63048,2.92487-1.71537,0-3.73121-.60474-4.03348-2.92487Z"/>
  <path class="cls-2" d="M63.2331,53.5716a4.27007,4.27007,0,0,0-4.43081,4.03556,4.15063,4.15063,0,0,0,3.40311,4.82407,4.26778,4.26778,0,0,0,4.42876-4.03357A4.09554,4.09554,0,0,0,63.2331,53.5716"/>
  <path class="cls-2" d="M63.6285,64.72606c0-.23714-.15814-.39525-.39528-.31618l-1.42491.15811a.73949.73949,0,0,0-.55342.39525l-.86956,1.66205a1.112,1.112,0,0,1-.55329.47428L44.48433,71.29125a.58868.58868,0,0,0-.39528.47628v1.34388c0,.23714.23714.31618.47428.31618l13.29038-2.76873c.23727-.07907.31628.079.15814.23714,0,0-1.89919,3.48218-2.92689,5.0632a43.3,43.3,0,0,1-5.93473,7.04147c-.158.1581-.158.39525,0,.47431l4.27279,2.8478a.39061.39061,0,0,1,.079.55336L48.51781,93.9176a1.72049,1.72049,0,0,1-.6323.39525l-3.006.55335a.44452.44452,0,0,0-.39515.47628v.71146a.37335.37335,0,0,0,.39515.39524h4.74709A.9761.9761,0,0,0,50.259,96.133l6.16994-7.911a.89717.89717,0,0,1,.6323-.23715l7.12056,1.66006c.23714,0,.39528-.07906.39528-.31621Z"/>
  <path class="cls-3" d="M25.97222,62.432a4.15029,4.15029,0,0,0,3.40112-4.826,4.45757,4.45757,0,0,0-4.50789-4.03357,4.20794,4.20794,0,0,0-3.40311,4.82407A4.33981,4.33981,0,0,0,25.97222,62.432"/>
  <path class="cls-3" d="M44.08844,71.76692a.44268.44268,0,0,0-.39527-.47428L28.34545,67.01993a.8355.8355,0,0,1-.55335-.47431l-.87155-1.662a.7393.7393,0,0,0-.55336-.39528l-1.42292-.15808a.36168.36168,0,0,0-.39527.31618L23.4403,89.33007c0,.23714.15813.39525.39528.31621l7.1205-1.66205a.6555.6555,0,0,1,.63242.23714l6.17187,7.911a.976.976,0,0,0,.63242.31621h4.747a.37346.37346,0,0,0,.39528-.39528v-.71146a.501.501,0,0,0-.39528-.47428l-3.00783-.55336c-.23714,0-.47429-.23913-.63242-.39723l-4.98417-7.03948a.39063.39063,0,0,1,.07907-.55335l4.27268-2.84979c.15813-.1581.15813-.39525,0-.47431a43.38815,43.38815,0,0,1-5.93274-7.03948c-1.02963-1.583-2.92683-5.0632-2.92683-5.0632-.07907-.15811,0-.31621.15807-.23717L43.614,73.34994c.23714.079.39528-.07907.39528-.31817Z"/>
</svg>