<svg width="150" height="150" viewBox="0 0 150 150" fill="none" xmlns="http://www.w3.org/2000/svg">
<path d="M53.7652 69.468H47.6107C45.8949 69.468 44.4925 70.8708 44.4925 72.5857V77.2634C44.4925 78.9785 45.8949 80.3824 47.6107 80.3824H53.7652C55.4808 80.3824 56.8844 78.9785 56.8844 77.2634V72.5857C56.8844 70.8708 55.4808 69.468 53.7652 69.468ZM54.4422 77.2635C54.4422 77.6359 54.1382 77.9425 53.7652 77.9425H47.6107C47.2378 77.9425 46.9333 77.6359 46.9333 77.2635V72.5859C46.9333 72.2133 47.2378 71.9095 47.6107 71.9095H53.7652C54.1382 71.9095 54.4422 72.2133 54.4422 72.5859V77.2635ZM39.6131 69.468H31.0126V71.9095H39.1756C39.4859 71.9095 39.7409 72.2132 39.7409 72.5857V77.2634C39.7409 77.6359 39.4859 77.9425 39.1756 77.9425H33.6017V73.4405H31.0125V80.3827H39.613C41.2783 80.3827 42.6414 78.9788 42.6414 77.2637V72.586C42.6414 70.8711 41.2791 69.4682 39.613 69.4682L39.6131 69.468ZM68.5483 76.4521L61.7966 69.468H59.0268V80.3821H61.8936V73.293L68.6948 80.3821H71.5108V69.468H68.548V76.4521H68.5483ZM77.902 71.9095H86.0644V69.468H77.4632C75.7984 69.468 74.4354 70.8709 74.4354 72.5859V77.2635C74.4354 78.9786 75.7986 80.3825 77.4632 80.3825H86.0644V73.4403H79.3549V76.3392L83.476 76.3328V77.9422H77.9017C77.5901 77.9422 77.3364 77.6357 77.3364 77.2632V72.5855C77.3364 72.213 77.5901 71.9093 77.9017 71.9093L77.902 71.9095Z" fill="#231815"/>
<path d="M89.0977 71.9134L92.4641 71.9096H98.6162V69.4681H92.0538C90.6126 69.4681 89.3989 70.5188 89.0977 71.9134ZM98.6159 73.4406H89.0262V80.3827H91.9254V76.3406L98.6163 76.3494V73.4408L98.6159 73.4406ZM112.175 69.4681H101.503V80.3822H112.176V77.9422H104.85V76.3462H112.176V73.4401H104.85V71.9091H112.176V69.4678L112.175 69.4681ZM123.659 76.4522L116.906 69.4681H114.137V80.3822H117.004V73.2931L123.805 80.3822H126.623V69.4681H123.659V76.4522ZM132.837 71.9096H141V69.4681H132.402C130.734 69.4681 129.373 70.871 129.373 72.5858V77.2636C129.373 78.9787 130.734 80.3825 132.402 80.3825H141V73.4404H134.291V76.3393L138.412 76.3327V77.9423H132.838C132.526 77.9423 132.272 77.6358 132.272 77.2633V72.5856C132.272 72.2131 132.526 71.9093 132.838 71.9093L132.837 71.9096Z" fill="#231815"/>
<path d="M21.6334 81.6897C18.2756 80.9194 13.8086 75.5217 18.6407 69.4034L18.6406 69.4031C13.8973 70.3367 11.5875 73.0897 11.711 77.6624C11.3226 76.7509 11.1085 75.7468 11.1085 74.6928C11.1085 71.546 13.0245 68.8468 15.7535 67.6981C19.1113 68.4676 23.5784 73.8655 18.747 79.9845C23.4892 79.0515 25.799 76.2973 25.6759 71.7251C26.0644 72.6371 26.2796 73.6404 26.2796 74.6936C26.2796 77.841 24.3621 80.541 21.6334 81.6897ZM18.6948 82.2788C15.6153 82.2788 12.9665 80.447 11.7772 77.8124C12.3913 76.2434 13.1233 75.3121 13.9548 74.8185C14.2939 80.2362 18.47 81.8719 21.2069 81.8531L21.2073 81.8532C20.4212 82.1284 19.5743 82.2788 18.6948 82.2788ZM16.1797 67.5342C16.9664 67.2585 17.8129 67.1079 18.6944 67.1079C21.772 67.1079 24.4208 68.9408 25.61 71.5755C24.9961 73.1436 24.2645 74.0753 23.4323 74.5684C23.0933 69.1511 18.9168 67.5154 16.1797 67.5345V67.5342ZM18.6941 66C13.8933 66 10.0013 69.8909 10 74.6906V74.6967C10.0016 79.4964 13.8917 83.3859 18.6908 83.388L18.6911 83.3878H18.6974C23.4959 83.3861 27.387 79.4944 27.387 74.6932C27.387 69.8918 23.4944 66 18.6941 66Z" fill="#E41E26"/>
</svg>
