<svg width="150" height="150" viewBox="0 0 150 150" fill="none" xmlns="http://www.w3.org/2000/svg">
<g clip-path="url(#clip0_3122_518)">
<path d="M15 89H42.5118V61H15V89ZM32.6339 63.1384C37.4966 64.7604 41.0107 69.4521 41.0239 74.9947C41.0371 80.447 37.594 85.1276 32.6339 86.8571V63.1384ZM28.7515 62.5038C29.63 62.5038 30.5658 62.6231 31.3452 62.781C31.3452 69.1245 25.3166 74.345 19.0948 74.345L16.4934 74.3411C16.92 67.8386 22.2071 62.5038 28.7515 62.5038ZM19.097 75.6657C25.3178 75.6657 31.3441 80.8805 31.3441 87.2178C30.5658 87.3797 29.5832 87.5001 28.7515 87.5001C22.2049 87.4911 16.7389 82.1402 16.4917 75.6657H19.097ZM51.7215 77.4601V75.6953H57.4462V73.4455H51.7204V70.1696H57.8112V67.9248H49.3771V77.3582C49.3771 79.743 50.3751 81.374 52.7178 81.7089C52.7646 81.7207 52.8108 81.7296 52.8538 81.7307H52.8962C53.1362 81.7582 53.3811 81.7761 53.6382 81.7761H57.9736V79.5341H53.6574C52.9127 79.5341 51.7215 79.16 51.7215 77.4601ZM59.6387 81.7795H61.9831V67.9214H59.6387V81.7795ZM68.8654 71.4421C65.9023 71.4421 63.6845 73.5194 63.6845 76.7539V76.834C63.6845 79.9895 65.8236 82.0265 68.9243 82.0265C70.4155 82.0265 71.8087 81.6075 73.0841 80.2286L71.6711 78.8312C70.9252 79.5901 70.1992 79.9895 69.0025 79.9895C67.2559 79.9895 66.0983 78.9511 66.0196 77.3532H73.7117C73.7507 76.9538 73.7507 76.5147 73.7507 76.5147C73.7518 73.6987 71.8087 71.4421 68.8654 71.4421ZM66.079 75.6757C66.177 74.457 67.3941 73.4785 68.8654 73.4785C70.2388 73.4785 71.3574 74.4772 71.3574 75.6757H66.079ZM80.3391 73.5788C81.3988 73.5788 82.1843 73.9787 82.8509 74.6771L84.303 73.1391C83.1646 71.9008 81.8111 71.4018 80.3391 71.4018C77.3562 71.4018 74.9623 73.6583 74.9623 76.7337C74.9623 79.8091 77.3562 82.0662 80.3391 82.0662C81.8111 82.0662 83.1652 81.5672 84.303 80.3289L82.8509 78.7909C82.1843 79.4899 81.3988 79.8892 80.3391 79.8892C78.6118 79.8892 77.2973 78.5506 77.2973 76.7337C77.2973 74.9168 78.6118 73.5788 80.3391 73.5788ZM88.1066 77.4641H88.1039V73.926H90.2358V71.7585H88.1066V67.922H85.7622V77.6046L85.7688 77.6041C85.836 79.8556 86.8411 81.3891 89.103 81.7123C89.1497 81.724 89.196 81.733 89.2389 81.7335H89.2813C89.5213 81.761 89.7663 81.7795 90.0233 81.7795H90.2716L90.2798 79.5375H90.0426C89.2978 79.5375 88.1066 79.1639 88.1066 77.4641ZM94.5338 73.2489V71.7591H92.2086V81.7795H94.5338V76.5103C94.5338 74.8603 95.5692 73.8258 97.1903 73.8258C97.5613 73.8258 97.8937 73.865 98.1673 73.9255V71.6196C98.0693 71.6 97.7182 71.5597 97.4644 71.5597C96.0574 71.5603 95.0027 72.2167 94.5338 73.2489ZM103.9 71.4606C100.91 71.4606 98.5262 73.7659 98.5262 76.769C98.5262 79.7705 100.91 82.0774 103.9 82.0774C106.868 82.0774 109.272 79.7705 109.272 76.769C109.272 73.7664 106.868 71.4606 103.9 71.4606ZM103.9 79.9105C102.161 79.9105 100.852 78.5377 100.852 76.769C100.852 74.9992 102.161 73.6275 103.9 73.6275C105.619 73.6275 106.947 74.9992 106.947 76.769C106.947 78.5383 105.619 79.9105 103.9 79.9105ZM110.713 81.7795H113.059V67.9214H110.713V81.7795ZM121.514 77.5839C121.514 79.174 120.596 79.8511 119.365 79.8511C118.134 79.8511 117.216 79.174 117.216 77.6052V71.7591H114.852V77.8035C114.852 80.6666 116.903 82.0382 119.346 82.0382C121.807 82.0382 123.877 80.6464 123.877 77.7435V71.7591H121.514V77.5839ZM132.748 78.5753L131.27 76.471L133.1 73.9328L134.668 71.7591H132.109L129.979 74.7611L127.83 71.7591H125.29L126.746 73.786L128.69 76.4906L126.653 79.3767L124.958 81.7795H127.478L129.978 78.2403L132.479 81.7795H135L132.748 78.5753Z" fill="#041E41"/>
</g>
<defs>
<clipPath id="clip0_3122_518">
<rect width="150" height="150" fill="white"/>
</clipPath>
</defs>
</svg>
