<svg xmlns="http://www.w3.org/2000/svg" xmlns:xlink="http://www.w3.org/1999/xlink" id="Layer_1" data-name="Layer 1" width="150" height="150" viewBox="0 0 150 150">
  <defs>
    <style>.cls-1{fill:none;}.cls-2{clip-path:url(#clip-path);}.cls-3{fill:#e6332a;}.cls-4{fill:#d81117;}.cls-5{fill:#1d1d1b;}</style>
    <clipPath id="clip-path">
      <rect class="cls-1" x="-787.50302" y="-868.98151" width="946.77102" height="366.48599"/>
    </clipPath>
  </defs>
  <g class="cls-2">
    <rect class="cls-3" x="-839.81958" y="-261.65322" width="1868.3578" height="60.14297" transform="translate(191.3903 -1.10664) rotate(-45.00002)"/>
    <rect class="cls-4" x="-881.47425" y="-303.30782" width="1868.35781" height="60.14297" transform="translate(208.64418 -42.76131) rotate(-45.00002)"/>
  </g>
  <path class="cls-5" d="M49.40075,68.262a1.29113,1.29113,0,0,0-1.05248-.65078h-.81619a1.26828,1.26828,0,0,0-1.04305.65708l-6.4649,13.50638c-.17964.35765.01577.61293.41757.61293h1.4937a1.01019,1.01019,0,0,0,1.0194-.59562c.1607-.32929.51681-1.04306.58461-1.18962.09136-.197.37651-.31827.77676-.31827l6.95642.00476c.40026,0,.65867.07718.77686.31351.07713.15445.43324.79729.60817,1.14711a1.07551,1.07551,0,0,0,1.04623.63813h2.168c.40025,0,.57672-.30413.4317-.58615-.14493-.2836-6.90285-13.53946-6.90285-13.53946m-4.084,9.93753a.43037.43037,0,0,1-.42074-.66174l2.54782-5.458c.16858-.36237.44276-.36078.60817.00317l2.48012,5.45642a.434.434,0,0,1-.427.66337Zm54.03973-9.832V81.76677a.66559.66559,0,0,0,.72954.62082h1.76625a.67171.67171,0,0,0,.728-.65549V68.33916a.67409.67409,0,0,0-.65866-.728H100.086a.69191.69191,0,0,0-.72954.75633M69.75011,76.75937a.49363.49363,0,0,1,.28053-.80354,7.43832,7.43832,0,0,0,2.25786-1.11244A3.62646,3.62646,0,0,0,73.38676,72.001a4.449,4.449,0,0,0-.42392-2.04048,3.46069,3.46069,0,0,0-1.21-1.34873,5.52066,5.52066,0,0,0-1.88454-.76262,12.8573,12.8573,0,0,0-1.7221-.20484c-.40026-.01731-1.05575-.03309-1.45591-.03309H59.3541a.73033.73033,0,0,0-.728.728V81.7321a.67172.67172,0,0,0,.728.65549h1.73634a.67163.67163,0,0,0,.7279-.65549l.00481-5.32721.00471-.00635c0-.00471,3.2915-.00783,3.2915-.00783a1.5834,1.5834,0,0,1,1.14865.59557l3.41757,4.81045a1.19787,1.19787,0,0,0,1.0194.59086H72.9739a.36136.36136,0,0,0,.32621-.57355c-.13868-.19537-3.55-5.05467-3.55-5.05467m-1.38022-2.71953a6.0045,6.0045,0,0,1-.95641.12445c-.40026.01736-1.05411.03154-1.45591.03154H62.5574a.73064.73064,0,0,1-.72954-.728V70.7546a.731.731,0,0,1,.72954-.72949h3.40017c.4018,0,1.05565.01418,1.45591.03149a6.00179,6.00179,0,0,1,.95641.12449,2.94849,2.94849,0,0,1,1.06671.43488,1.64094,1.64094,0,0,1,.56249.66174,2.137,2.137,0,0,1,0,1.66388,1.65107,1.65107,0,0,1-.56249.66179,2.94812,2.94812,0,0,1-1.06671.43646M121.0467,67.6112a.67387.67387,0,0,0-.72483.65078c0,.18431.00481,8.56514.00481,8.56514,0,.4018-.227.49321-.50421.20484l-8.57784-8.89764a1.67969,1.67969,0,0,0-1.23529-.52312H108.3959c-.50739,0-.728.271-.728.54519v13.697a.59883.59883,0,0,0,.6602.53417h1.61661c.39862,0,.67915-.21744.67915-.58615,0-.18594.00942-9.02368.00942-9.02368,0-.4002.22687-.4932.50422-.20325l8.94337,9.29781a1.60757,1.60757,0,0,0,1.24155.51527h1.21481a.73032.73032,0,0,0,.728-.728V68.33916a.73033.73033,0,0,0-.728-.728ZM86.077,75.96367c-.19542.34981-.51528.34823-.706-.00154L81.17831,68.262a1.15488,1.15488,0,0,0-1.05411-.65078H77.85056a.73164.73164,0,0,0-.72954.728V81.71479a.652.652,0,0,0,.72954.6728h1.41331a.6335.6335,0,0,0,.69011-.63813c0-.18594.00634-9.728.02212-9.728.01567,0,5.23267,9.72485,5.23267,9.72485a.46964.46964,0,0,0,.84456.00317s5.261-9.69965,5.27682-9.69965.011,9.42076.011,9.69965a.65055.65055,0,0,0,.70906.63813h1.62921a.65921.65921,0,0,0,.728-.728V68.33916a.73033.73033,0,0,0-.728-.728H91.49874A1.1829,1.1829,0,0,0,90.41,68.243Z"/>
  <path class="cls-5" d="M21.43775,75.04015c0,7.21646,7.38024,7.582,8.8598,7.582,4.89868,0,6.96748-1.32353,7.05413-1.38027a1.29248,1.29248,0,0,0,.679-1.17856V75.08271a.83349.83349,0,0,0-.8335-.83192H31.04441a.77457.77457,0,0,0-.76109.83192v.51681a.7759.7759,0,0,0,.76109.8335h3.55932a.6227.6227,0,0,1,.62241.62241s-.00317,2.18382-.00317,2.32249a12.82882,12.82882,0,0,1-6.479.60818,5.0219,5.0219,0,0,1,.79253-9.93912,10.81462,10.81462,0,0,1,6.17965,1.19592.80427.80427,0,0,0,1.1298-.39708c.00154-.00472.46325-.9391.46325-.9391a.799.799,0,0,0-.342-1.10133,15.00376,15.00376,0,0,0-6.6681-1.42754c-8.61245,0-8.86134,6.87765-8.86134,7.6623"/>
  <path class="cls-5" d="M126.8763,78.74907a1.68595,1.68595,0,1,1-1.6844,1.68595,1.68889,1.68889,0,0,1,1.6844-1.68595m.00472,3.11979a1.43544,1.43544,0,1,0-1.36763-1.43384,1.37169,1.37169,0,0,0,1.36763,1.43384m-.64915-2.42333h.75628c.45382,0,.67751.18277.67751.55461a.50281.50281,0,0,1-.50893.54672l.561.87293h-.34188l-.5499-.87293h-.271v.87293h-.323Zm.323.84922h.38286c.24734,0,.4065-.05039.4065-.30721,0-.22532-.20166-.28995-.4065-.28995h-.38286Z"/>
</svg>