<svg xmlns="http://www.w3.org/2000/svg" xmlns:xlink="http://www.w3.org/1999/xlink" id="Layer_1" data-name="Layer 1" width="150" height="150" viewBox="0 0 150 150">
  <defs>
    <style>.cls-1{fill:none;}.cls-2{clip-path:url(#clip-path);}.cls-3{fill:#e6332a;}.cls-4{fill:#d81117;}.cls-5{fill:#8e81ba;}.cls-6{fill:#6b5ca3;}.cls-7,.cls-8{fill:#fff;}.cls-10,.cls-8{fill-rule:evenodd;}.cls-10,.cls-9{fill:#2a255e;}</style>
    <clipPath id="clip-path">
      <rect class="cls-1" x="-1467.50302" y="-868.98151" width="946.77102" height="366.48599"/>
    </clipPath>
  </defs>
  <g class="cls-2">
    <rect class="cls-3" x="-1519.81958" y="-261.65322" width="1868.3578" height="60.14297" transform="translate(-7.77726 -481.93942) rotate(-45.00002)"/>
    <rect class="cls-4" x="-1561.47425" y="-303.30782" width="1868.35781" height="60.14297" transform="translate(9.47662 -523.59409) rotate(-45.00002)"/>
  </g>
  <path class="cls-5" d="M127.30143,75A52.30143,52.30143,0,1,1,74.99869,22.69736,52.30288,52.30288,0,0,1,127.30143,75"/>
  <path class="cls-6" d="M101.035,82.10774h0ZM49.69807,73.00781l.89,3.33335.575-.44376a12.61251,12.61251,0,0,1,5.169-1.82808l-.97833-5.92794a1.79907,1.79907,0,1,1,3.59813,0l1.12715,6.66927a1.47848,1.47848,0,0,1,.353,2.10036l.26224,1.54567,1.84816,11.0667a1.8003,1.8003,0,1,1-3.60059,0L57.202,79.32658l-.28748-1.73727a10.038,10.038,0,0,0-4.13261,1.44225l-1.223.943.49679,1.86081,2.171,9.30673.14359.57235.02524.07564A1.78545,1.78545,0,0,1,53.049,94.61166a2.011,2.011,0,0,1-1.87094-1.22541l-1.09683-4.59661-.15882-.97329L49.34,85.56971,48.72974,83.134l-.3555-.90268a1.64426,1.64426,0,0,1-1.54559-.52445,1.85543,1.85543,0,0,1,.06294-2.524l.3001-.22942-1.059-5.7338a1.78582,1.78582,0,1,1,3.56535-.21181M61.82874,68.3179a9.218,9.218,0,0,1,5.09848-3.08881,1.68909,1.68909,0,0,1,1.97928,1.24307c.17406.84725-.57989,1.47254-1.5002,1.63394a7.75429,7.75429,0,0,0-1.67179.57992,5.74682,5.74682,0,0,0-1.175,1.07667,1.66077,1.66077,0,0,1-2.1835.706,1.49285,1.49285,0,0,1-.54726-2.15079M76.45072,90.005c-1.18255-5.53967-2.40035-11.04147-1.78014-16.75761a6.31986,6.31986,0,0,1,2.4559-4.30918,4.33039,4.33039,0,0,1,3.41653-.54464c3.25016.98337,5.64558,5.27992,3.76711,8.37122a4.9944,4.9944,0,0,1-3.24,2.2441,1.98789,1.98789,0,0,1-2.398-1.56329,1.78537,1.78537,0,0,1,1.523-2.01464,1.991,1.991,0,0,1,.42368-.00758l.05294-.02016.2824-.179a1.227,1.227,0,0,0,.305-1.586,3.844,3.844,0,0,0-.97572-1.33891c-.633-.55219-1.37923-.77407-1.72473.32276-1.00356,3.18207-.39844,6.37929.03786,9.61433l1.21287,6.56082A1.78461,1.78461,0,1,1,76.45072,90.005M87.636,88.28027c-1.1827-5.53712-2.398-11.03892-1.78029-16.75507a6.32586,6.32586,0,0,1,2.4559-4.31171,4.35584,4.35584,0,0,1,3.41914-.54464c3.24771.98336,5.64312,5.28,3.76711,8.37126a5.0032,5.0032,0,0,1-3.24262,2.2466,1.99064,1.99064,0,0,1-2.39788-1.56329,1.78388,1.78388,0,0,1,1.523-2.01464,1.70449,1.70449,0,0,1,.42353-.00758l.05294-.0227.2824-.17648a1.231,1.231,0,0,0,.30518-1.58853,3.83285,3.83285,0,0,0-.97587-1.33637c-.63282-.55473-1.37661-.77661-1.72457.32022-1.00357,3.1846-.39845,6.37929.0377,9.61683l1.21287,6.55835A1.78453,1.78453,0,1,1,87.636,88.28027M70.13706,79.78551c-.5825,1.04385-2.71321,1.66163-3.88314,1.55067a5.11493,5.11493,0,0,1-4.13523-3.02828c-1.78506-4.10746,1.92141-8.162,6.47263-7.1357a6.5561,6.5561,0,0,1,4.57645,4.37473,10.62683,10.62683,0,0,1,.46647,4.24362,1.71728,1.71728,0,0,1-2.0096,1.41705,1.8205,1.8205,0,0,1-1.48758-1.42209m-.08572-1.79026c-.23207-1.41705-.36058-2.68786-1.84585-3.3006a2.7395,2.7395,0,0,0-1.49265-.14624,1.72685,1.72685,0,0,0-1.54067,1.76251,1.54046,1.54046,0,0,0,1.07174,1.52547c.62283.20426.95817-.0933,1.45234-.37066a1.62745,1.62745,0,0,1,2.31216.4665c.01508.02016.03031.04286.04293.063m36.02914-13.13178c-.35812,3.37375-.71362,6.97691-1.13469,10.106-.14635,1.19263-.13866,2.41808-.27486,3.63091-.15636,1.50277.353,5.5245-1.50281,6.02374a1.82081,1.82081,0,0,1-2.13317-1.41455,7.263,7.263,0,0,1-.08326-2.5265,35.97262,35.97262,0,0,1,.44384-4.11249c-.769-.95309-1.48773-1.78517-2.18366-2.77108-.711-1.02877-1.50773-1.98943-2.22382-3.0182A20.2543,20.2543,0,0,1,95.17514,67.448a2.14233,2.14233,0,0,1-.24208-.5648,1.81913,1.81913,0,0,1,1.13469-2.292,1.7308,1.7308,0,0,1,1.89109.85225c.59251.96824,1.00341,2.06253,1.60869,3.02828l2.428,3.35351.18667-1.03631a50.405,50.405,0,0,1,.61267-7.10546,1.95221,1.95221,0,0,1,.0908-.38578l.00508-.01766v.0025a1.62606,1.62606,0,0,1,1.09683-1.064,1.81956,1.81956,0,0,1,2.13056,1.41455,3.804,3.804,0,0,1-.03771,1.23045"/>
  <path class="cls-7" d="M100.10664,81.28851h0Zm5.04553-17.24427c-.35812,3.37374-.71362,6.97691-1.13469,10.106-.14635,1.19263-.1362,2.41808-.27486,3.63091-.15636,1.50277.353,5.5245-1.50281,6.02375a1.82083,1.82083,0,0,1-2.13317-1.41455,7.263,7.263,0,0,1-.08326-2.5265,35.97262,35.97262,0,0,1,.44384-4.11249c-.769-.95309-1.48773-1.78518-2.18366-2.77109-.711-1.02622-1.50773-1.98943-2.22382-3.0182a20.25386,20.25386,0,0,1-1.81291-3.33334,2.14254,2.14254,0,0,1-.24208-.56481,1.81914,1.81914,0,0,1,1.13468-2.292,1.73081,1.73081,0,0,1,1.8911.85225c.59251.96825,1.00341,2.06254,1.60869,3.02828l2.428,3.35351.18668-1.03377a50.408,50.408,0,0,1,.61267-7.108,1.9523,1.9523,0,0,1,.0908-.38579l.00508-.01766v.0025a1.62607,1.62607,0,0,1,1.09683-1.064,1.81956,1.81956,0,0,1,2.13056,1.41455,3.80405,3.80405,0,0,1-.03771,1.23045"/>
  <path class="cls-8" d="M48.76883,72.18754l.89,3.33338.57743-.44376a12.63606,12.63606,0,0,1,5.169-1.82807l-.98079-5.92541a1.8003,1.8003,0,1,1,3.60059,0l1.12453,6.66673a1.47965,1.47965,0,0,1,.35566,2.10036l.25962,1.54817,1.84831,11.06671a1.79906,1.79906,0,1,1-3.59812,0l-1.74243-10.1993-.28733-1.73478a9.95506,9.95506,0,0,0-4.13015,1.44229l-1.22549.943.49924,1.86086,2.16842,9.30669.14621.57238.02277.07564a1.78359,1.78359,0,0,1-1.344,2.819A2.00453,2.00453,0,0,1,50.25133,92.566L49.152,87.9719l-.15882-.97583-.58251-2.24659-.6102-2.43574-.353-.90269a1.63067,1.63067,0,0,1-1.5456-.52444,1.85543,1.85543,0,0,1,.063-2.524l.29764-.22946-1.059-5.73127a1.78589,1.78589,0,0,1,3.56534-.21434"/>
  <path class="cls-8" d="M60.90028,67.49839a9.21743,9.21743,0,0,1,5.09832-3.08876,1.68907,1.68907,0,0,1,1.97928,1.24307c.17406.8472-.57989,1.47253-1.50019,1.63389a7.80847,7.80847,0,0,0-1.67179.58,5.751,5.751,0,0,0-1.175,1.07667,1.65863,1.65863,0,0,1-2.181.706,1.49266,1.49266,0,0,1-.54957-2.15084"/>
  <path class="cls-8" d="M75.52179,89.18573c-1.1827-5.53962-2.398-11.04147-1.78029-16.75761A6.32048,6.32048,0,0,1,76.1974,68.119a4.33506,4.33506,0,0,1,3.41915-.54465c3.2477.98337,5.64312,5.28,3.7671,8.37127A4.99972,4.99972,0,0,1,80.141,78.18966a1.98884,1.98884,0,0,1-2.39788-1.56329,1.78527,1.78527,0,0,1,1.523-2.01467,1.83592,1.83592,0,0,1,.42353-.00754l.05555-.0227.27979-.17652a1.22706,1.22706,0,0,0,.30518-1.586,3.87055,3.87055,0,0,0-.97325-1.33887c-.63544-.55222-1.37923-.7741-1.72719.32273-1.00357,3.1821-.39844,6.37928.0377,9.61433L78.88276,87.978a1.78569,1.78569,0,1,1-3.361,1.20775"/>
  <path class="cls-8" d="M86.70738,87.46231c-1.1827-5.53963-2.398-11.04147-1.78029-16.75761a6.33034,6.33034,0,0,1,2.4559-4.30918,4.3351,4.3351,0,0,1,3.41915-.54464c3.2477.98337,5.64312,5.28,3.7671,8.37126a4.99973,4.99973,0,0,1-3.24262,2.2441A1.98886,1.98886,0,0,1,88.92874,74.903a1.78528,1.78528,0,0,1,1.523-2.01468,1.83592,1.83592,0,0,1,.42353-.00754l.05555-.0227.27979-.17652a1.22761,1.22761,0,0,0,.30518-1.586,3.87046,3.87046,0,0,0-.97325-1.33887c-.63544-.55222-1.37923-.77411-1.72719.32272-1.00357,3.18211-.39844,6.37929.0377,9.61434l1.21533,6.56085a1.78569,1.78569,0,1,1-3.361,1.20775"/>
  <path class="cls-8" d="M69.20968,78.965c-.58512,1.04639-2.71322,1.66413-3.88315,1.55321a5.11873,5.11873,0,0,1-4.13769-3.02828c-1.78522-4.10745,1.92387-8.1645,6.47263-7.13574a6.54236,6.54236,0,0,1,4.57645,4.37474A10.57212,10.57212,0,0,1,72.70685,78.97a1.718,1.718,0,0,1-2.0096,1.41705A1.81749,1.81749,0,0,1,69.20968,78.965M69.124,77.17725c-.23208-1.41705-.36059-2.68786-1.84585-3.30057a2.71776,2.71776,0,0,0-1.49266-.14624,1.725,1.725,0,0,0-1.54067,1.76248,1.53751,1.53751,0,0,0,1.07175,1.523c.62282.20426.95816-.0933,1.44971-.37067a1.62933,1.62933,0,0,1,2.31232.46651c.01508.02266.03016.04286.0454.06552"/>
  <path class="cls-8" d="M83.47491,55.94429,82.678,64.03316c-5.411,1.42713-5.70345-1.06659-11.84319.39336l-.71871-7.8367c6.33643-1.586,7.83417.10588,13.35878-.64553"/>
  <path class="cls-9" d="M82.63432,63.9941l.78935-7.99556a23.70277,23.70277,0,0,1-5.55232.06052,20.7673,20.7673,0,0,0-7.70566.56735l.71116,7.74086a13.41305,13.41305,0,0,1,6.233-.18406,11.10539,11.10539,0,0,0,5.52446-.18911m.88769-8.046-.79689,8.08633-.00507.03278-.03017.00757a11.20794,11.20794,0,0,1-5.5951.20173,13.30358,13.30358,0,0,0-6.24825.19414l-.05294.01262-.00246-.05294L70.07,56.59363l-.00261-.04036.03786-.01008a20.86,20.86,0,0,1,7.77368-.57743,23.53666,23.53666,0,0,0,5.59-.06806l.058-.00758Z"/>
  <path class="cls-10" d="M82.99306,56.59636l-1.25073,7.03235c-3.84775,1.48515-5.59264-2.25922-10.15647.27736l-.92277-6.64657c5.72622-2.297,7.12053.68335,12.33-.66314"/>
  <path class="cls-8" d="M80.059,60.37582a1.60188,1.60188,0,0,1-.3455.21934.73275.73275,0,0,1-.31257.0706.4756.4756,0,0,1-.3455-.13112.42811.42811,0,0,1-.13619-.32526.56935.56935,0,0,1,.27732-.45135,2.73651,2.73651,0,0,1,.8372-.3555v-.411a.2459.2459,0,0,0-.06048-.17649.22812.22812,0,0,0-.169-.06556.31507.31507,0,0,0-.1639.04036.12183.12183,0,0,0-.0631.10588.34221.34221,0,0,0,.048.12355.33984.33984,0,0,1,.05032.15382.26488.26488,0,0,1-.08818.20422.33249.33249,0,0,1-.22438.07818.41766.41766,0,0,1-.285-.0933.31093.31093,0,0,1-.10588-.242.43047.43047,0,0,1,.25716-.37825,1.36431,1.36431,0,0,1,.68084-.14624,1.09662,1.09662,0,0,1,.65561.15886.58483.58483,0,0,1,.21176.49675v.93039a.24111.24111,0,0,0,.02278.116.06671.06671,0,0,0,.06294.03782.20658.20658,0,0,0,.05556-.01262c.02262-.01008.05032-.02266.08064-.03782l.06048.0706a.90709.90709,0,0,1-.2547.232.5399.5399,0,0,1-.27978.07814.4922.4922,0,0,1-.26733-.07564.56608.56608,0,0,1-.19914-.2143m-.02524-.17148v-.65307a.67921.67921,0,0,0-.28748.20426.43946.43946,0,0,0-.10342.2824.276.276,0,0,0,.058.1866.18292.18292,0,0,0,.14882.07311.20226.20226,0,0,0,.09834-.0227.27221.27221,0,0,0,.08572-.0706M77.95614,58.3057a.39192.39192,0,0,0-.05555-.2345.27662.27662,0,0,0-.18407-.09584V57.8821h1.00865v2.32224a.35288.35288,0,0,0,.0554.21684.3177.3177,0,0,0,.18406.10338v.0908H77.71652v-.0908a.3177.3177,0,0,0,.18407-.10338.35284.35284,0,0,0,.05555-.21684Zm-1.291,0a.41062.41062,0,0,0-.05556-.2345.2768.2768,0,0,0-.18653-.09584V57.8821h1.00865v2.32224a.35339.35339,0,0,0,.05787.21684.31762.31762,0,0,0,.18421.10338v.0908H76.423v-.0908a.3166.3166,0,0,0,.18653-.10338.37018.37018,0,0,0,.05556-.21684ZM75.41437,59.405h.47416a1.52788,1.52788,0,0,0-.0631-.47908c-.04032-.10843-.09834-.16387-.17144-.16387q-.11358,0-.17406.16641a1.45248,1.45248,0,0,0-.06556.47654m1.15485.61524a1.10921,1.10921,0,0,1-.37059.47909.927.927,0,0,1-.54972.1664.95734.95734,0,0,1-.71609-.2849A1.02718,1.02718,0,0,1,74.658,59.637a1.12838,1.12838,0,0,1,.048-.33788,1.021,1.021,0,0,1,.14359-.29248.99615.99615,0,0,1,.80442-.406.82491.82491,0,0,1,.643.25216,1.06052,1.06052,0,0,1,.247.71105l-1.12453.00254a.84991.84991,0,0,0,.16652.50678.48.48,0,0,0,.3932.18914.42237.42237,0,0,0,.24716-.07818.69461.69461,0,0,0,.2093-.22442Zm-3.24247-.98586v1.122a.46691.46691,0,0,0,.04786.23955.16.16,0,0,0,.14374.08322c.1008,0,.1739-.06306.22177-.19164a1.83844,1.83844,0,0,0,.07064-.59759,2.03639,2.03639,0,0,0-.063-.60766c-.04294-.121-.111-.18407-.20684-.18407a.21392.21392,0,0,0-.121.03782.26809.26809,0,0,0-.09326.09835m0-.21184a.64243.64243,0,0,1,.22684-.16641.69864.69864,0,0,1,.83213.22442,1.26205,1.26205,0,0,1-.048,1.48766.89257.89257,0,0,1-.69085.29752.80583.80583,0,0,1-.30764-.06052,1.02848,1.02848,0,0,1-.28732-.17648l-.2901.20676h-.18652V58.29308a.354.354,0,0,0-.05541-.21684.3014.3014,0,0,0-.1816-.10088V57.8821h.98849Z"/>
  <path class="cls-8" d="M79.703,61.54779v-.06053c.09572-.00757.19406-.02019.295-.03278.09834-.01261.15128-.02016.15882-.02016.04032,0,.09326.15633.15636.47151.02509.12354.0454.22438.06048.30006.07557-.13616.12851-.2345.15636-.29756a.38545.38545,0,0,0,.04032-.13866c0-.0227-.02277-.05044-.06817-.08068a.1365.1365,0,0,1-.07049-.111.14784.14784,0,0,1,.04786-.11347.1928.1928,0,0,1,.12866-.04286.17451.17451,0,0,1,.12343.04286.15577.15577,0,0,1,.0454.12105.87412.87412,0,0,1-.10327.31014,3.99693,3.99693,0,0,1-.27994.48158,2.24972,2.24972,0,0,1-.36566.44881.50228.50228,0,0,1-.31764.1387.27828.27828,0,0,1-.16144-.04036.13018.13018,0,0,1-.058-.11093.1339.1339,0,0,1,.05048-.10592.185.185,0,0,1,.12866-.04286.25083.25083,0,0,1,.1285.04286.25989.25989,0,0,0,.09326.04287c.02786,0,.058-.02017.09342-.063a.18184.18184,0,0,0,.0554-.1185,1.04779,1.04779,0,0,0-.01-.10842c-.00508-.04286-.01262-.09584-.02524-.15636-.02278-.13616-.0454-.25716-.07064-.36812-.02262-.10842-.0454-.19668-.06556-.2597a.255.255,0,0,0-.05048-.10592.12845.12845,0,0,0-.08572-.0252h-.00246a.11239.11239,0,0,1-.0277.00254m-.522-.65811-.21931.74129a.74515.74515,0,0,1,.18652-.16136.39268.39268,0,0,1,.18407-.04791.29113.29113,0,0,1,.21438.08826.315.315,0,0,1,.08325.22693.68221.68221,0,0,1-.06063.26978.93535.93535,0,0,1-.16636.2572.83321.83321,0,0,1-.27733.19918.82432.82432,0,0,1-.34288.06556.86572.86572,0,0,1-.2901-.04032c-.07818-.02524-.11588-.06052-.11588-.09834,0-.01008.00246-.0202.00246-.03028a.34084.34084,0,0,1,.01262-.04032l.3278-1.10191c.00754-.03024.01508-.05544.02016-.07814a.2193.2193,0,0,0,.00754-.05044.06105.06105,0,0,0-.02524-.058.18234.18234,0,0,0-.0908-.01512h-.03524v-.06052c.11342-.01008.21684-.0202.31272-.03028.09834-.01008.18652-.02016.27225-.03528m-.38075,1.349c-.00754.0227-.01508.0454-.02016.0681a.24632.24632,0,0,0-.00754.0479.06233.06233,0,0,0,.0177.0454.065.065,0,0,0,.05032.01766.22981.22981,0,0,0,.159-.0706.75134.75134,0,0,0,.13866-.22192,1.33484,1.33484,0,0,0,.08064-.2118.666.666,0,0,0,.02771-.16894.14172.14172,0,0,0-.02524-.09326.083.083,0,0,0-.07311-.03532.172.172,0,0,0-.13866.09076,1.27171,1.27171,0,0,0-.1362.30764Zm-.52448-.77911-.19914.65307v.0025a1.12143,1.12143,0,0,0-.0454.174.06759.06759,0,0,0,.01015.03782.03154.03154,0,0,0,.0277.01512c.03278,0,.07311-.03528.12358-.10338.01509-.02016.02771-.03528.03525-.0479l.058.04036a.86471.86471,0,0,1-.19669.22692.35069.35069,0,0,1-.21176.0706.23261.23261,0,0,1-.14374-.03782.13331.13331,0,0,1-.05048-.11092.53571.53571,0,0,1,.00508-.05548c.00246-.0227.00754-.05044.01508-.08576a.70527.70527,0,0,1-.19668.21938.40717.40717,0,0,1-.23438.0706.29049.29049,0,0,1-.21192-.07564.27.27,0,0,1-.07818-.20676.7761.7761,0,0,1,.07572-.31768,1.03376,1.03376,0,0,1,.19914-.295.81321.81321,0,0,1,.20684-.15633.44648.44648,0,0,1,.20668-.05548.23749.23749,0,0,1,.14882.04286.19113.19113,0,0,1,.0731.12355l.03786-.12859Zm-.44877.19165a.12273.12273,0,0,0-.02262-.07564.07707.07707,0,0,0-.06064-.02774.15077.15077,0,0,0-.1008.0479.66539.66539,0,0,0-.116.15886,1.474,1.474,0,0,0-.1185.25716.71287.71287,0,0,0-.04278.21434.12849.12849,0,0,0,.02524.08572.07314.07314,0,0,0,.06294.03024.18249.18249,0,0,0,.12358-.06552.66449.66449,0,0,0,.1185-.18156,2.15673,2.15673,0,0,0,.09588-.25466.78811.78811,0,0,0,.03524-.1891m-1.36922-.76149L76.241,61.631a.788.788,0,0,1,.18407-.16136.40294.40294,0,0,1,.18667-.04791.28122.28122,0,0,1,.21177.08826.31437.31437,0,0,1,.08326.22693.68192.68192,0,0,1-.06049.26978.88227.88227,0,0,1-.16651.2572.82139.82139,0,0,1-.27487.19918.83169.83169,0,0,1-.34288.06556.88026.88026,0,0,1-.2924-.04032c-.07572-.02524-.11358-.06052-.11358-.09834a.11845.11845,0,0,1,.00262-.03028.32145.32145,0,0,1,.01-.04032l.3278-1.10191a.38777.38777,0,0,0,.02016-.07814.2193.2193,0,0,0,.00754-.05044.066.066,0,0,0-.02262-.058.19612.19612,0,0,0-.0908-.01512h-.03524v-.06052c.111-.01008.21684-.0202.31256-.03028.09588-.01008.18668-.02016.26979-.03528m-.38059,1.349a.32629.32629,0,0,0-.0177.0681.24632.24632,0,0,0-.00754.0479.05389.05389,0,0,0,.01754.0454.05977.05977,0,0,0,.048.01766.22945.22945,0,0,0,.15882-.0706.75063.75063,0,0,0,.14112-.22192,1.60709,1.60709,0,0,0,.0808-.2118.656.656,0,0,0,.02509-.16894.14253.14253,0,0,0-.02509-.09326.07654.07654,0,0,0-.07064-.03532.17581.17581,0,0,0-.14128.09076,1.28156,1.28156,0,0,0-.13358.30764Z"/>
</svg>