<svg xmlns:xlink="http://www.w3.org/1999/xlink" xmlns="http://www.w3.org/2000/svg" id="Layer_1" viewBox="0 0 150 150" width="200"  height="200" >
  <defs>
    <style>.cls-1{fill:none;}.cls-2{fill-rule:evenodd;}</style>
  </defs>
  <rect class="cls-1" width="150" height="150"/>
  <path class="cls-2" d="M135.34,63.26v-4.64h-4.64v-3.09h7.74v7.74h-3.09Zm-18.9,23.21c-5.34,.03-9.69-4.28-9.72-9.62-.03-5.34,4.28-9.69,9.62-9.72,5.34-.03,9.69,4.28,9.72,9.62,0,.02,0,.03,0,.05,.02,5.33-4.29,9.66-9.61,9.67,0,0,0,0,0,0Zm0-16.36c-3.69-.02-6.7,2.96-6.72,6.65-.02,3.69,2.96,6.7,6.65,6.72,3.69,.02,6.7-2.96,6.72-6.65,0-.01,0-.02,0-.04,.01-3.68-2.97-6.68-6.65-6.69,0,0,0,0,0,0h0Zm-13.39,16.36h-2.26c-.44-.04-.84-.29-1.08-.67l-4.72-6.74-4.72,6.74c-.24,.38-.63,.62-1.08,.67h-2.27c-.69,0-.27-.67-.27-.67l6.53-9.31-6.08-8.68s-.48-.68,.2-.68h2.26c.46,.05,.88,.3,1.15,.68l12.61,17.99s.42,.67-.27,.67Zm-5.47-12.43l-.86-1.22c-.28-.41-.28-.95,0-1.35l2.55-3.66c.26-.38,.67-.62,1.12-.67h2.96s-4.36,6.24-4.83,6.91c-.14,.26-.47,.36-.74,.21-.09-.05-.16-.12-.21-.21h0Zm-16.29,12.42h-11.81c-.18,0-.35-.07-.47-.2-.12-.12-.19-.29-.19-.46v-1.75c0-.18,.06-.36,.19-.49,.12-.13,.3-.2,.47-.2h11.81c.18,0,.35,.07,.47,.2,.13,.13,.2,.31,.19,.49v1.74c0,.17-.07,.34-.19,.46-.12,.13-.29,.2-.47,.2Zm-10.42-11.6h9.04c.15,0,.28,.08,.36,.2,.1,.14,.15,.32,.15,.49v1.75c0,.17-.05,.33-.15,.46-.08,.12-.22,.2-.36,.2h-9.04c-.15,0-.28-.08-.36-.2-.1-.13-.15-.3-.15-.46v-1.75c0-.17,.05-.35,.15-.49,.08-.12,.22-.2,.36-.2Zm10.42-4.63h-11.81c-.18,0-.35-.07-.47-.2-.12-.12-.19-.29-.19-.46v-1.75c0-.18,.06-.36,.19-.49,.12-.13,.3-.2,.47-.2h11.81c.18,0,.35,.07,.47,.2,.13,.13,.2,.31,.19,.49v1.75c0,.17-.07,.34-.19,.46-.12,.13-.29,.2-.47,.2h0Zm-26.88,16.23s-5.71,0-5.71,0c-.18,0-.35-.06-.47-.19-.12-.12-.19-.28-.19-.45v-1.68c0-.18,.06-.35,.19-.47,.12-.13,.29-.19,.47-.19h5.71c3.69-.07,6.63-3.12,6.56-6.81-.07-3.59-2.96-6.49-6.56-6.56h0s-.01,0-.02,0h-5.69c-.18,0-.35-.07-.47-.19-.12-.12-.19-.28-.19-.44v-1.68c0-.35,.27-.65,.62-.66,.01,0,.02,0,.04,0h5.72c5.34,.09,9.59,4.48,9.51,9.82-.08,5.22-4.3,9.43-9.52,9.51Zm-14.12,0h-1.83c-.18,0-.36-.08-.48-.22-.14-.13-.21-.3-.22-.49v-3.28c0-.37-.11-.73-.34-1.01-.35-.36-9.55-9.47-9.55-9.47v13.76c0,.19-.07,.37-.2,.5-.12,.13-.29,.2-.47,.2h-1.78c-.19,0-.37-.07-.5-.2-.13-.13-.21-.31-.2-.5v-17.93c0-.19,.07-.37,.2-.5,.13-.14,.31-.21,.5-.21h1.92c.13,0,.26,.02,.38,.07,.1,.03,.2,.09,.27,.17l9.77,9.95v-9.48c0-.19,.06-.38,.19-.51,.14-.13,.32-.2,.51-.19h1.83c.18,0,.34,.09,.46,.22,.14,.13,.21,.3,.22,.48v17.93c-.02,.18-.11,.34-.24,.46-.11,.13-.26,.22-.43,.24Zm-26.25,0h-1.78c-.19,0-.37-.07-.5-.2-.13-.13-.2-.32-.2-.5v-17.93c0-.19,.07-.37,.2-.5,.13-.13,.31-.21,.5-.21h1.78c.18,0,.35,.07,.47,.2,.13,.13,.2,.31,.2,.5v17.93c0,.19-.07,.37-.2,.5-.12,.13-.29,.2-.47,.2Z"/>
</svg>