<svg width="150" height="150" viewBox="0 0 150 150" fill="none" xmlns="http://www.w3.org/2000/svg">
<path fill-rule="evenodd" clip-rule="evenodd" d="M29.2972 65.1452C29.737 65.1577 29.6903 65.4736 29.6176 65.5825C28.3195 67.6464 25.2525 71.2806 23.0193 75.2678C22.6495 75.9138 22.3742 76.3891 22.3742 77.0981C22.3742 78.0593 22.9613 79.1957 24.1406 79.6834C24.9165 80.0011 25.4049 80.0108 26.2422 80.0232C32.4586 80.2197 34.9508 80.048 40.5135 79.8551C40.8347 79.8542 41.1334 79.6329 41.2408 79.4993C42.3163 78.3531 42.9363 76.2927 42.9363 74.4747C42.9363 70.4256 40.0831 66.7782 35.6322 65.024L34.9179 65.9604C38.8189 67.6084 40.8347 70.9 40.8347 74.4252C40.8347 75.2182 40.703 75.9864 40.4649 76.7201C40.2883 77.2318 40.071 77.5256 39.4388 77.5353C34.9057 77.6344 32.3392 77.707 27.7939 77.5849C27.2077 77.5725 27.0181 77.3539 26.9228 76.8794C26.8501 76.598 26.9107 76.3643 27.1004 76.0112C29.5111 71.6461 33.7108 66.6569 34.5351 65.4736C34.6918 65.255 34.6183 64.8143 34.0805 64.6682C32.5071 64.1929 30.7416 64 28.9517 64C20.8476 64.0336 15.1316 68.6926 15 74.4747C15.3247 81.4155 21.2294 85 28.9517 85C33.677 85 38.0057 83.2927 40.5386 80.5852L38.1988 80.6817C36.0383 82.6457 32.5773 83.6954 28.9976 83.6954C22.4729 83.6954 17.1605 80.379 17.1605 74.4252C17.1605 69.3042 22.472 65.1329 28.9976 65.1329L29.2972 65.1452ZM82.8993 77.6813L87.3129 74.7191L80.6323 69.6326V70.8778H70.7505C69.4611 70.8778 68.4003 71.8152 68.2081 73.0356L79.6642 73.0232V75.243L70.9054 75.2553C69.5217 75.2553 68.3882 76.3299 68.3276 77.6813H82.8993ZM124.865 70.8407H134.996V68.6581H124.808C120.998 68.6581 117.885 71.6337 117.729 75.3651L130.01 75.3519C130.807 75.3519 131.451 75.8891 131.451 76.5361C131.451 77.1946 130.806 77.7194 130.01 77.7194L116.489 77.7185V68.6581H112.479V77.6592H104.426C103.244 77.4627 102.873 76.5856 102.873 74.8774L102.874 68.6581H96.4076L90.5939 72.5108L85.5351 68.6581H69.9746C66.5257 68.6581 63.6508 71.0841 63.0178 74.3154H66.1438C64.9644 75.1332 64.0569 76.2927 63.5555 77.6601L53.6615 77.6592C52.4952 77.4627 52.1124 76.5856 52.1124 74.8774L52.1133 68.6581H48.1145V74.4624C47.9465 78.3062 49.9865 79.6834 52.3141 79.902L83.3998 79.9011L89.1279 76.1201L94.1285 79.9516H100.247L92.4573 73.9632L98.8634 69.7193L98.8755 74.4624C98.711 78.3062 100.952 79.6834 103.28 79.902L132.371 79.9011C134.376 79.9011 136 78.4027 136 76.5361C136 74.681 134.375 73.1825 132.371 73.1825H122.324C122.418 71.8771 123.518 70.8407 124.865 70.8407Z" fill="black"/>
</svg>
