<svg xmlns="http://www.w3.org/2000/svg" xmlns:xlink="http://www.w3.org/1999/xlink" id="Layer_1" data-name="Layer 1" width="150" height="150" viewBox="0 0 150 150">
  <defs>
    <style>.cls-1{fill:none;}.cls-2{clip-path:url(#clip-path);}.cls-3{fill:#e6332a;}.cls-4{fill:#d81117;}.cls-5{fill:#223467;}.cls-6{fill:#e39b00;}.cls-7{fill:#fff;}</style>
    <clipPath id="clip-path">
      <rect class="cls-1" x="-1127.50302" y="-868.98151" width="946.77102" height="366.48599"/>
    </clipPath>
  </defs>
  <g class="cls-2">
    <rect class="cls-3" x="-1179.81958" y="-261.65322" width="1868.3578" height="60.14297" transform="translate(91.80652 -241.52303) rotate(-45.00002)"/>
    <rect class="cls-4" x="-1221.47425" y="-303.30782" width="1868.35781" height="60.14297" transform="translate(109.0604 -283.1777) rotate(-45.00002)"/>
  </g>
  <path class="cls-5" d="M22.45773,58.78024l3.98841.04179c.00574,0,.5679.00571,1.32951.00571,1.04458,0,1.95433-.01139,2.6381-.03229a29.4941,29.4941,0,0,0,7.79837-1.10158c1.14525-.38176,2.76532-1.14337,4.64749-2.02652,6.94565-3.261,17.439-8.18775,31.98181-8.18775,14.73451,0,25.86987,5.185,32.523,8.29031,1.8005.83757,3.35409,1.5593,4.45755,1.93915a28.11857,28.11857,0,0,0,7.75287,1.0826c1.187.03608,2.37977.04367,3.17557.04367.48815,0,.80334-.0038.80914-.0038l3.98273-.038V102.509l-105.08454.01142Z"/>
  <path class="cls-6" d="M123.58817,61.53478c-.00382,0-.32667.00379-.83951.00379-.81284,0-2.03594-.00759-3.25347-.04367a31.67657,31.67657,0,0,1-8.55424-1.23072c-1.23457-.42925-2.8489-1.18136-4.71779-2.05121C99.35732,55.01651,88.97777,50.179,74.84153,50.179,60.899,50.179,50.736,54.95382,44.007,58.1085a49.47419,49.47419,0,0,1-4.94379,2.15,34.05406,34.05406,0,0,1-8.57325,1.24022c-.89266.02469-1.97334.03037-2.71408.03037-.78439,0-1.35606-.00759-1.35606-.00759l-1.263-.01328V99.81831l99.68687-.01327V61.52148Zm-1.01606,36.18294-95.14382.01521V63.19475s2.33606.02469,4.0378-.02469a33.55563,33.55563,0,0,0,8.74047-1.27253c5.67311-1.886,17.14082-9.80591,34.6388-9.80591,17.49983,0,29.28482,7.85346,34.94078,9.80591a32.00674,32.00674,0,0,0,8.73855,1.27062c2.01519.06077,4.04742.03988,4.04742.03988Z"/>
  <path class="cls-7" d="M51.70476,80.62811c-.13111.70654-.61161,2.86032-.81482,3.56683H40.60539v-.64006c1.905-.13485,2.08921-.29439,2.08921-2.22023V72.25236c0-1.92776-.13673-2.04171-1.998-2.18038v-.63624h5.92571V70.072c-1.79668.13867-1.998.22793-1.998,2.18038v8.97022c0,1.21933.11209,1.67708.52043,1.90118a5.02842,5.02842,0,0,0,2.18217.29627c1.2479,0,2.019-.112,2.54125-.70081a6.28523,6.28523,0,0,0,1.15667-2.22214Z"/>
  <path class="cls-7" d="M58.49269,84.19474v-.64c1.85928-.133,2.04359-.26589,2.04359-2.19936v-9.0785c0-1.93155-.18431-2.06639-2.04359-2.205v-.63626h6.013v.63626c-1.85557.13865-2.04174.27349-2.04174,2.205v9.0785c0,1.95245.18617,2.0664,2.04174,2.19936v.64Z"/>
  <path class="cls-7" d="M76.70371,81.223c0,1.72075.7521,2.15377,2.40248,2.15377,4.2278,0,6.20114-3.17748,6.20114-6.81268A6.01283,6.01283,0,0,0,82.63312,71.117a7.29886,7.29886,0,0,0-3.865-.93065,3.3525,3.3525,0,0,0-1.76827.29629c-.20507.13865-.29618.38744-.29618,1.2972Zm2.49754-11.78687c2.88113,0,4.99311.56978,6.40052,1.92778a6.63219,6.63219,0,0,1,1.92964,4.8849,7.25166,7.25166,0,0,1-2.79384,6.05867,10.70994,10.70994,0,0,1-6.73669,1.88788H72.6411V83.58c1.95248-.13865,2.13668-.27161,2.13668-2.20125v-9.126c0-1.95244-.1842-2.0417-1.9315-2.17843v-.63818Z"/>
  <path class="cls-7" d="M96.75464,76.33916c0,4.26767,2.33606,7.37868,5.54015,7.37868,2.53927,0,4.78607-2.11579,4.78607-6.47081,0-4.78616-2.49754-7.335-5.49644-7.335-2.51459,0-4.82978,2.15946-4.82978,6.4271m12.64154.29439c0,4.90391-3.43014,7.89907-7.57818,7.89907a7.3206,7.3206,0,0,1-7.37856-7.55719,7.5654,7.5654,0,0,1,7.64831-7.87627,7.29936,7.29936,0,0,1,7.30843,7.53439"/>
</svg>