<svg width="150" height="150" viewBox="0 0 150 150" fill="none" xmlns="http://www.w3.org/2000/svg">
<g clip-path="url(#clip0_3122_535)">
<path d="M40.2959 79.0516H44.4093V83H32.6324V66H44.2914V69.9484H40.2828V72.6629H43.9377V76.2411H40.2828V79.0516H40.2959ZM22.2703 83H30.0386V66H22.2703V83ZM16.6504 66H9V83H20.1874V78.4484H16.6504V66ZM94.6871 76.2274H98.342V72.6492H94.6871V69.9484H98.6957V66H87.0367V83H98.8136V79.0516H94.6871V76.2274ZM64.4654 78.4347C64.4654 80.6556 63.2209 82.1089 61.0987 82.6435C60.1686 82.8766 58.6621 83 57.2997 83H46.7542V66H57.2342C58.5704 66 60.0376 66.1234 60.9546 66.3565C63.0244 66.8911 64.2427 68.3444 64.2427 70.5653C64.2427 72.6081 63.0899 74.0065 61.6227 74.4589C63.1947 74.829 64.4654 76.2823 64.4654 78.4347ZM54.1557 72.896H55.2168C56.6316 72.896 57.1032 72.1556 57.1032 71.1137C57.1032 70.0718 56.6316 69.3315 55.2168 69.3315H54.1557V72.896ZM57.339 77.8315C57.339 76.721 56.8543 75.9806 55.3347 75.9806H54.1557V79.6823H55.3347C56.8674 79.6685 57.339 78.9282 57.339 77.8315ZM76.727 72.279H74.1332V66H66.4828V83H74.1332V76.4742H76.727V83H84.3774V66H76.727V72.279ZM135.795 75.9121C137.799 74.9524 138.69 73.3621 138.69 71.196C138.69 68.6734 137.249 67.0282 134.839 66.4113C133.777 66.1508 132.061 66 130.516 66H121.097V83H128.393V77.5847H129.048L131.812 83H140L135.795 75.9121ZM129.454 74.0065H128.393V69.9484H129.454C130.869 69.9484 131.341 70.6887 131.341 71.9774C131.341 73.2661 130.869 74.0065 129.454 74.0065ZM115.817 75.9121C117.822 74.9524 118.712 73.3621 118.712 71.196C118.712 68.6734 117.271 67.0282 114.861 66.4113C113.8 66.1508 112.084 66 110.538 66H101.119V83H108.416V77.5847H109.071L111.835 83H120.022L115.817 75.9121ZM109.464 74.0065H108.403V69.9484H109.464C110.879 69.9484 111.35 70.6887 111.35 71.9774C111.35 73.2661 110.879 74.0065 109.464 74.0065Z" fill="black"/>
</g>
<defs>
<clipPath id="clip0_3122_535">
<rect width="131" height="17" fill="white" transform="translate(9 66)"/>
</clipPath>
</defs>
</svg>
