<svg xmlns:xlink="http://www.w3.org/1999/xlink" xmlns="http://www.w3.org/2000/svg" id="Layer_1" data-name="Layer 1" width="150" height="150" viewBox="0 0 150 150">
  <defs>
    <style>.cls-1{fill:#8e1913;}</style>
  </defs>
  <polygon class="cls-1" points="37.752 56.123 38.754 58.725 40.408 56.378 43.421 56.27 41.533 54.136 42.402 51.469 39.576 52.496 37.093 50.956 37.242 53.723 34.843 55.442 37.752 56.123"/>
  <polygon class="cls-1" points="50.72 55.549 53.639 56.231 54.634 58.832 56.292 56.491 59.309 56.378 57.414 54.251 58.287 51.586 55.462 52.611 52.974 51.067 53.125 53.835 50.72 55.549"/>
  <polygon class="cls-1" points="44.253 55.497 46.939 54.225 49.622 55.515 49.124 52.797 51.461 50.627 48.307 50.471 46.975 47.99 45.628 50.46 42.69 50.674 44.778 52.775 44.253 55.497"/>
  <polygon class="cls-1" points="35.776 84.805 27.65 62.18 20.482 62.054 30.792 91.298 40.307 91.338 38.123 84.836 35.776 84.805"/>
  <polygon class="cls-1" points="54.747 61.958 46.885 81.479 39.584 62.052 32.302 62.153 46.72 102.01 61.85 62.076 54.747 61.958"/>
  <polygon class="cls-1" points="66.088 62.362 57.47 84.808 55.023 84.914 52.861 91.456 62.582 91.465 70.873 68.834 73.253 68.891 75.288 62.398 66.088 62.362"/>
  <polygon class="cls-1" points="76.797 62.392 77.989 62.392 77.989 68.894 79.951 68.894 79.951 69.978 76.797 69.978 76.797 62.392"/>
  <path class="cls-1" d="M87.68928,69.97812H86.48643l-.20594-1.37628h-1.463l-.20587,1.37628H83.51679l1.21391-7.58591h1.74468Zm-2.72011-2.40587h1.14862L85.54328,63.736Z"/>
  <polygon class="cls-1" points="91.255 62.392 94.94 62.392 94.94 63.476 93.694 63.476 93.694 69.978 92.501 69.978 92.501 63.476 91.255 63.476 91.255 62.392"/>
  <polygon class="cls-1" points="100.619 68.58 101.53 62.392 102.624 62.392 101.454 69.978 99.676 69.978 98.506 62.392 99.709 62.392 100.619 68.58"/>
  <rect class="cls-1" x="106.53658" y="62.39219" width="1.1922" height="7.5859"/>
  <path class="cls-1" d="M111.63079,68.89437c.13008.011.28172.011.41182.011.37921,0,.68257-.14106.68257-.72615v-5.787h1.19227v5.70032c0,1.51718-.81306,1.90721-1.71255,1.90721a4.90591,4.90591,0,0,1-.57411-.02163Z"/>
  <path class="cls-1" d="M121.948,69.97812H120.745l-.20587-1.37628h-1.463l-.20587,1.37628h-1.09479l1.21383-7.58591h1.74476Zm-2.72011-2.40587h1.14862L119.802,63.736Z"/>
  <path class="cls-1" d="M127.465,62.30541c1.15959,0,1.75541.69355,1.75541,1.90745v.23832h-1.12707V64.137c0-.54191-.21652-.74786-.59606-.74786-.37922,0-.59582.206-.59582.74786,0,1.56043,2.32992,1.853,2.32992,4.02052,0,1.21367-.60679,1.90745-1.77736,1.90745-1.17025,0-1.77736-.69378-1.77736-1.90745v-.466h1.127v.54191c0,.54191.23855.7368.61777.7368.37954,0,.61769-.19489.61769-.7368,0-1.56059-2.32985-1.85322-2.32985-4.02053,0-1.2139.59614-1.90745,1.75574-1.90745"/>
  <polygon class="cls-1" points="78.602 79.062 79.512 72.874 80.607 72.874 79.436 80.46 77.659 80.46 76.488 72.874 77.692 72.874 78.602 79.062"/>
  <rect class="cls-1" x="81.15946" y="72.87356" width="1.1922" height="7.58606"/>
  <polygon class="cls-1" points="84.411 76.071 86.047 76.071 86.047 77.154 84.411 77.154 84.411 79.376 86.47 79.376 86.47 80.46 83.219 80.46 83.219 72.874 86.47 72.874 86.47 73.957 84.411 73.957 84.411 76.071"/>
  <path class="cls-1" d="M88.99542,76.23336h1.66889v2.4057c0,1.21382-.60712,1.90745-1.77736,1.90745-1.17057,0-1.77736-.69363-1.77736-1.90745V74.69415c0-1.2135.60679-1.907,1.77736-1.907,1.17024,0,1.77736.69355,1.77736,1.907v.7372h-1.1274v-.813c0-.54191-.23814-.74785-.61768-.74785-.37921,0-.61737.20594-.61737.74785v4.09655c0,.54191.23816.7368.61737.7368.37954,0,.61768-.19489.61768-.7368V77.31677h-.54149Z"/>
  <polygon class="cls-1" points="91.434 72.874 92.626 72.874 92.626 79.376 94.588 79.376 94.588 80.46 91.434 80.46 91.434 72.874"/>
  <path class="cls-1" d="M98.966,80.45965H97.763l-.20586-1.37611h-1.463l-.20587,1.37611H94.79347l1.21383-7.58606h1.74476Zm-2.7201-2.4057h1.14861L96.82,74.2175Z"/>
  <polygon class="cls-1" points="99.173 72.874 102.857 72.874 102.857 73.957 101.611 73.957 101.611 80.46 100.419 80.46 100.419 73.957 99.173 73.957 99.173 72.874"/>
  <polygon class="cls-1" points="103.377 72.874 104.569 72.874 104.569 79.376 106.531 79.376 106.531 80.46 103.377 80.46 103.377 72.874"/>
  <path class="cls-1" d="M108.24353,76.07069h1.63638v1.08373h-1.63638v2.22146h2.05917V80.4597h-3.25136V72.87356h3.25136v1.08381h-2.05917Zm1.65792-3.64115h-2.49253v-.84527h2.49253Z"/>
  <polygon class="cls-1" points="110.693 72.874 114.377 72.874 114.377 73.957 113.131 73.957 113.131 80.46 111.939 80.46 111.939 73.957 110.693 73.957 110.693 72.874"/>
  <rect class="cls-1" x="114.89789" y="72.87356" width="1.1922" height="7.58606"/>
  <polygon class="cls-1" points="118.517 77.436 118.149 78.13 118.149 80.46 116.957 80.46 116.957 72.874 118.149 72.874 118.149 76.179 119.71 72.874 120.902 72.874 119.244 76.255 120.902 80.46 119.677 80.46 118.517 77.436"/>
  <path class="cls-1" d="M125.30189,80.45965H124.099l-.20587-1.37611h-1.463l-.20587,1.37611h-1.09479l1.21383-7.58606H124.088Zm-2.7201-2.4057h1.14862l-.57451-3.83645Z"/>
  <path class="cls-1" d="M127.45877,72.78711c1.15959,0,1.75541.69355,1.75541,1.907v.23855h-1.12707V74.6183c0-.54183-.21652-.74777-.59606-.74777-.37922,0-.59582.20594-.59582.74777,0,1.56084,2.32992,1.85322,2.32992,4.02077,0,1.21382-.60679,1.90745-1.77736,1.90745-1.17025,0-1.77736-.69363-1.77736-1.90745V78.173h1.127v.54191c0,.54191.23855.7368.61777.7368.37954,0,.61769-.19489.61769-.7368,0-1.56044-2.32985-1.85322-2.32985-4.02077,0-1.2135.59614-1.907,1.75574-1.907"/>
  <path class="cls-1" d="M78.24415,83.26862c1.15959,0,1.7554.69355,1.7554,1.907v.23855H78.87249v-.31433c0-.54191-.21653-.74785-.59606-.74785-.37922,0-.59582.20594-.59582.74785,0,1.56076,2.32992,1.85314,2.32992,4.02069,0,1.21382-.60679,1.90745-1.77736,1.90745-1.17025,0-1.77736-.69363-1.77736-1.90745v-.46605h1.127v.54191c0,.5419.23855.7368.61777.7368.37953,0,.61769-.1949.61769-.7368,0-1.56044-2.32985-1.85322-2.32985-4.02077,0-1.2135.59614-1.907,1.75574-1.907"/>
  <path class="cls-1" d="M86.9686,90.94117H85.76567l-.20586-1.37611h-1.463l-.20588,1.37611H82.79611l1.21383-7.58606H85.7547Zm-2.7201-2.4057h1.14862L84.82261,84.699Z"/>
  <polygon class="cls-1" points="91.466 89.543 92.377 83.355 93.471 83.355 92.301 90.941 90.524 90.941 89.353 83.355 90.556 83.355 91.466 89.543"/>
  <rect class="cls-1" x="96.44117" y="83.35508" width="1.1922" height="7.58606"/>
  <polygon class="cls-1" points="102.109 86.552 103.746 86.552 103.746 87.636 102.109 87.636 102.109 89.857 104.169 89.857 104.169 90.941 100.917 90.941 100.917 83.355 104.169 83.355 104.169 84.439 102.109 84.439 102.109 86.552"/>
  <polygon class="cls-1" points="108.385 85.447 108.385 90.941 107.312 90.941 107.312 83.355 108.807 83.355 110.032 87.896 110.032 83.355 111.094 83.355 111.094 90.941 109.869 90.941 108.385 85.447"/>
  <path class="cls-1" d="M116.20921,82.91106h-2.49253v-.84527h2.49253Zm-1.84225.444h1.1922v7.58606H114.367Z"/>
  <path class="cls-1" d="M122.40846,85.09989V85.371a1.48931,1.48931,0,0,1-.76941,1.52783,1.53438,1.53438,0,0,1,.88884,1.62572v.61769a1.61267,1.61267,0,0,1-1.81,1.799h-1.87477V83.35514h1.79891c1.23553,0,1.76639.57442,1.76639,1.74475m-2.3731-.661v2.00486h.46605c.44409,0,.71517-.1949.71517-.802v-.42247c0-.54183-.18424-.78038-.60711-.78038Zm0,3.08867v2.32984h.68257c.40124,0,.61776-.18424.61776-.74778v-.66094c0-.7046-.22757-.92112-.7694-.92112Z"/>
  <path class="cls-1" d="M129.51825,90.94117h-1.20293l-.20587-1.37611h-1.463l-.20587,1.37611h-1.09479l1.21383-7.58606h1.74476Zm-2.72011-2.4057h1.14862l-.57451-3.83644Z"/>
</svg>