<svg xmlns="http://www.w3.org/2000/svg" xmlns:xlink="http://www.w3.org/1999/xlink" id="Layer_1" data-name="Layer 1" width="150" height="150" viewBox="0 0 150 150">
  <defs>
    <style>.cls-1{fill:none;}.cls-2{clip-path:url(#clip-path);}.cls-3{fill:#e6332a;}.cls-4{fill:#d81117;}.cls-5{fill:#252a5f;}.cls-6{fill:#967745;}</style>
    <clipPath id="clip-path">
      <rect class="cls-1" x="-447.50302" y="-868.98151" width="946.77102" height="366.48599"/>
    </clipPath>
  </defs>
  <g class="cls-2">
    <rect class="cls-3" x="-499.81958" y="-261.65322" width="1868.3578" height="60.14297" transform="translate(290.97408 239.30976) rotate(-45.00002)"/>
    <rect class="cls-4" x="-541.47425" y="-303.30782" width="1868.35781" height="60.14297" transform="translate(308.22796 197.65508) rotate(-45.00002)"/>
  </g>
  <polygon class="cls-5" points="38.587 72.923 32.453 85.759 25.81 72.923 24.834 72.923 21.438 91.04 24.623 91.04 26.068 80.535 31.72 91.04 32.785 91.04 37.821 80.476 40.012 91.04 43.277 91.04 39.563 72.923 38.587 72.923"/>
  <polygon class="cls-5" points="74.511 85.406 63.144 72.937 63.143 72.924 61.727 72.924 61.184 91.04 64.133 91.04 63.841 78.593 75.243 91.033 75.245 91.04 76.624 91.04 77.008 72.924 74.07 72.924 74.511 85.406"/>
  <path class="cls-5" d="M51.65507,72.92292,43.5959,91.03948h2.99045l2.11832-5.14356h6.38472l2.01389,5.14356H60.6907L52.64024,72.92292ZM49.71778,83.43635l2.25931-5.48646.01041.02263,2.13925,5.46383Z"/>
  <path class="cls-5" d="M91.70009,88.63856a7.91217,7.91217,0,0,1-2.80771.48568c-4.39686,0-6.71194-2.85813-6.71194-6.8407,0-4.376,2.1776-7.13318,5.4413-7.13318,3.2654,0,3.09829,1.99476,5.18877,1.99476,1.30548,0,1.69719-.78325,1.71982-1.349.02082-.56568-1.3943-2.89468-6.5309-2.89468-5.83291,0-9.18532,4.52743-9.18532,9.50388,0,6.57441,4.5883,9.215,9.51254,9.215a20.23344,20.23344,0,0,0,6.39863-1.154V82.19647H91.65653Z"/>
  <polygon class="cls-5" points="116.666 73.163 113.829 73.163 113.873 91.041 123.841 91.041 124.409 88.486 116.666 88.759 116.666 73.163"/>
  <path class="cls-5" d="M128.55068,73.16271h-2.83725l.04345,17.87815h2.7938c.026-.02613,0-17.87815,0-17.87815"/>
  <path class="cls-5" d="M117.99784,94.00964s.308-.00345.6214-.00345c.63011,0,1.95121-.21238,2.27152-.82682.22629-.4334.66836-1.35073.66836-1.35073h-2.376Z"/>
  <path class="cls-5" d="M103.28484,72.92292,95.22567,91.03948h2.99045l2.11833-5.14356h6.38472l2.01389,5.14356h3.58741L104.27,72.92292Zm-1.93729,10.51343,2.25931-5.48646.01041.02263,2.13925,5.46383Z"/>
  <path class="cls-6" d="M92.3932,63.59859a7.81245,7.81245,0,0,1,2.84586.39516l.01572-.13232c-.40562-.21232-.81635-.41423-1.26372-.61789-.02433-.00521-.04877-.00521-.0731-.00872a22.59517,22.59517,0,0,0-10.463-2.24018,48.57234,48.57234,0,0,0-9.29336,1.3977A46.20986,46.20986,0,0,1,65.321,63.73612a19.64984,19.64984,0,0,1-7.24452-1.15228l-.02093.033c.08712.07484.17934.14624.26805.21933l-.00691.00351c.0714.06093.148.11139.21928.17057.01222.00871.02263.01912.03485.02783l.00351.00175a19.16077,19.16077,0,0,0,13.17134,4.5048,53.0465,53.0465,0,0,0,12.22974-2.2124,40.44829,40.44829,0,0,1,8.41783-1.73368"/>
  <path class="cls-6" d="M60.92145,60.76325c8.94861,2.56921,18.17218-4.53433,29.04778-.872-.27506-.18278-.5431-.35511-.81465-.52047-.033-.01046-.06619-.01567-.10093-.02608-13.3629-8.49258-19.64488,1.88507-28.4386,1.34373.12186.03484.24372.04876.36558.0801l-.05918-.00526"/>
  <path class="cls-6" d="M98.63184,67.40311c-.01923-.00346-.03665-.00346-.05577-.007-9.6327-4.46124-13.30192,1.16976-21.7545,1.34728.20537.08526.40382.16016.604.235-.01392,0-.02614.0017-.03825.0017,10.31848,4.289,13.86595-2.99391,22.37419-1.05481-.3865-.1915-.76068-.36207-1.12965-.52222"/>
  <rect class="cls-1" x="-1714.31904" y="-524.09147" width="2000" height="1000"/>
</svg>