<svg xmlns="http://www.w3.org/2000/svg" xmlns:xlink="http://www.w3.org/1999/xlink" id="Layer_1" data-name="Layer 1" width="150" height="150" viewBox="0 0 150 150">
  <defs>
    <style>.cls-1{fill:none;}.cls-2{clip-path:url(#clip-path);}.cls-3{fill:#e6332a;}.cls-4{fill:#d81117;}.cls-5{fill:#ffcf21;}.cls-6{fill:#003160;}</style>
    <clipPath id="clip-path">
      <rect class="cls-1" x="-617.50302" y="-868.98151" width="946.77102" height="366.48599"/>
    </clipPath>
  </defs>
  <g class="cls-2">
    <rect class="cls-3" x="-669.81958" y="-261.65322" width="1868.3578" height="60.14297" transform="translate(241.18219 119.10156) rotate(-45.00002)"/>
    <rect class="cls-4" x="-711.47425" y="-303.30782" width="1868.35781" height="60.14297" transform="translate(258.43607 77.44689) rotate(-45.00002)"/>
  </g>
  <path class="cls-5" d="M71.09588,54.73486C56.88456,55.86061,46.59042,62.05367,46.59042,76.1821s14.73881,20.13436,23.941,18.93349a29.32114,29.32114,0,0,1-7.96448-21.22791c.51532-12.61925,8.52895-19.15282,8.52895-19.15282"/>
  <path class="cls-6" d="M24.174,83.52543a.46037.46037,0,0,0-.0307.17027,3.03731,3.03731,0,0,0,.12422.70549H21.43775a2.60587,2.60587,0,0,0,.31135-.90487l2.79751-17.07006c.03061-.22546.06291-.39569.06291-.4233a1.64014,1.64014,0,0,0-.06291-.45242h4.6011a2.21311,2.21311,0,0,0,.12421.819l4.72681,12.77568L38.787,66.34192a2.71364,2.71364,0,0,0,.15492-.62115.46451.46451,0,0,0-.0307-.17023h4.53828a2.29492,2.29492,0,0,0-.0307.39569,1.6,1.6,0,0,0,.0307.39569l2.61189,17.18351a2.10108,2.10108,0,0,0,.31135.87576H40.83756a2.287,2.287,0,0,0,.0322-.4233,1.64177,1.64177,0,0,0-.0322-.4233L39.221,71.7114l-4.414,11.814a2.64487,2.64487,0,0,0-.15642.67792.69661.69661,0,0,0,.03061.19784H30.4851v-.19784a1.96723,1.96723,0,0,0-.15492-.62115L25.97753,71.88163Z"/>
  <path class="cls-6" d="M68.18547,83.46884a2.1021,2.1021,0,0,0,.15642.93249H65.6978a2.54225,2.54225,0,0,0,.15483-.93249V66.48317a2.28232,2.28232,0,0,0-.15483-.93249h4.60109a1.77067,1.77067,0,0,0,.46617.79138l10.07341,12.492V66.48317a2.28217,2.28217,0,0,0-.15493-.93249h2.64251a1.6633,1.6633,0,0,0-.15483.93249V83.498a1.70885,1.70885,0,0,0,.18553.90333H78.84917a2.36657,2.36657,0,0,0-.55978-.819L68.18547,71.06124Z"/>
  <path class="cls-6" d="M98.01112,65.55082v2.14872a3.19608,3.19608,0,0,0-1.02605-.14107H91.38853V73.888h5.50293a3.09422,3.09422,0,0,0,1.11966-.11346v2.17628a2.99442,2.99442,0,0,0-1.08746-.1135H91.38853v6.41548h5.41091a3.95894,3.95894,0,0,0,1.21168-.13957v2.28828H86.04053a2.2015,2.2015,0,0,0,.15652-.90333V66.48331a2.25624,2.25624,0,0,0-.15652-.93249Z"/>
  <path class="cls-6" d="M100.72589,80.22612c2.30354,1.727,3.33118,2.15025,5.10565,2.15025,1.99229,0,3.33118-1.04749,3.33118-2.60267a2.18855,2.18855,0,0,0-1.18247-2.01068,25.85728,25.85728,0,0,0-3.052-1.35734c-3.48611-1.35883-4.91861-2.97229-4.91861-5.43389a5.41964,5.41964,0,0,1,2.615-4.55658,9.45722,9.45722,0,0,1,4.95072-1.18865,12.86308,12.86308,0,0,1,5.38489,1.10426l-.77762,2.77295a8.23126,8.23126,0,0,0-4.60727-1.727,2.47375,2.47375,0,0,0-2.7391,2.23614c0,1.30211.59039,1.75457,4.20231,3.1134a8.603,8.603,0,0,1,3.92168,2.434,5.27336,5.27336,0,0,1,1.05975,3.2269,6.093,6.093,0,0,1-2.55357,4.97989,9.315,9.315,0,0,1-5.29128,1.35888,13.45882,13.45882,0,0,1-6.32041-1.49995Z"/>
  <path class="cls-6" d="M115.26821,80.22612c2.30354,1.727,3.33119,2.15025,5.10565,2.15025,1.99229,0,3.33118-1.04749,3.33118-2.60267a2.18855,2.18855,0,0,0-1.18247-2.01068,25.85762,25.85762,0,0,0-3.052-1.35734c-3.48611-1.35883-4.91862-2.97229-4.91862-5.43389a5.41964,5.41964,0,0,1,2.615-4.55658,9.45722,9.45722,0,0,1,4.95072-1.18865,12.86969,12.86969,0,0,1,5.38639,1.10426l-.77912,2.77295a8.23124,8.23124,0,0,0-4.60727-1.727,2.47375,2.47375,0,0,0-2.7391,2.23614c0,1.30211.59039,1.75457,4.20231,3.1134a8.61794,8.61794,0,0,1,3.92318,2.434,5.28167,5.28167,0,0,1,1.05825,3.2269,6.093,6.093,0,0,1-2.55357,4.97989,9.317,9.317,0,0,1-5.29287,1.35888,13.45709,13.45709,0,0,1-6.31882-1.49995Z"/>
  <path class="cls-6" d="M62.70173,65.55082v2.14872a3.20209,3.20209,0,0,0-1.026-.14107H56.07914V73.888h5.50293a3.09873,3.09873,0,0,0,1.11966-.11346v2.17628a2.99442,2.99442,0,0,0-1.08746-.1135H56.07914v6.41548h5.40941a3.96324,3.96324,0,0,0,1.21318-.13957v2.28828H50.73114a2.228,2.228,0,0,0,.15652-.90333V66.48331a2.28245,2.28245,0,0,0-.15652-.93249Z"/>
  <rect class="cls-6" x="53.27666" y="61.76704" width="9.4246" height="2.17478"/>
  <path class="cls-6" d="M74.77969,94.85269a1.2308,1.2308,0,0,0-.07367.30521l.01535.10583H73.39165a1.1768,1.1768,0,0,0,.23468-.411L76.752,86.79006a1.06831,1.06831,0,0,0,.08893-.30521l-.01535-.0813h2.07513a.60751.60751,0,0,0,.07358.36044l3.21464,8.0887a1.24983,1.24983,0,0,0,.2623.411H79.65993v-.092a1.07263,1.07263,0,0,0-.07208-.319L78.798,92.74081H75.59868Zm3.6533-3.095-1.227-3.30816-1.22843,3.30816Zm7.44148,3.06894a1.17772,1.17772,0,0,0,.10269.43711H83.36068a1.1896,1.1896,0,0,0,.07367-.43711V86.84374a1.08482,1.08482,0,0,0-.07367-.44019h3.74073c2.1196,0,3.27287.91718,3.27287,2.60421,0,1.753-1.299,2.73616-3.63785,2.73616h-.862Zm.4233-4.0781c.94929,0,1.46-.61192,1.46-1.75452,0-1.04908-.49688-1.6457-1.37419-1.6457h-.65639v3.40022Zm12.20358-4.345V87.56a2.34051,2.34051,0,0,0-.569-.066H96.01827v7.33262a.97225.97225,0,0,0,.07367.43711H93.50458a.99341.99341,0,0,0,.07367-.43711V87.494H91.70709a2.81138,2.81138,0,0,0-.62878.066v-1.1564Zm4.0766,0a.95539.95539,0,0,0-.07367.44019v7.98288a.94172.94172,0,0,0,.07367.43711H99.99059a1.1493,1.1493,0,0,0,.07357-.43711V86.84374a1.12619,1.12619,0,0,0-.07357-.44019Zm7.17,0v1.01074a1.491,1.491,0,0,0-.48162-.066h-2.63024v2.97538h2.58577A1.44619,1.44619,0,0,0,109.748,90.27v1.023a1.39823,1.39823,0,0,0-.51074-.05368h-2.60112v3.01525h2.5429a1.81852,1.81852,0,0,0,.569-.066v1.07511h-5.62556a1.04409,1.04409,0,0,0,.07358-.42485V86.84374a1.08633,1.08633,0,0,0-.07358-.44019Zm3.86644,8.42307a1.03272,1.03272,0,0,0,.07208.43711h-2.58577a1.15124,1.15124,0,0,0,.07357-.43711V86.84374a1.0865,1.0865,0,0,0-.07357-.44019h2.58577a1.04731,1.04731,0,0,0-.07208.44019v3.506l2.68856-3.5735a1.16463,1.16463,0,0,0,.19021-.3727h1.81125a1.47451,1.47451,0,0,0-.38033.3727l-2.52755,3.33428,3.18553,4.756c.20547.2776.20547.29141.35122.39724H115.981a1.01274,1.01274,0,0,0-.13189-.385l-2.23465-3.54588Zm7.27589.02607a1.21071,1.21071,0,0,0-.07208.30521l.01376.10583h-1.32972a1.17836,1.17836,0,0,0,.23468-.411l3.12571-8.06263a1.06831,1.06831,0,0,0,.08893-.30521l-.01535-.0813h2.07513a.60751.60751,0,0,0,.07358.36044l3.21464,8.0887a1.226,1.226,0,0,0,.2623.411h-2.79134v-.092a1.07263,1.07263,0,0,0-.07208-.319l-.78988-2.11188h-3.19929Zm3.6533-3.095-1.227-3.30816-1.22843,3.30816Z"/>
  <rect class="cls-1" x="-1884.31904" y="-524.09147" width="2000" height="1000"/>
</svg>