<svg xmlns:xlink="http://www.w3.org/1999/xlink" xmlns="http://www.w3.org/2000/svg" id="Layer_1" viewBox="0 0 150 150" width="200"  height="200" >
  <defs>
    <style>.cls-1{fill:none;}.cls-2{fill:#1d1d1b;}</style>
  </defs>
  <rect class="cls-1" width="150" height="150"/>
  <g>
    <g>
      <ellipse class="cls-2" cx="16.77" cy="70.52" rx=".81" ry=".8"/>
      <ellipse class="cls-2" cx="17.2" cy="68.38" rx=".81" ry=".8"/>
      <ellipse class="cls-2" cx="17.64" cy="66.23" rx=".81" ry=".8"/>
      <ellipse class="cls-2" cx="18.08" cy="64.09" rx=".81" ry=".8"/>
      <ellipse class="cls-2" cx="18.53" cy="61.95" rx=".81" ry=".8"/>
      <ellipse class="cls-2" cx="18.96" cy="59.8" rx=".81" ry=".8"/>
      <ellipse class="cls-2" cx="19.4" cy="57.66" rx=".81" ry=".8"/>
      <ellipse class="cls-2" cx="19.85" cy="55.51" rx=".81" ry=".8"/>
      <ellipse class="cls-2" cx="20.28" cy="53.37" rx=".81" ry=".8"/>
      <ellipse class="cls-2" cx="20.72" cy="51.23" rx=".81" ry=".8"/>
      <ellipse class="cls-2" cx="18.95" cy="70.52" rx=".81" ry=".8"/>
      <ellipse class="cls-2" cx="19.39" cy="68.38" rx=".81" ry=".8"/>
      <ellipse class="cls-2" cx="19.82" cy="66.23" rx=".81" ry=".8"/>
      <ellipse class="cls-2" cx="20.27" cy="64.09" rx=".81" ry=".8"/>
      <ellipse class="cls-2" cx="20.71" cy="61.95" rx=".81" ry=".8"/>
      <ellipse class="cls-2" cx="21.14" cy="59.8" rx=".81" ry=".8"/>
      <ellipse class="cls-2" cx="21.58" cy="57.66" rx=".81" ry=".8"/>
      <ellipse class="cls-2" cx="22.03" cy="55.51" rx=".81" ry=".8"/>
      <ellipse class="cls-2" cx="22.46" cy="53.37" rx=".81" ry=".8"/>
      <ellipse class="cls-2" cx="22.9" cy="51.23" rx=".81" ry=".8"/>
      <ellipse class="cls-2" cx="24.21" cy="55.51" rx=".81" ry=".8"/>
      <ellipse class="cls-2" cx="25.94" cy="54.42" rx=".81" ry=".8"/>
      <ellipse class="cls-2" cx="24.65" cy="52.57" rx=".81" ry=".8"/>
      <ellipse class="cls-2" cx="25.46" cy="57.38" rx=".81" ry=".8"/>
      <ellipse class="cls-2" cx="27.29" cy="56.27" rx=".81" ry=".8"/>
      <ellipse class="cls-2" cx="26.87" cy="59.26" rx=".81" ry=".8"/>
      <ellipse class="cls-2" cx="28.8" cy="57.79" rx=".81" ry=".8"/>
      <ellipse class="cls-2" cx="29.04" cy="54.48" rx=".81" ry=".8"/>
      <ellipse class="cls-2" cx="30.67" cy="56.06" rx=".81" ry=".8"/>
      <ellipse class="cls-2" cx="31.23" cy="52.82" rx=".81" ry=".8"/>
      <ellipse class="cls-2" cx="29.86" cy="70.52" rx=".81" ry=".8"/>
      <ellipse class="cls-2" cx="30.3" cy="68.38" rx=".81" ry=".8"/>
      <ellipse class="cls-2" cx="30.73" cy="66.23" rx=".81" ry=".8"/>
      <ellipse class="cls-2" cx="31.18" cy="64.09" rx=".81" ry=".8"/>
      <ellipse class="cls-2" cx="31.62" cy="61.95" rx=".81" ry=".8"/>
      <ellipse class="cls-2" cx="32.05" cy="59.8" rx=".81" ry=".8"/>
      <ellipse class="cls-2" cx="32.49" cy="57.66" rx=".81" ry=".8"/>
      <ellipse class="cls-2" cx="32.93" cy="55.51" rx=".81" ry=".8"/>
      <ellipse class="cls-2" cx="33.37" cy="53.37" rx=".81" ry=".8"/>
      <ellipse class="cls-2" cx="33.81" cy="51.23" rx=".81" ry=".8"/>
      <ellipse class="cls-2" cx="32.04" cy="70.52" rx=".81" ry=".8"/>
      <ellipse class="cls-2" cx="32.48" cy="68.38" rx=".81" ry=".8"/>
      <ellipse class="cls-2" cx="32.92" cy="66.23" rx=".81" ry=".8"/>
      <ellipse class="cls-2" cx="33.36" cy="64.09" rx=".81" ry=".8"/>
      <ellipse class="cls-2" cx="33.8" cy="61.95" rx=".81" ry=".8"/>
      <ellipse class="cls-2" cx="34.23" cy="59.8" rx=".81" ry=".8"/>
      <ellipse class="cls-2" cx="34.67" cy="57.66" rx=".81" ry=".8"/>
      <ellipse class="cls-2" cx="35.12" cy="55.51" rx=".81" ry=".8"/>
      <ellipse class="cls-2" cx="35.55" cy="53.37" rx=".81" ry=".8"/>
      <ellipse class="cls-2" cx="36" cy="51.23" rx=".81" ry=".8"/>
      <ellipse class="cls-2" cx="36.4" cy="70.52" rx=".81" ry=".8"/>
      <ellipse class="cls-2" cx="36.84" cy="68.38" rx=".81" ry=".8"/>
      <ellipse class="cls-2" cx="39.92" cy="53.37" rx=".81" ry=".8"/>
      <ellipse class="cls-2" cx="40.36" cy="51.23" rx=".81" ry=".8"/>
      <ellipse class="cls-2" cx="38.59" cy="70.52" rx=".81" ry=".8"/>
      <ellipse class="cls-2" cx="39.02" cy="68.38" rx=".81" ry=".8"/>
      <ellipse class="cls-2" cx="39.46" cy="66.23" rx=".81" ry=".8"/>
      <ellipse class="cls-2" cx="39.9" cy="64.09" rx=".81" ry=".8"/>
      <ellipse class="cls-2" cx="40.34" cy="61.95" rx=".81" ry=".8"/>
      <ellipse class="cls-2" cx="40.77" cy="59.8" rx=".81" ry=".8"/>
      <ellipse class="cls-2" cx="41.22" cy="57.66" rx=".81" ry=".8"/>
      <ellipse class="cls-2" cx="41.66" cy="55.51" rx=".81" ry=".8"/>
      <ellipse class="cls-2" cx="42.1" cy="53.37" rx=".81" ry=".8"/>
      <ellipse class="cls-2" cx="42.54" cy="51.23" rx=".81" ry=".8"/>
      <ellipse class="cls-2" cx="40.77" cy="70.52" rx=".81" ry=".8"/>
      <ellipse class="cls-2" cx="41.21" cy="68.38" rx=".81" ry=".8"/>
      <ellipse class="cls-2" cx="41.64" cy="66.23" rx=".81" ry=".8"/>
      <ellipse class="cls-2" cx="42.08" cy="64.09" rx=".81" ry=".8"/>
      <ellipse class="cls-2" cx="42.53" cy="61.95" rx=".81" ry=".8"/>
      <ellipse class="cls-2" cx="42.96" cy="59.8" rx=".81" ry=".8"/>
      <ellipse class="cls-2" cx="43.4" cy="57.66" rx=".81" ry=".8"/>
      <ellipse class="cls-2" cx="43.85" cy="55.51" rx=".81" ry=".8"/>
      <ellipse class="cls-2" cx="44.28" cy="53.37" rx=".81" ry=".8"/>
      <ellipse class="cls-2" cx="44.72" cy="51.23" rx=".81" ry=".8"/>
      <ellipse class="cls-2" cx="42.95" cy="70.52" rx=".81" ry=".8"/>
      <ellipse class="cls-2" cx="43.39" cy="68.38" rx=".81" ry=".8"/>
      <ellipse class="cls-2" cx="46.47" cy="53.37" rx=".81" ry=".8"/>
      <ellipse class="cls-2" cx="46.9" cy="51.23" rx=".81" ry=".8"/>
      <ellipse class="cls-2" cx="47.31" cy="70.52" rx=".81" ry=".8"/>
      <ellipse class="cls-2" cx="47.75" cy="68.38" rx=".81" ry=".8"/>
      <ellipse class="cls-2" cx="48.19" cy="66.23" rx=".81" ry=".8"/>
      <ellipse class="cls-2" cx="49.07" cy="61.95" rx=".81" ry=".8"/>
      <ellipse class="cls-2" cx="49.5" cy="59.8" rx=".81" ry=".8"/>
      <ellipse class="cls-2" cx="49.95" cy="57.66" rx=".81" ry=".8"/>
      <ellipse class="cls-2" cx="50.39" cy="55.51" rx=".81" ry=".8"/>
      <ellipse class="cls-2" cx="50.83" cy="53.37" rx=".81" ry=".8"/>
      <ellipse class="cls-2" cx="51.27" cy="51.23" rx=".81" ry=".8"/>
      <ellipse class="cls-2" cx="49.5" cy="70.52" rx=".81" ry=".8"/>
      <ellipse class="cls-2" cx="49.93" cy="68.38" rx=".81" ry=".8"/>
      <ellipse class="cls-2" cx="50.37" cy="66.23" rx=".81" ry=".8"/>
      <ellipse class="cls-2" cx="51.25" cy="61.95" rx=".81" ry=".8"/>
      <ellipse class="cls-2" cx="51.68" cy="59.8" rx=".81" ry=".8"/>
      <ellipse class="cls-2" cx="52.13" cy="57.66" rx=".81" ry=".8"/>
      <ellipse class="cls-2" cx="52.57" cy="55.51" rx=".81" ry=".8"/>
      <ellipse class="cls-2" cx="53.01" cy="53.37" rx=".81" ry=".8"/>
      <ellipse class="cls-2" cx="53.45" cy="51.23" rx=".81" ry=".8"/>
      <ellipse class="cls-2" cx="51.68" cy="70.52" rx=".81" ry=".8"/>
      <ellipse class="cls-2" cx="52.12" cy="68.38" rx=".81" ry=".8"/>
      <ellipse class="cls-2" cx="53.44" cy="61.95" rx=".81" ry=".8"/>
      <ellipse class="cls-2" cx="53.87" cy="59.8" rx=".81" ry=".8"/>
      <ellipse class="cls-2" cx="55.19" cy="53.37" rx=".81" ry=".8"/>
      <ellipse class="cls-2" cx="55.63" cy="51.23" rx=".81" ry=".8"/>
      <ellipse class="cls-2" cx="53.86" cy="70.52" rx=".81" ry=".8"/>
      <ellipse class="cls-2" cx="54.3" cy="68.38" rx=".81" ry=".8"/>
      <ellipse class="cls-2" cx="55.62" cy="61.95" rx=".81" ry=".8"/>
      <ellipse class="cls-2" cx="56.05" cy="59.8" rx=".81" ry=".8"/>
      <ellipse class="cls-2" cx="57.38" cy="53.37" rx=".81" ry=".8"/>
      <ellipse class="cls-2" cx="57.81" cy="51.23" rx=".81" ry=".8"/>
      <ellipse class="cls-2" cx="56.04" cy="70.52" rx=".81" ry=".8"/>
      <ellipse class="cls-2" cx="56.48" cy="68.38" rx=".81" ry=".8"/>
      <ellipse class="cls-2" cx="56.92" cy="66.23" rx=".81" ry=".8"/>
      <ellipse class="cls-2" cx="57.36" cy="64.09" rx=".81" ry=".8"/>
      <ellipse class="cls-2" cx="57.8" cy="61.95" rx=".81" ry=".8"/>
      <ellipse class="cls-2" cx="58.23" cy="59.8" rx=".81" ry=".8"/>
      <ellipse class="cls-2" cx="59.12" cy="55.51" rx=".81" ry=".8"/>
      <ellipse class="cls-2" cx="59.56" cy="53.37" rx=".81" ry=".8"/>
      <ellipse class="cls-2" cx="60" cy="51.23" rx=".81" ry=".8"/>
      <ellipse class="cls-2" cx="58.23" cy="70.52" rx=".81" ry=".8"/>
      <ellipse class="cls-2" cx="58.66" cy="68.38" rx=".81" ry=".8"/>
      <ellipse class="cls-2" cx="59.1" cy="66.23" rx=".81" ry=".8"/>
      <ellipse class="cls-2" cx="59.54" cy="64.09" rx=".81" ry=".8"/>
      <ellipse class="cls-2" cx="59.98" cy="61.95" rx=".81" ry=".8"/>
      <ellipse class="cls-2" cx="60.41" cy="59.8" rx=".81" ry=".8"/>
      <ellipse class="cls-2" cx="61.3" cy="55.51" rx=".81" ry=".8"/>
      <ellipse class="cls-2" cx="61.74" cy="53.37" rx=".81" ry=".8"/>
      <ellipse class="cls-2" cx="62.18" cy="51.23" rx=".81" ry=".8"/>
      <ellipse class="cls-2" cx="62.59" cy="70.52" rx=".81" ry=".8"/>
      <ellipse class="cls-2" cx="63.02" cy="68.38" rx=".81" ry=".8"/>
      <ellipse class="cls-2" cx="63.46" cy="66.23" rx=".81" ry=".8"/>
      <ellipse class="cls-2" cx="64.35" cy="61.95" rx=".81" ry=".8"/>
      <ellipse class="cls-2" cx="64.78" cy="59.8" rx=".81" ry=".8"/>
      <ellipse class="cls-2" cx="65.22" cy="57.66" rx=".81" ry=".8"/>
      <ellipse class="cls-2" cx="65.66" cy="55.51" rx=".81" ry=".8"/>
      <ellipse class="cls-2" cx="66.1" cy="53.37" rx=".81" ry=".8"/>
      <ellipse class="cls-2" cx="66.54" cy="51.23" rx=".81" ry=".8"/>
      <ellipse class="cls-2" cx="64.77" cy="70.52" rx=".81" ry=".8"/>
      <ellipse class="cls-2" cx="65.21" cy="68.38" rx=".81" ry=".8"/>
      <ellipse class="cls-2" cx="65.64" cy="66.23" rx=".81" ry=".8"/>
      <ellipse class="cls-2" cx="66.53" cy="61.95" rx=".81" ry=".8"/>
      <ellipse class="cls-2" cx="66.96" cy="59.8" rx=".81" ry=".8"/>
      <ellipse class="cls-2" cx="67.4" cy="57.66" rx=".81" ry=".8"/>
      <ellipse class="cls-2" cx="67.85" cy="55.51" rx=".81" ry=".8"/>
      <ellipse class="cls-2" cx="68.28" cy="53.37" rx=".81" ry=".8"/>
      <ellipse class="cls-2" cx="68.73" cy="51.23" rx=".81" ry=".8"/>
      <ellipse class="cls-2" cx="66.95" cy="70.52" rx=".81" ry=".8"/>
      <ellipse class="cls-2" cx="67.39" cy="68.38" rx=".81" ry=".8"/>
      <ellipse class="cls-2" cx="68.71" cy="61.95" rx=".81" ry=".8"/>
      <ellipse class="cls-2" cx="69.14" cy="59.8" rx=".81" ry=".8"/>
      <ellipse class="cls-2" cx="70.46" cy="53.37" rx=".81" ry=".8"/>
      <ellipse class="cls-2" cx="70.91" cy="51.23" rx=".81" ry=".8"/>
      <ellipse class="cls-2" cx="69.13" cy="70.52" rx=".81" ry=".8"/>
      <ellipse class="cls-2" cx="69.57" cy="68.38" rx=".81" ry=".8"/>
      <ellipse class="cls-2" cx="70.89" cy="61.95" rx=".81" ry=".8"/>
      <ellipse class="cls-2" cx="71.32" cy="59.8" rx=".81" ry=".8"/>
      <ellipse class="cls-2" cx="72.65" cy="53.37" rx=".81" ry=".8"/>
      <ellipse class="cls-2" cx="73.09" cy="51.23" rx=".81" ry=".8"/>
      <ellipse class="cls-2" cx="71.32" cy="70.52" rx=".81" ry=".8"/>
      <ellipse class="cls-2" cx="71.75" cy="68.38" rx=".81" ry=".8"/>
      <ellipse class="cls-2" cx="72.19" cy="66.23" rx=".81" ry=".8"/>
      <ellipse class="cls-2" cx="72.63" cy="64.09" rx=".81" ry=".8"/>
      <ellipse class="cls-2" cx="73.07" cy="61.95" rx=".81" ry=".8"/>
      <ellipse class="cls-2" cx="73.51" cy="59.8" rx=".81" ry=".8"/>
      <ellipse class="cls-2" cx="74.39" cy="55.51" rx=".81" ry=".8"/>
      <ellipse class="cls-2" cx="74.83" cy="53.37" rx=".81" ry=".8"/>
      <ellipse class="cls-2" cx="75.27" cy="51.23" rx=".81" ry=".8"/>
      <ellipse class="cls-2" cx="73.5" cy="70.52" rx=".81" ry=".8"/>
      <ellipse class="cls-2" cx="73.93" cy="68.38" rx=".81" ry=".8"/>
      <ellipse class="cls-2" cx="74.37" cy="66.23" rx=".81" ry=".8"/>
      <ellipse class="cls-2" cx="74.81" cy="64.09" rx=".81" ry=".8"/>
      <ellipse class="cls-2" cx="75.26" cy="61.95" rx=".81" ry=".8"/>
      <ellipse class="cls-2" cx="75.69" cy="59.8" rx=".81" ry=".8"/>
      <ellipse class="cls-2" cx="76.57" cy="55.51" rx=".81" ry=".8"/>
      <ellipse class="cls-2" cx="77.01" cy="53.37" rx=".81" ry=".8"/>
      <ellipse class="cls-2" cx="77.45" cy="51.23" rx=".81" ry=".8"/>
      <ellipse class="cls-2" cx="77.86" cy="70.52" rx=".81" ry=".8"/>
      <ellipse class="cls-2" cx="78.3" cy="68.38" rx=".81" ry=".8"/>
      <ellipse class="cls-2" cx="81.38" cy="53.37" rx=".81" ry=".8"/>
      <ellipse class="cls-2" cx="81.81" cy="51.23" rx=".81" ry=".8"/>
      <ellipse class="cls-2" cx="80.04" cy="70.52" rx=".81" ry=".8"/>
      <ellipse class="cls-2" cx="80.48" cy="68.38" rx=".81" ry=".8"/>
      <ellipse class="cls-2" cx="80.91" cy="66.23" rx=".81" ry=".8"/>
      <ellipse class="cls-2" cx="81.36" cy="64.09" rx=".81" ry=".8"/>
      <ellipse class="cls-2" cx="81.8" cy="61.95" rx=".81" ry=".8"/>
      <ellipse class="cls-2" cx="82.23" cy="59.8" rx=".81" ry=".8"/>
      <ellipse class="cls-2" cx="82.68" cy="57.66" rx=".81" ry=".8"/>
      <ellipse class="cls-2" cx="83.12" cy="55.51" rx=".81" ry=".8"/>
      <ellipse class="cls-2" cx="83.56" cy="53.37" rx=".81" ry=".8"/>
      <ellipse class="cls-2" cx="84" cy="51.23" rx=".81" ry=".8"/>
      <ellipse class="cls-2" cx="82.22" cy="70.52" rx=".81" ry=".8"/>
      <ellipse class="cls-2" cx="82.66" cy="68.38" rx=".81" ry=".8"/>
      <ellipse class="cls-2" cx="83.1" cy="66.23" rx=".81" ry=".8"/>
      <ellipse class="cls-2" cx="83.54" cy="64.09" rx=".81" ry=".8"/>
      <ellipse class="cls-2" cx="83.98" cy="61.95" rx=".81" ry=".8"/>
      <ellipse class="cls-2" cx="84.41" cy="59.8" rx=".81" ry=".8"/>
      <ellipse class="cls-2" cx="84.86" cy="57.66" rx=".81" ry=".8"/>
      <ellipse class="cls-2" cx="85.3" cy="55.51" rx=".81" ry=".8"/>
      <ellipse class="cls-2" cx="85.74" cy="53.37" rx=".81" ry=".8"/>
      <ellipse class="cls-2" cx="86.18" cy="51.23" rx=".81" ry=".8"/>
      <ellipse class="cls-2" cx="84.41" cy="70.52" rx=".81" ry=".8"/>
      <ellipse class="cls-2" cx="84.85" cy="68.38" rx=".81" ry=".8"/>
      <ellipse class="cls-2" cx="87.92" cy="53.37" rx=".81" ry=".8"/>
      <ellipse class="cls-2" cx="88.36" cy="51.23" rx=".81" ry=".8"/>
      <ellipse class="cls-2" cx="88.77" cy="70.52" rx=".81" ry=".8"/>
      <ellipse class="cls-2" cx="89.21" cy="68.38" rx=".81" ry=".8"/>
      <ellipse class="cls-2" cx="89.64" cy="66.23" rx=".81" ry=".8"/>
      <ellipse class="cls-2" cx="90.09" cy="64.09" rx=".81" ry=".8"/>
      <ellipse class="cls-2" cx="90.53" cy="61.95" rx=".81" ry=".8"/>
      <ellipse class="cls-2" cx="90.96" cy="59.8" rx=".81" ry=".8"/>
      <ellipse class="cls-2" cx="91.41" cy="57.66" rx=".81" ry=".8"/>
      <ellipse class="cls-2" cx="91.85" cy="55.51" rx=".81" ry=".8"/>
      <ellipse class="cls-2" cx="92.29" cy="53.37" rx=".81" ry=".8"/>
      <ellipse class="cls-2" cx="92.73" cy="51.23" rx=".81" ry=".8"/>
      <ellipse class="cls-2" cx="90.95" cy="70.52" rx=".81" ry=".8"/>
      <ellipse class="cls-2" cx="91.39" cy="68.38" rx=".81" ry=".8"/>
      <ellipse class="cls-2" cx="91.83" cy="66.23" rx=".81" ry=".8"/>
      <ellipse class="cls-2" cx="92.27" cy="64.09" rx=".81" ry=".8"/>
      <ellipse class="cls-2" cx="92.71" cy="61.95" rx=".81" ry=".8"/>
      <ellipse class="cls-2" cx="93.14" cy="59.8" rx=".81" ry=".8"/>
      <ellipse class="cls-2" cx="93.59" cy="57.66" rx=".81" ry=".8"/>
      <ellipse class="cls-2" cx="94.03" cy="55.51" rx=".81" ry=".8"/>
      <ellipse class="cls-2" cx="94.47" cy="53.37" rx=".81" ry=".8"/>
      <ellipse class="cls-2" cx="94.91" cy="51.23" rx=".81" ry=".8"/>
      <ellipse class="cls-2" cx="93.14" cy="70.52" rx=".81" ry=".8"/>
      <ellipse class="cls-2" cx="93.57" cy="68.38" rx=".81" ry=".8"/>
      <ellipse class="cls-2" cx="96.65" cy="53.37" rx=".81" ry=".8"/>
      <ellipse class="cls-2" cx="97.09" cy="51.23" rx=".81" ry=".8"/>
      <ellipse class="cls-2" cx="95.32" cy="70.52" rx=".81" ry=".8"/>
      <ellipse class="cls-2" cx="95.75" cy="68.38" rx=".81" ry=".8"/>
      <ellipse class="cls-2" cx="98.83" cy="53.37" rx=".81" ry=".8"/>
      <ellipse class="cls-2" cx="99.27" cy="51.23" rx=".81" ry=".8"/>
      <ellipse class="cls-2" cx="97.5" cy="70.52" rx=".81" ry=".8"/>
      <ellipse class="cls-2" cx="97.93" cy="68.38" rx=".81" ry=".8"/>
      <ellipse class="cls-2" cx="98.37" cy="66.23" rx=".81" ry=".8"/>
      <ellipse class="cls-2" cx="98.81" cy="64.09" rx=".81" ry=".8"/>
      <ellipse class="cls-2" cx="99.26" cy="61.95" rx=".81" ry=".8"/>
      <ellipse class="cls-2" cx="99.69" cy="59.8" rx=".81" ry=".8"/>
      <ellipse class="cls-2" cx="100.13" cy="57.66" rx=".81" ry=".8"/>
      <ellipse class="cls-2" cx="100.58" cy="55.51" rx=".81" ry=".8"/>
      <ellipse class="cls-2" cx="101.01" cy="53.37" rx=".81" ry=".8"/>
      <ellipse class="cls-2" cx="101.45" cy="51.23" rx=".81" ry=".8"/>
      <ellipse class="cls-2" cx="99.68" cy="70.52" rx=".81" ry=".8"/>
      <ellipse class="cls-2" cx="100.12" cy="68.38" rx=".81" ry=".8"/>
      <ellipse class="cls-2" cx="100.55" cy="66.23" rx=".81" ry=".8"/>
      <ellipse class="cls-2" cx="101" cy="64.09" rx=".81" ry=".8"/>
      <ellipse class="cls-2" cx="101.44" cy="61.95" rx=".81" ry=".8"/>
      <ellipse class="cls-2" cx="101.87" cy="59.8" rx=".81" ry=".8"/>
      <ellipse class="cls-2" cx="102.31" cy="57.66" rx=".81" ry=".8"/>
      <ellipse class="cls-2" cx="102.76" cy="55.51" rx=".81" ry=".8"/>
      <ellipse class="cls-2" cx="103.19" cy="53.37" rx=".81" ry=".8"/>
      <ellipse class="cls-2" cx="103.64" cy="51.23" rx=".81" ry=".8"/>
      <ellipse class="cls-2" cx="104.05" cy="70.52" rx=".81" ry=".8"/>
      <ellipse class="cls-2" cx="104.48" cy="68.38" rx=".81" ry=".8"/>
      <ellipse class="cls-2" cx="104.92" cy="66.23" rx=".81" ry=".8"/>
      <ellipse class="cls-2" cx="105.36" cy="64.09" rx=".81" ry=".8"/>
      <ellipse class="cls-2" cx="105.8" cy="61.95" rx=".81" ry=".8"/>
      <ellipse class="cls-2" cx="106.23" cy="59.8" rx=".81" ry=".8"/>
      <ellipse class="cls-2" cx="106.68" cy="57.66" rx=".81" ry=".8"/>
      <ellipse class="cls-2" cx="107.12" cy="55.51" rx=".81" ry=".8"/>
      <ellipse class="cls-2" cx="107.56" cy="53.37" rx=".81" ry=".8"/>
      <ellipse class="cls-2" cx="108" cy="51.23" rx=".81" ry=".8"/>
      <ellipse class="cls-2" cx="106.23" cy="70.52" rx=".81" ry=".8"/>
      <ellipse class="cls-2" cx="106.66" cy="68.38" rx=".81" ry=".8"/>
      <ellipse class="cls-2" cx="107.1" cy="66.23" rx=".81" ry=".8"/>
      <ellipse class="cls-2" cx="107.54" cy="64.09" rx=".81" ry=".8"/>
      <ellipse class="cls-2" cx="107.99" cy="61.95" rx=".81" ry=".8"/>
      <ellipse class="cls-2" cx="108.42" cy="59.8" rx=".81" ry=".8"/>
      <ellipse class="cls-2" cx="108.86" cy="57.66" rx=".81" ry=".8"/>
      <ellipse class="cls-2" cx="109.3" cy="55.51" rx=".81" ry=".8"/>
      <ellipse class="cls-2" cx="109.74" cy="53.37" rx=".81" ry=".8"/>
      <ellipse class="cls-2" cx="111.04" cy="57.66" rx=".81" ry=".8"/>
      <ellipse class="cls-2" cx="111.48" cy="55.51" rx=".81" ry=".8"/>
      <ellipse class="cls-2" cx="112.78" cy="59.8" rx=".81" ry=".8"/>
      <ellipse class="cls-2" cx="113.22" cy="57.66" rx=".81" ry=".8"/>
      <ellipse class="cls-2" cx="112.77" cy="70.52" rx=".81" ry=".8"/>
      <ellipse class="cls-2" cx="113.21" cy="68.38" rx=".81" ry=".8"/>
      <ellipse class="cls-2" cx="113.64" cy="66.23" rx=".81" ry=".8"/>
      <ellipse class="cls-2" cx="114.09" cy="64.09" rx=".81" ry=".8"/>
      <ellipse class="cls-2" cx="114.53" cy="61.95" rx=".81" ry=".8"/>
      <ellipse class="cls-2" cx="114.96" cy="59.8" rx=".81" ry=".8"/>
      <ellipse class="cls-2" cx="115.41" cy="57.66" rx=".81" ry=".8"/>
      <ellipse class="cls-2" cx="115.85" cy="55.51" rx=".81" ry=".8"/>
      <ellipse class="cls-2" cx="116.29" cy="53.37" rx=".81" ry=".8"/>
      <ellipse class="cls-2" cx="116.72" cy="51.23" rx=".81" ry=".8"/>
      <ellipse class="cls-2" cx="114.95" cy="70.52" rx=".81" ry=".8"/>
      <ellipse class="cls-2" cx="115.39" cy="68.38" rx=".81" ry=".8"/>
      <ellipse class="cls-2" cx="115.83" cy="66.23" rx=".81" ry=".8"/>
      <ellipse class="cls-2" cx="116.27" cy="64.09" rx=".81" ry=".8"/>
      <ellipse class="cls-2" cx="116.71" cy="61.95" rx=".81" ry=".8"/>
      <ellipse class="cls-2" cx="117.14" cy="59.8" rx=".81" ry=".8"/>
      <ellipse class="cls-2" cx="117.59" cy="57.66" rx=".81" ry=".8"/>
      <ellipse class="cls-2" cx="118.03" cy="55.51" rx=".81" ry=".8"/>
      <ellipse class="cls-2" cx="118.47" cy="53.37" rx=".81" ry=".8"/>
      <ellipse class="cls-2" cx="118.91" cy="51.23" rx=".81" ry=".8"/>
    </g>
    <g>
      <path class="cls-2" d="M74.32,83.44l-3.22,15.93h-3.61l.33-1.64c-1.37,1.19-3.16,1.85-5.28,1.85-3.98,0-7.13-2.6-7.13-7.01,0-5.43,3.95-9.31,9.14-9.31,2.52,0,4.43,.83,5.52,2.53l.45-2.36h3.79Zm-5.22,6.98c0-2.48-1.55-4-4.28-4-3.22,0-5.59,2.45-5.59,5.96,0,2.48,1.55,4,4.28,4,3.22,0,5.59-2.45,5.59-5.96Z"/>
      <path class="cls-2" d="M81.43,94.02c-.03,.24-.06,.48-.06,.69,0,1.1,.58,1.79,1.91,1.79,.73,0,1.49-.21,2.12-.63l.67,2.75c-1.15,.72-2.58,.96-3.92,.96-2.76,0-4.64-1.58-4.64-4.26,0-.39,.03-.81,.12-1.25l1.55-7.52h-2.64l.61-2.98h2.64l.73-3.64h3.79l-.76,3.64h4.37l-.61,2.98h-4.37l-1.52,7.49h0Z"/>
      <path class="cls-2" d="M107.08,83.44l-10.17,15.93h-3.92l-3.73-15.93h3.73l2.7,11.84,7.56-11.84h3.83Z"/>
      <path class="cls-2" d="M109.42,83.44h3.79l-3.22,15.93h-3.79l3.22-15.93Zm.49-4.71c0-1.34,1.03-2.39,2.58-2.39,1.37,0,2.28,.9,2.28,2,0,1.46-1.03,2.48-2.58,2.48-1.37,0-2.28-.96-2.28-2.09Z"/>
      <path class="cls-2" d="M134.05,83.44l-3.22,15.93h-3.61l.33-1.64c-1.37,1.19-3.16,1.85-5.28,1.85-3.98,0-7.13-2.6-7.13-7.01,0-5.43,3.95-9.31,9.14-9.31,2.52,0,4.43,.83,5.52,2.53l.45-2.36h3.79Zm-5.22,6.98c0-2.48-1.55-4-4.28-4-3.22,0-5.59,2.45-5.59,5.96,0,2.48,1.55,4,4.28,4,3.22,0,5.59-2.45,5.59-5.96Z"/>
      <path class="cls-2" d="M44.86,78.48h3.95l-3.58,17.6h8.08l-.67,3.28h-12.03l4.25-20.88h0Z"/>
    </g>
  </g>
</svg>