<svg xmlns:xlink="http://www.w3.org/1999/xlink" xmlns="http://www.w3.org/2000/svg" id="Layer_1" viewBox="0 0 150 150" width="200"  height="200" ><defs><style>.cls-1{fill:none;}.cls-2{fill:#111;}</style></defs><path class="cls-2" d="M117.11,60.03l-61.61,26.65c-5.11,2.2-9.4,3.29-12.87,3.29-3.93,0-6.78-1.4-8.55-4.19-1.11-1.8-1.44-4.08-.98-6.84,.46-2.76,1.67-5.71,3.64-8.83,1.64-2.53,4.32-5.86,8.06-9.98-1.31,2.13-2.23,4.32-2.75,6.59-.98,4.26-.1,7.39,2.65,9.38,1.31,.93,3.11,1.4,5.4,1.4,1.83,0,3.9-.3,6.19-.9l60.82-16.57Z"/><rect class="cls-1" width="150" height="150"/></svg>