<svg width="150" height="150" viewBox="0 0 150 150" fill="none" xmlns="http://www.w3.org/2000/svg">
<g clip-path="url(#clip0_3122_500)">
<path d="M77.9472 108.45L77.9081 108.404L71.855 101.69H70.451V110.997H72.0291V104.244L72.0682 104.289L78.1214 110.997H79.5253V101.69H77.9472V108.45ZM62.0911 101.69L57.314 110.997H59.0947L60.3139 108.548H65.6881L65.6952 108.562L66.9251 111H68.7022L63.8789 101.693H62.0911V101.69ZM61.007 107.162L61.0248 107.131L62.9904 103.181L63.0117 103.223L64.9986 107.162H61.007ZM96.9063 101.69L92.1327 110.997H93.9135L95.1326 108.548H100.507L100.514 108.562L101.744 111H103.521L98.6977 101.693H96.9063V101.69ZM95.8222 107.162L95.8399 107.131L97.8055 103.181L97.8269 103.223L99.8138 107.162H95.8222ZM87.121 105.528L91.3117 101.693H89.1222L84.3238 106.089V101.693H82.7456V111H84.3238V108.095L85.9872 106.573L86.0014 106.59L89.6198 111H91.5818L87.1033 105.545L87.121 105.528ZM54.8402 106.036C55.3342 105.615 55.6399 105.005 55.6399 104.275C55.6399 102.847 54.4669 101.69 53.0203 101.69H47.479V110.997H53.3438C54.8899 110.997 56.1411 109.762 56.1411 108.236C56.1411 107.253 55.6221 106.471 54.8402 106.036ZM49.0572 103.075H52.8461C53.5179 103.075 54.0617 103.612 54.0617 104.275C54.0617 104.938 53.5179 105.475 52.8461 105.475H49.0572V103.075ZM53.1696 109.607H49.0607V106.857H53.1696C53.9373 106.857 54.5629 107.471 54.5629 108.232C54.5629 108.993 53.9373 109.607 53.1696 109.607ZM53.6352 67.4377C55.1636 63.5684 58.7322 56.8856 63.6195 51.6412C77.3003 36.9532 89.307 40.6787 85.8912 47.9051C84.9173 49.9608 82.3866 52.2796 78.4732 54.0055C78.3062 54.0792 78.0716 54.1704 77.7908 54.2686C74.7873 55.3456 71.6097 55.8753 68.4108 55.8753H66.431L65.1585 57.731H65.2687C66.4417 57.731 67.611 57.9205 68.7129 58.3274C77.4958 61.5898 86.1578 69.332 95.0011 69.332H95.2464C98.3778 69.3285 101.502 68.5076 104.051 66.7115C105.885 65.4171 106.546 63.8139 106.546 63.8139C106.546 63.8139 103.756 65.0978 99.3695 64.8698C92.3567 64.505 83.7053 59.906 75.7293 57.1663C81.6828 55.735 89.2253 52.5182 91.8839 47.3895C97.0307 37.4548 79.7599 34.8554 62.6918 47.8315C57.2074 51.999 49.1212 61.0636 45.5668 67.4272L48.4245 67.4377H53.6352ZM40.0148 94.8141H42.3429V81.1013H40.0148V94.8141ZM59.0592 83.143V81.0978H47.543V94.8106H59.2085V92.7654H49.8676V88.6681H57.0652V86.6229H49.8676V83.136H59.0592V83.143ZM74.375 81.0978H61.4442V83.143H66.5767V94.8141H68.9048V83.143H74.3786V81.0978H74.375ZM76.7671 81.0978V89.6082C76.7671 93.025 79.305 95.2351 83.229 95.2351C87.1673 95.2351 89.7122 93.025 89.7122 89.6082V81.0978H87.3841V89.6082C87.3841 90.6606 86.9575 91.5446 86.1543 92.1656C85.4114 92.7374 84.3735 93.0531 83.229 93.0531C82.0952 93.0531 81.0644 92.7374 80.3251 92.1656C79.5218 91.5446 79.0953 90.6571 79.0953 89.6082V81.0978H76.7671ZM125.672 81.0978V89.6082C125.672 90.6606 125.245 91.5446 124.442 92.1656C123.699 92.7374 122.661 93.0531 121.517 93.0531C120.383 93.0531 119.352 92.7374 118.613 92.1656C117.81 91.5446 117.383 90.6571 117.383 89.6082V81.0978H115.055V89.6082C115.055 93.025 117.593 95.2351 121.517 95.2351C125.455 95.2351 128 93.025 128 89.6082V81.0978H125.672ZM102.373 90.608L96.5615 81.0978H94.4253V94.8106H96.7534V85.6126L101.403 93.1303H103.34L107.989 85.6126V94.8106H110.317V81.0978H108.181L102.373 90.608ZM35.4617 85.3074C35.4617 82.9816 33.553 81.0978 31.1964 81.0978H23V94.8106H25.3281V89.5135H30.1763L30.187 89.5311L33.1691 94.8106H35.8491L32.5684 89.2925C34.2532 88.7312 35.4617 87.1596 35.4617 85.3074ZM31.008 87.4719H25.3281V83.143H31.008C32.2201 83.143 33.2011 84.1112 33.2011 85.3074C33.2046 86.5037 32.2201 87.4719 31.008 87.4719Z" fill="#0000B8"/>
</g>
<defs>
<clipPath id="clip0_3122_500">
<rect width="150" height="150" fill="white"/>
</clipPath>
</defs>
</svg>
