<svg xmlns:xlink="http://www.w3.org/1999/xlink" xmlns="http://www.w3.org/2000/svg" id="Layer_1" viewBox="0 0 150 150" width="200"  height="200" >
  <defs>
    <style>.cls-1{fill:none;}.cls-2{fill:#231f20;}</style>
  </defs>
  <g>
    <path class="cls-2" d="M89.47,81.42l-2.33-4.02h-2.14v4.02h-1.81v-11.03h4.41c.99,0,1.83,.35,2.51,1.04,.69,.68,1.04,1.51,1.04,2.51,0,1.4-.88,2.68-2.19,3.2l2.51,4.29h-1.99Zm-4.48-9.33v3.69h2.6c.96,0,1.73-.82,1.73-1.84s-.77-1.84-1.73-1.84h-2.6Z"/>
    <path class="cls-2" d="M93.08,67.88h4.41v1.4h-4.41v-1.4Zm1.29,2.51h1.81v11.03h-1.81v-11.03Z"/>
    <path class="cls-2" d="M110.48,75.71v.76c0,1.51-.5,2.76-1.5,3.72-.99,.96-2.3,1.43-3.91,1.43-1.7,0-3.1-.55-4.22-1.66-1.1-1.1-1.66-2.46-1.66-4.07s.55-2.95,1.66-4.05c1.12-1.12,2.49-1.67,4.13-1.67,2.06,0,3.86,1.02,4.81,2.62l-1.56,.9c-.58-1.06-1.81-1.75-3.25-1.75-1.15,0-2.11,.38-2.85,1.13-.74,.76-1.12,1.7-1.12,2.84s.38,2.08,1.12,2.82c.76,.74,1.75,1.12,2.96,1.12,1.95,0,3.23-.99,3.56-2.52h-3.69v-1.62h5.52Z"/>
    <path class="cls-2" d="M120.31,81.42l-.77-2.22h-4.7l-.77,2.22h-1.97l4-11.03h2.18l3.99,11.03h-1.95Zm-4.87-3.92h3.5l-1.75-4.98-1.75,4.98Z"/>
    <path class="cls-2" d="M67.91,88.1c.53-.78,.81-2.31,.52-3.34-.72-2.58-3.39-3.97-6-3.22-1.4,.4-2.44,1.46-2.88,2.89l-7.28-7.28,5.68-5.68,6.69,6.69,3.46-3.46-2.91-2.91-1.67,1.79-1.73-1.73,1.78-1.67-1.9-1.9-.27-.27,1.73-1.73,2.17,2.17,1.67-1.78,1.73,1.73-1.79,1.67,2.91,2.91,3.46-3.46-6.69-6.69,1.79-1.79-1.7-1.71-16.11,16.11-16.13-16.13-1.73,1.73,1.79,1.79-1.73,1.73-1.73,1.73,1.87,1.87-1.73,1.73-1.73-1.73-1.73,1.73,1.73,1.73,1.73,1.73,1.73-1.73,1.73-1.73,1.44,1.44-1.73,1.73-1.73,1.73,1.73,1.73,1.73,1.73,1.73-1.73-1.73-1.73,1.73-1.73,1.87,1.87,1.73-1.73,1.73-1.73,5.7,5.7-5.66,5.66h0c-.73,.72-2.81,1.23-5.07,1.23s-4.34-.51-5.07-1.23l-1.72,1.72c.73,.73,1.23,2.81,1.23,5.07s-.51,4.34-1.23,5.07l1.72,1.72c.73-.73,2.81-1.23,5.07-1.23s4.34,.51,5.07,1.23l1.72-1.72c-.73-.73-1.23-2.81-1.23-5.07s.51-4.34,1.23-5.07h0s5.66-5.67,5.66-5.67l7.27,7.27c-1.42,.44-2.48,1.48-2.88,2.88-.74,2.62,.64,5.28,3.22,6,1.04,.29,2.57,0,3.34-.52,.33,.87,1.35,1.89,2.34,2.18,1.27,.36,2.6,.2,3.75-.44,.44-.24,.82-.54,1.16-.89,.35-.34,.65-.72,.89-1.16,.64-1.15,.8-2.48,.44-3.75-.28-1-1.31-2.01-2.18-2.34m-31.68-23.54l1.73,1.73-1.73,1.73-1.73-1.73,1.73-1.73Zm3.46,6.91l-1.73-1.73,1.73-1.73,1.73,1.73-1.73,1.73Zm-1.59,21.26c-.62,0-2.04,.04-3.49,.37,.33-1.46,.37-2.88,.37-3.49s-.04-2.04-.37-3.49c1.46,.33,2.88,.37,3.49,.37s2.04-.04,3.49-.37c-.33,1.46-.37,2.88-.37,3.49s.04,2.04,.37,3.49c-1.46-.33-2.88-.37-3.49-.37m28.94,.9c-.57,.62-1.44,.94-2.3,.78-.57-.1-1.07-.39-1.45-.82-.35-.4-1.03-1.58-1.03-1.59l-.04-.07s-.95,.58-1.81,.86c-.54,.17-1.11,.14-1.65-.07-1.12-.44-1.78-1.65-1.55-2.83,.2-1.01,.98-1.79,1.99-1.99,.38-.08,1.89-.11,1.9-.11h.09s0-.09,0-.09c0-.02,.04-1.52,.11-1.9,.2-1.01,.98-1.79,1.99-1.99,1.18-.23,2.4,.43,2.83,1.55,.21,.54,.24,1.12,.07,1.65-.27,.86-.86,1.81-.86,1.81l.07,.04s1.2,.69,1.59,1.03c.43,.38,.72,.88,.82,1.45,.16,.86-.17,1.72-.78,2.3"/>
    <polygon class="cls-2" points="49.03 65.61 52.1 65.61 51.75 60.55 56.81 60.9 56.81 57.84 51.75 58.19 52.1 53.12 49.03 53.12 49.38 58.19 44.32 57.84 44.32 60.9 49.38 60.55 49.03 65.61"/>
  </g>
  <rect class="cls-1" width="150" height="150"/>
</svg>