<svg xmlns:xlink="http://www.w3.org/1999/xlink" xmlns="http://www.w3.org/2000/svg" width="150" height="150" viewBox="0 0 150 150" fill="none">
<path d="M109.871 44.7685C109.818 44.6035 108.536 40.6636 106.112 35.1497L105.392 33.511L103.625 33.7951C99.3634 34.4805 94.3383 31.021 89.9615 27.7248C84.8669 23.8868 75.7111 23.9814 74.7013 24.0053C74.4191 23.9986 71.854 23.9537 68.7335 24.4048C64.709 24.9867 61.5772 26.1037 59.4252 27.7248C55.0491 31.0213 50.023 34.4805 45.762 33.7951L43.9947 33.511L43.2746 35.1497C40.8503 40.6643 39.5689 44.6035 39.5186 44.7586L39 46.2081L40.1713 47.203C40.3433 47.3697 41.5724 48.6303 41.5724 50.6619V88.5685C41.5231 89.9253 41.3773 101.999 51.2952 108.068C60.5965 113.758 70.6222 114.373 74.5008 114.373H74.8855C78.7645 114.373 88.7906 113.758 98.0916 108.068C108.008 102 107.863 89.9253 107.814 88.5804V50.6619C107.814 48.6293 109.043 47.3697 109.216 47.203L110.347 46.2425L109.871 44.7685Z" fill="#000067"/>
<path d="M60.7576 120.433C60.5085 120.626 60.1509 120.722 59.6852 120.722H59.2393V118.481H59.6852C60.1509 118.481 60.5085 118.578 60.7576 118.771C61.0063 118.963 61.131 119.241 61.131 119.602C61.131 119.963 61.0063 120.241 60.7576 120.433ZM63.0528 121.15C63.3859 120.721 63.5529 120.16 63.5529 119.47C63.5529 119.084 63.4904 118.723 63.366 118.385C63.2413 118.048 63.0568 117.751 62.812 117.493C62.5666 117.236 62.2556 117.034 61.8782 116.885C61.5005 116.737 61.0586 116.662 60.5528 116.662H56.8779V125.747H59.2393V122.253L61.4925 125.747H64.4321L61.5769 122.024C62.2275 121.871 62.7194 121.58 63.0528 121.15Z" fill="#000067"/>
<path d="M67.2275 125.747H69.5889V116.662H67.2275V125.747Z" fill="#000067"/>
<path d="M77.7219 122.494H79.6615C79.6215 122.759 79.5451 122.984 79.4326 123.169C79.3202 123.353 79.1776 123.504 79.005 123.62C78.8323 123.737 78.6375 123.821 78.4208 123.873C78.2038 123.926 77.9789 123.952 77.746 123.952C77.3521 123.952 77.0068 123.885 76.7097 123.753C76.4124 123.62 76.1633 123.434 75.9628 123.193C75.7617 122.952 75.6112 122.666 75.511 122.337C75.4105 122.008 75.3605 121.65 75.3605 121.265C75.3605 120.839 75.4187 120.454 75.5352 120.108C75.6516 119.763 75.8123 119.468 76.0168 119.223C76.2218 118.978 76.4686 118.789 76.758 118.657C77.0471 118.524 77.3683 118.458 77.7219 118.458C78.1476 118.458 78.527 118.566 78.8604 118.783C79.1935 119 79.4647 119.357 79.6738 119.855L81.9148 118.927C81.497 118.068 80.9307 117.434 80.2159 117.024C79.5008 116.614 78.6696 116.41 77.7219 116.41C76.9909 116.41 76.3283 116.526 75.7336 116.759C75.1392 116.992 74.6315 117.317 74.2097 117.735C73.788 118.152 73.4629 118.657 73.234 119.247C73.0047 119.837 72.8906 120.486 72.8906 121.193C72.8906 121.908 73.0067 122.56 73.2399 123.15C73.4728 123.741 73.7979 124.247 74.2157 124.669C74.6331 125.09 75.1333 125.418 75.7158 125.65C76.2979 125.883 76.9426 126 77.6495 126C78.1635 126 78.6537 125.935 79.1194 125.807C79.5851 125.679 80.0128 125.492 80.4028 125.247C80.7921 125.002 81.1315 124.697 81.4206 124.331C81.7097 123.966 81.9389 123.546 82.1076 123.072C82.228 122.735 82.3081 122.369 82.3484 121.976C82.3884 121.582 82.4086 121.144 82.4086 120.662H77.7219V122.494Z" fill="#000067"/>
<path d="M88.1917 122.373L89.2518 119.349L90.3119 122.373H88.1917ZM90.5412 116.662H87.9628L84.5049 125.747H87.0231L87.5649 124.168H90.9384L91.4809 125.747H93.9987L90.5412 116.662Z" fill="#000067"/>
<path d="M66.4766 115.676H70.169V114.893H66.4766V115.676Z" fill="#000067"/>
<path d="M77.4575 45.8554C77.6741 45.9993 77.9232 46.1075 78.1954 46.0069C78.4769 45.9027 78.7531 45.7833 79.0386 45.6679C79.1527 45.8432 79.2747 46.0357 79.4018 46.2242C79.5913 46.506 79.8655 46.6496 80.1976 46.6549C80.5687 46.6609 80.8525 46.4647 81.0573 46.174C81.1929 45.9811 81.2746 45.7582 81.2375 45.5038C81.1843 45.1363 80.9805 44.8859 80.6723 44.7033C80.5274 44.6177 80.3865 44.5251 80.2409 44.4341C80.3246 44.2684 80.398 44.1208 80.4738 43.9746C80.7692 43.4027 80.5833 42.8325 80.1159 42.5646C79.5648 42.2487 78.9142 42.5351 78.7303 43.0776C78.633 43.3647 78.6373 43.6859 78.5874 44.054C78.4058 44.054 78.203 44.0454 78.0016 44.0557C77.5666 44.0775 77.1975 44.3666 77.0761 44.75C76.9468 45.1585 77.0966 45.6159 77.4575 45.8554Z" fill="#FF1FFF"/>
<path d="M69.4756 36.3046C69.6757 36.5058 69.891 36.7217 70.1057 36.9377C70.3002 36.7416 70.5089 36.5309 70.719 36.3189C70.5 36.0973 70.284 35.8786 70.0948 35.6868C69.8791 35.9021 69.6638 36.1168 69.4756 36.3046Z" fill="#FF1FFF"/>
<path d="M68.1016 34.9443C68.2957 35.1455 68.5035 35.3608 68.6999 35.5642C68.909 35.3571 69.1194 35.1488 69.3215 34.9486C69.1065 34.7317 68.8957 34.5193 68.7125 34.3347C68.5084 34.5385 68.2961 34.7502 68.1016 34.9443Z" fill="#FF1FFF"/>
<path d="M70.8024 43.3872C69.8819 43.548 68.9851 43.5529 68.0762 43.3829C68.2723 44.2882 68.2578 45.1929 68.0881 46.1028C69.0056 45.9328 69.8918 45.9222 70.8054 46.1091C70.6172 45.1919 70.6235 44.2872 70.8024 43.3872Z" fill="#FF1FFF"/>
<path d="M101.402 88.457C101.402 93.9908 98.9315 98.9597 96.1253 101.315V51.0932H101.402V88.457ZM94.7625 45.1565C94.0364 45.1565 93.4976 44.8896 93.146 44.356C93.0001 44.1321 92.9078 43.8225 92.8688 43.4266H93.7473C93.7943 43.7183 93.9081 43.9416 94.089 44.0964C94.27 44.2512 94.5061 44.3286 94.7975 44.3286C95.0919 44.3286 95.3351 44.231 95.5279 44.0359C95.7204 43.8354 95.8167 43.5817 95.8167 43.2744C95.8167 42.8682 95.6724 42.5795 95.3833 42.4075C95.214 42.3089 94.9523 42.2593 94.5984 42.2593V41.4823C94.9838 41.4823 95.2428 41.4393 95.3754 41.3536C95.6122 41.2025 95.731 40.9603 95.731 40.6272C95.731 40.3696 95.645 40.1599 95.4733 39.9988C95.304 39.8347 95.084 39.7527 94.8134 39.7527C94.5607 39.7527 94.3656 39.8139 94.2276 39.9359C94.095 40.061 93.9958 40.272 93.9309 40.5687H93.0249C93.1189 40.0011 93.3114 39.5853 93.6028 39.321C93.8942 39.0571 94.3017 38.9248 94.825 38.9248C95.3532 38.9248 95.7842 39.0812 96.1173 39.3935C96.4504 39.7034 96.6171 40.1026 96.6171 40.5922C96.6171 41.1439 96.3985 41.5736 95.9612 41.8805C96.461 42.1746 96.7107 42.6526 96.7107 43.3134C96.7107 43.8549 96.5288 44.2975 96.1643 44.6408C95.7998 44.9845 95.3327 45.1565 94.7625 45.1565ZM90.0089 104.8L90.0873 103.16L88.2545 105.441C86.0764 106.183 84.3187 106.602 84.3187 106.602V50.9272H89.5961V99.2832C90.8184 98.7447 92.2145 98.0153 93.8955 96.6472C93.8955 98.2383 93.8982 102.906 93.8982 102.906C92.76 103.629 91.3714 104.266 90.0089 104.8ZM82.037 38.1127C81.6606 37.736 81.2752 37.3503 80.8786 36.953C81.0893 36.7552 81.3172 36.5409 81.5306 36.3408C81.3186 36.1291 81.1055 35.9167 80.8803 35.6918C80.6904 35.8919 80.4738 36.1201 80.2604 36.3451C79.9746 36.0573 79.6935 35.7741 79.4222 35.5013C79.1887 35.7348 78.976 35.9471 78.7514 36.1721C78.9876 36.4079 79.2274 36.6563 79.4781 36.8935C79.578 36.9881 79.578 37.0496 79.4762 37.1389C79.2737 37.3159 79.0792 37.5021 78.8917 37.6751C79.1143 37.898 79.327 38.1107 79.5493 38.3333C79.7252 38.1392 79.9105 37.94 80.0887 37.735C80.1569 37.6566 80.2048 37.6209 80.2948 37.7128C80.6239 38.0499 80.9577 38.3823 81.2934 38.7127C81.3659 38.7842 81.3583 38.8311 81.2901 38.899C80.8518 39.3336 80.4169 39.7715 79.9693 40.2201C79.0882 39.3379 78.2103 38.459 77.342 37.5894C76.6017 38.331 75.8684 39.066 75.1516 39.7841C76.0768 40.7106 77.0198 41.6543 77.9629 42.599C78.1445 42.0959 78.4928 41.7006 79.0392 41.5306C79.5403 41.3745 80.0497 41.3966 80.5267 41.6305C81.2981 42.0082 81.8905 42.9469 81.3235 44.1331C81.7165 44.3464 82.0367 44.6355 82.1581 45.0771C82.3284 45.6977 82.2236 46.2818 81.8356 46.8031C81.514 47.2351 81.0933 47.5146 80.5568 47.6072C80.5502 47.6085 80.5459 47.6234 80.5406 47.6323H79.8582C79.8529 47.6234 79.8486 47.6082 79.842 47.6072C79.4507 47.5513 79.1507 47.3482 78.9211 47.033C78.8477 46.9321 78.7782 46.8282 78.7074 46.727C77.6883 47.246 76.6695 46.8398 76.2273 45.9447C75.9736 45.4314 75.9544 44.8849 76.1618 44.3484C76.3523 43.8559 76.7254 43.538 77.2157 43.3591C76.2713 42.4008 75.3349 41.4502 74.3955 40.4966C73.6575 41.2359 72.9361 41.947 72.2316 42.6737C72.088 42.8216 71.9716 43.0167 71.9025 43.2112C71.659 43.8926 71.6282 44.5988 71.6994 45.3156C71.751 45.8336 71.8393 46.3337 72.1542 46.7644C71.923 46.9959 71.6934 47.2255 71.4642 47.4551C70.5718 46.7561 68.0714 46.8646 67.4456 47.4488C67.2124 47.2156 66.9799 46.9827 66.7477 46.7505C67.1453 46.1425 67.2184 45.444 67.2187 44.7374C67.219 44.0269 67.1446 43.3247 66.7285 42.7075C66.8896 42.5487 67.0394 42.3998 67.1906 42.2527C67.2637 42.1815 67.3305 42.0797 67.4178 42.0552C67.4787 42.038 67.5687 42.1309 67.6471 42.1719C68.1713 42.4458 68.7465 42.5083 69.3188 42.5189C69.7531 42.5269 70.1927 42.4634 70.6227 42.3909C70.9925 42.3284 71.3213 42.169 71.5955 41.8832C72.2329 41.2193 72.8925 40.577 73.5431 39.9253C73.5838 39.8843 73.6221 39.841 73.6383 39.8235C72.8921 39.0762 72.1558 38.339 71.4043 37.5864C70.973 38.0188 70.5268 38.466 70.0554 38.9383C69.8192 38.6869 69.5837 38.4365 69.3631 38.2017C69.1286 38.4359 68.9123 38.6519 68.6734 38.8904C68.8901 39.0938 69.1173 39.3075 69.3376 39.5142C69.0879 39.7629 68.855 39.9955 68.6437 40.2065C68.1952 39.7583 67.7334 39.2965 67.2687 38.8318C67.7119 38.3892 68.1674 37.9344 68.6232 37.4796C68.4373 37.294 68.2613 37.1184 68.0638 36.9213C67.608 37.3791 67.1516 37.8372 66.6832 38.3075C66.5128 38.1329 66.3451 37.9566 66.1728 37.7852C65.8854 37.5001 65.5946 37.218 65.3052 36.9345V36.8697C65.5212 36.6282 65.7372 36.3864 65.9657 36.1307C66.2393 36.4115 66.4612 36.6398 66.6829 36.8677C66.9065 36.6437 67.1241 36.4251 67.3573 36.1916C67.1165 35.9561 66.8744 35.7196 66.6329 35.4834C67.0897 35.0266 67.5369 34.5797 67.9798 34.1372C67.7304 33.8904 67.4972 33.6598 67.2786 33.4439C67.5409 33.1799 67.7751 32.9441 68.0126 32.7049C70.1186 34.8136 72.2465 36.9438 74.3806 39.0809C74.4256 39.0379 74.4683 38.9992 74.5086 38.9588C76.5528 36.913 78.598 34.8678 80.6378 32.818C80.7556 32.6999 80.8198 32.6953 80.9312 32.8187C81.1049 33.0112 81.2984 33.1862 81.476 33.3612C81.2362 33.599 81.0037 33.8292 80.7837 34.0472C81.694 34.9581 82.5722 35.837 83.4451 36.7106C82.9503 37.2034 82.4885 37.6632 82.037 38.1127ZM82.9562 107.004C81.9183 107.222 80.5197 107.436 78.9423 107.59L78.974 106.175L77.0506 107.738C75.8605 107.808 74.6161 107.837 73.3807 107.805V51.0654H78.6582V102.339C80.1413 102.188 81.4317 102.068 82.9562 101.679V107.004ZM71.7936 56.2506H66.8952V66.7216L70.7332 64.9361V70.6244L66.8952 72.4334V101.753C68.1654 102.065 69.6611 102.35 71.7936 102.497V107.712C68.3288 107.524 64.3863 106.77 61.6177 105.701V51.0932H71.7936V56.2506ZM59.8858 44.3795C59.4379 43.807 59.214 43.0154 59.214 42.0056C59.214 41.045 59.4379 40.2783 59.8858 39.7057C60.2864 39.1877 60.772 38.9287 61.3419 38.9287C61.9121 38.9287 62.3974 39.1877 62.7986 39.7057C63.2461 40.2783 63.4701 41.0582 63.4701 42.0446C63.4701 43.0283 63.2461 43.807 62.7986 44.3795C62.3974 44.8975 61.9134 45.1565 61.3458 45.1565C60.7786 45.1565 60.2917 44.8975 59.8858 44.3795ZM60.161 51.3334C60.161 51.3334 53.7897 87.6171 53.2545 91.1336C54.1598 96.2917 56.8533 97.9052 59.7767 99.305V104.98C52.3667 102.104 49.0447 98.4275 47.8678 90.3609C48.2343 88.1259 54.1241 56.2834 54.1241 56.2834L47.5821 56.2979V51.0932H60.161V51.3334ZM54.6735 40.0378C54.4757 39.8476 54.2309 39.7527 53.9395 39.7527C53.3302 39.7527 52.9816 40.1132 52.8929 40.8343H51.9873C52.1328 39.5638 52.7745 38.9287 53.9121 38.9287C54.4615 38.9287 54.9219 39.103 55.2944 39.452C55.6691 39.801 55.8567 40.233 55.8567 40.7483C55.8567 41.0761 55.7693 41.3976 55.595 41.7125C55.5064 41.8766 55.3767 42.0714 55.2064 42.2963C55.036 42.5216 54.8207 42.7879 54.5604 43.0948L53.6233 44.2036H55.8682V45.0589H51.8193L53.9121 42.5249C54.1178 42.2722 54.2901 42.0535 54.4294 41.869C54.5686 41.6841 54.6748 41.5293 54.7476 41.4042C54.8961 41.1594 54.9702 40.9395 54.9702 40.7443C54.9702 40.4632 54.8713 40.2277 54.6735 40.0378ZM71.9114 32.0989C72.5759 32.1439 73.2355 32.1886 73.8993 32.2336C73.8821 31.9243 73.8672 31.6382 73.85 31.352C73.8292 31.0044 73.8067 30.6564 73.7829 30.3088C73.7812 30.284 73.7621 30.2605 73.7511 30.2363H75.018C74.9849 30.7662 74.9528 31.2961 74.9178 31.8257C74.9092 31.9517 74.8903 32.0771 74.8725 32.2375C75.2327 32.2091 75.5618 32.18 75.8909 32.1575C76.221 32.1353 76.5518 32.1201 76.8912 32.1012V33.3466C76.225 33.3023 75.5654 33.2586 74.8791 33.213C74.9257 33.8907 74.97 34.5397 75.0154 35.1996H73.7713C73.8146 34.5476 73.8576 33.8947 73.9026 33.2133C73.2424 33.2573 72.5815 33.3013 71.9114 33.3459V32.0989ZM88.3283 40.0378C88.1305 39.8476 87.8857 39.7527 87.5943 39.7527C86.985 39.7527 86.6361 40.1132 86.5477 40.8343H85.6421C85.7876 39.5638 86.4293 38.9287 87.5669 38.9287C88.1159 38.9287 88.5767 39.103 88.9492 39.452C89.3239 39.801 89.5115 40.233 89.5115 40.7483C89.5115 41.0761 89.4241 41.3976 89.2498 41.7125C89.1612 41.8766 89.0315 42.0714 88.8612 42.2963C88.6908 42.5216 88.4752 42.7879 88.2152 43.0948L87.2781 44.2036H89.523V45.0589H85.4741L87.5669 42.5249C87.7726 42.2722 87.9449 42.0535 88.0842 41.869C88.2234 41.6841 88.3296 41.5293 88.4024 41.4042C88.5509 41.1594 88.625 40.9395 88.625 40.7443C88.625 40.4632 88.5261 40.2277 88.3283 40.0378ZM107.666 45.4803C107.666 45.4803 106.401 41.564 103.991 36.0814C98.749 36.9249 93.2062 33.0688 88.5668 29.5741C83.9274 26.0795 74.713 26.3207 74.713 26.3207H74.6704C74.6704 26.3207 65.4557 26.0795 60.8163 29.5741C56.1772 33.0688 50.6341 36.9249 45.3923 36.0814C42.9823 41.564 41.7168 45.4803 41.7168 45.4803C41.7168 45.4803 43.886 47.4084 43.886 50.6619V88.6201C43.886 88.6201 43.3435 100.49 52.502 106.093C61.6601 111.696 71.6071 112.058 74.4993 112.058H74.884C77.776 112.058 87.7233 111.696 96.8814 106.093C106.04 100.49 105.497 88.6201 105.497 88.6201V50.6619C105.497 47.4084 107.666 45.4803 107.666 45.4803Z" fill="#FF1FFF"/>
<path d="M62.2306 43.6769C62.4648 43.2449 62.5819 42.6995 62.5819 42.0409C62.5819 41.3823 62.4648 40.8359 62.2306 40.4009C61.9964 39.9689 61.7007 39.7529 61.3441 39.7529C60.9902 39.7529 60.6962 39.9689 60.462 40.4009C60.2274 40.8306 60.1104 41.3668 60.1104 42.0098C60.1104 42.6786 60.2261 43.2343 60.458 43.6769C60.6895 44.1115 60.9852 44.3289 61.3441 44.3289C61.7007 44.3289 61.9964 44.1115 62.2306 43.6769Z" fill="#FF1FFF"/>
</svg>