<svg xmlns:xlink="http://www.w3.org/1999/xlink" xmlns="http://www.w3.org/2000/svg" width="150" height="150" viewBox="0 0 150 150" fill="none">
<g clip-path="url(#clip0_2253_1159)">
<path d="M29.5029 96.0563C29.9455 95.6137 30.1666 95.0221 30.1666 94.2813C30.1666 93.6336 29.9753 93.0728 29.5903 92.5911C29.1138 91.9994 28.3823 91.7008 27.3907 91.7008H24V100.085H26.1801V96.8665L28.2641 100.085H30.9726L28.3355 96.6454C28.8316 96.5365 29.2207 96.3386 29.5029 96.0563ZM27.5809 95.1609C27.3804 95.3531 27.0499 95.4487 26.5888 95.4487H26.1801V93.3601H26.5888C27.0442 93.3601 27.3753 93.4557 27.5809 93.6485C27.7978 93.8521 27.9073 94.1029 27.9073 94.4026C27.9073 94.6992 27.7978 94.9527 27.5809 95.1609Z" fill="#2994D1"/>
<path d="M31.8867 100.087H34.0678V91.7043H31.8867V100.087Z" fill="#2994D1"/>
<path d="M39.9107 97.0883H41.7027C41.6379 97.5042 41.497 97.8183 41.2837 98.0295C40.9599 98.3524 40.5198 98.5127 39.9667 98.5127C39.339 98.5127 38.8435 98.3143 38.4688 97.9185C37.965 97.3885 37.711 96.7244 37.711 95.9276C37.711 95.5436 37.7799 95.173 37.9208 94.8131C38.294 93.838 38.9566 93.347 39.903 93.347C40.3677 93.347 40.7697 93.4869 41.1043 93.7629C41.3382 93.9588 41.5454 94.2523 41.7196 94.644L43.7841 93.7896C43.4366 93.0864 43.0171 92.5549 42.5251 92.1945C41.8368 91.6856 40.9974 91.4322 40.0068 91.4322C38.5258 91.4322 37.3713 91.9036 36.5452 92.85C35.8163 93.6801 35.4492 94.7077 35.4492 95.9276C35.4492 97.0287 35.7628 97.9771 36.3838 98.7718C37.2073 99.819 38.3881 100.343 39.9276 100.343C40.8735 100.343 41.6924 100.118 42.3833 99.6689C43.1019 99.197 43.6134 98.5251 43.9259 97.6533C44.13 97.0791 44.2344 96.3393 44.2344 95.43H39.9107V97.0883Z" fill="#2994D1"/>
<path d="M48.0455 91.7033L44.8203 100.086H47.1217L47.7021 98.6245H50.7098L51.2511 100.086H53.5782L50.4219 91.7033H48.0455ZM48.303 96.9667L49.218 94.2946L50.1186 96.9667H48.303Z" fill="#2994D1"/>
<path d="M58.2754 94.9946C57.6601 94.8132 57.2916 94.6867 57.1682 94.6122C56.8932 94.4533 56.7554 94.2606 56.7554 94.0395C56.7554 93.8123 56.8592 93.6339 57.069 93.4951C57.254 93.3769 57.4632 93.3183 57.6966 93.3183C58.1819 93.3183 58.662 93.5044 59.137 93.8781L60.0104 92.1828C59.1411 91.7278 58.2559 91.5001 57.3517 91.5001C56.4511 91.5001 55.7299 91.8013 55.1896 92.4028C54.7264 92.9132 54.4961 93.5579 54.4961 94.3351C54.4961 95.0774 54.7198 95.6346 55.1665 96.0022C55.3202 96.1302 55.5114 96.2407 55.7324 96.3337C55.8702 96.3965 56.2115 96.5059 56.7528 96.6648C57.199 96.7938 57.5183 96.9187 57.7069 97.0431C57.9619 97.2087 58.0868 97.4148 58.0868 97.6641C58.0868 97.9371 57.9722 98.1483 57.7444 98.2974C57.5465 98.4295 57.3059 98.4943 57.0248 98.4943C56.3961 98.4943 55.752 98.1972 55.0986 97.6055L54.1641 99.3605C55.0611 99.9948 56.0316 100.312 57.0808 100.312C57.5805 100.312 58.0477 100.236 58.48 100.084C59.7266 99.6555 60.3486 98.7302 60.3486 97.312C60.3486 96.7594 60.2057 96.306 59.922 95.9539C59.5966 95.54 59.046 95.2198 58.2754 94.9946Z" fill="#2994D1"/>
<path d="M91.2335 96.2371C91.2335 97.0221 91.1333 97.5531 90.9318 97.8266C90.6609 98.1993 90.2615 98.3859 89.7289 98.3859C89.4894 98.3859 89.2735 98.3391 89.0781 98.244C88.597 98.0189 88.3389 97.622 88.2988 97.0529C88.2855 96.873 88.2793 96.6011 88.2793 96.2371V91.7048H86.0977V96.5384C86.0977 97.1594 86.1449 97.6539 86.2344 98.023C86.3619 98.5427 86.5963 98.975 86.9397 99.3199C87.592 99.9743 88.4952 100.302 89.6534 100.302C90.7935 100.302 91.7019 99.9794 92.3804 99.3374C92.8605 98.8825 93.1623 98.3787 93.2913 97.8266C93.372 97.4709 93.4147 97.0406 93.4147 96.5384V91.7048H91.2335V96.2371Z" fill="#2994D1"/>
<path d="M100.572 92.3592C99.9003 91.9218 99.1699 91.7033 98.3854 91.7033H95.168V100.086H98.3854C98.8357 100.086 99.2768 100.009 99.7112 99.8582C100.53 99.5719 101.203 99.0563 101.729 98.3135C102.255 97.5717 102.517 96.7626 102.517 95.8897C102.517 95.2662 102.375 94.6581 102.088 94.0669C101.737 93.3549 101.23 92.7838 100.572 92.3592ZM99.7723 97.4118C99.3457 97.9835 98.7041 98.2688 97.8462 98.2688H97.3481V93.5215H97.8462C98.6974 93.5215 99.3405 93.8063 99.7723 94.3774C100.097 94.8087 100.258 95.3125 100.258 95.8897C100.258 96.4706 100.097 96.977 99.7723 97.4118Z" fill="#2994D1"/>
<path d="M103.91 100.086H108.683V98.2677H106.09V96.7698H108.541V94.9495H106.09V93.5215H108.683V91.7033H103.91V100.086Z" fill="#2994D1"/>
<path d="M116.255 96.8315L112.244 91.7012H110.062V100.086H112.244V94.9506L116.255 100.086H118.435V91.7012H116.255V96.8315Z" fill="#2994D1"/>
<path d="M125.577 95.9543C125.249 95.5395 124.7 95.2203 123.928 94.9951C123.312 94.8147 122.942 94.6867 122.822 94.6126C122.546 94.4538 122.409 94.2605 122.409 94.039C122.409 93.8138 122.513 93.6344 122.721 93.4956C122.907 93.3769 123.115 93.3183 123.35 93.3183C123.834 93.3183 124.314 93.5049 124.791 93.8765L125.662 92.1827C124.794 91.7283 123.91 91.5006 123.003 91.5006C122.104 91.5006 121.383 91.8018 120.843 92.4022C120.38 92.9132 120.15 93.5568 120.15 94.3351C120.15 95.0789 120.372 95.6361 120.819 96.0026C120.975 96.1301 121.162 96.2406 121.383 96.3342C121.524 96.3969 121.864 96.5049 122.406 96.6647C122.854 96.7938 123.17 96.9207 123.36 97.0431C123.613 97.2081 123.742 97.4163 123.742 97.6646C123.742 97.9375 123.626 98.1478 123.396 98.2979C123.2 98.429 122.959 98.4963 122.676 98.4963C122.05 98.4963 121.407 98.1987 120.751 97.6044L119.816 99.362C120.713 99.9953 121.685 100.313 122.735 100.313C123.234 100.313 123.7 100.237 124.133 100.086C125.379 99.6555 126 98.7292 126 97.3135C126 96.7593 125.859 96.3075 125.577 95.9543Z" fill="#2994D1"/>
<path d="M30.8242 90.8125H35.1279V89.7885H30.8242V90.8125Z" fill="#2994D1"/>
<path d="M91.912 89.7885H87.6094V90.8135H91.912V89.7885Z" fill="#2994D1"/>
<path d="M84.6793 58.8916H83.315V74.7645C83.315 77.8015 81.9214 78.8332 79.6148 80.5394L78.9749 81.0149L82.765 99.3722H71.0189L72.4844 80.8612C70.1131 79.0533 68.5694 78.2174 68.5694 75.0216V59.3759H67.2807V57.7191L72.396 51.2636L73.3342 50.657L84.6793 57.9843V58.8916ZM73.3342 49.4999L61.0195 57.4554V59.8606H62.3792V74.7645C62.3792 78.2925 64.0987 79.5637 66.4767 81.3228L66.6155 81.4256L62.7113 100.344H83.9581L80.0513 81.4256L80.1916 81.3218C82.5696 79.5627 84.286 78.2925 84.286 74.7645V59.8622H85.6503V57.4569L73.3342 49.4999Z" fill="#2994D1"/>
</g>
<defs>
<clipPath id="clip0_2253_1159">
<rect width="150" height="150" fill="white"/>
</clipPath>
</defs>
</svg>