<svg xmlns:xlink="http://www.w3.org/1999/xlink" xmlns="http://www.w3.org/2000/svg" id="Layer_1" data-name="Layer 1" width="150" height="150" viewBox="0 0 150 150">
  <defs>
    <style>.cls-1{fill:#326d2e;}</style>
  </defs>
  <path class="cls-1" d="M24.7999,105.95582v6.85265H21.43775v-17.223h5.62243a5.66445,5.66445,0,0,1,3.99691,1.34382,4.84448,4.84448,0,0,1,1.4476,3.73513A4.32686,4.32686,0,0,1,31.902,102.989a4.244,4.244,0,0,1-1.76393,1.55876,3.29142,3.29142,0,0,1,1.91214,1.48959,5.26012,5.26012,0,0,1,.58546,2.6037v1.22035a7.54843,7.54843,0,0,0,.1654,1.51925,2.08749,2.08749,0,0,0,.58064,1.17831v.24954H29.90094a1.92745,1.92745,0,0,1-.51867-1.23271,13.84539,13.84539,0,0,1-.10871-1.73908v-1.17093a3.31212,3.31212,0,0,0-.5262-2.001,1.76281,1.76281,0,0,0-1.50927-.709Zm0-2.68773h2.25033a1.93891,1.93891,0,0,0,1.56128-.62745,2.67956,2.67956,0,0,0,.53359-1.7885,3.01851,3.01851,0,0,0-.53359-1.87991,1.82933,1.82933,0,0,0-1.55133-.69907H24.7999Z"/>
  <path class="cls-1" d="M40.35,93.66922H32.60812V91.7745H40.35Zm-2.25048,19.13747H34.74974V95.57382h3.34978Z"/>
  <path class="cls-1" d="M51.57857,110.25142a6.17525,6.17525,0,0,1-2.09487,1.959,6.74846,6.74846,0,0,1-3.53992.84729,5.70455,5.70455,0,0,1-6.11908-6.24v-5.25434a6.26679,6.26679,0,0,1,1.61571-4.60465A5.749,5.749,0,0,1,45.719,95.32583a5.91283,5.91283,0,0,1,4.29575,1.40067,5.54471,5.54471,0,0,1,1.49207,4.01425l-.02457.07162H48.32257a3.22406,3.22406,0,0,0-.64472-2.1294,2.39554,2.39554,0,0,0-1.86509-.66945,2.33008,2.33008,0,0,0-1.92676.86956,4.17647,4.17647,0,0,0-.69915,2.64815v5.284a4.22859,4.22859,0,0,0,.704,2.68276,2.486,2.486,0,0,0,2.053.872,3.12068,3.12068,0,0,0,1.48454-.27174,2.11179,2.11179,0,0,0,.7881-.80529V106.2026H45.94378v-2.36653h5.63479Z"/>
  <path class="cls-1" d="M61.245,109.128H56.69967l-.92139,3.68073H52.379l4.85423-17.23532h3.50282L65.578,112.80869H62.18127Zm-3.85851-2.68773h3.17187l-1.54892-6.0967h-.07161Z"/>
  <path class="cls-1" d="M73.96726,108.31026a2.30292,2.30292,0,0,0-.52138-1.59087,5.28528,5.28528,0,0,0-1.83283-1.15611,12.13469,12.13469,0,0,1-4.03159-2.12443,4.21873,4.21873,0,0,1-1.34387-3.33,4.31964,4.31964,0,0,1,1.5637-3.451,5.92651,5.92651,0,0,1,3.98711-1.3315A5.51686,5.51686,0,0,1,75.79029,96.811a4.84682,4.84682,0,0,1,1.49208,3.7475l-.02473.06916h-3.2658a2.95659,2.95659,0,0,0-.59285-1.917,2.2897,2.2897,0,0,0-3.2361-.12352,2.16719,2.16719,0,0,0-.56315,1.53158,1.78826,1.78826,0,0,0,.62738,1.40315,8.78961,8.78961,0,0,0,2.1763,1.22525,9.15647,9.15647,0,0,1,3.68827,2.10226,4.71586,4.71586,0,0,1,1.23757,3.43618,4.35,4.35,0,0,1-1.49208,3.50539,5.9114,5.9114,0,0,1-3.9648,1.26478,6.64137,6.64137,0,0,1-4.2662-1.43772,4.82106,4.82106,0,0,1-1.74658-4.12542l.02473-.06916h3.27816a3.2301,3.2301,0,0,0,.67427,2.29492,2.7049,2.7049,0,0,0,2.03562.6991,2.03622,2.03622,0,0,0,1.581-.56819,2.20344,2.20344,0,0,0,.51384-1.539"/>
  <polygon class="cls-1" points="84.748 95.574 89.247 109.635 93.743 95.574 96.537 95.574 96.537 112.807 94.37 112.807 94.37 106.095 94.573 99.374 90.062 112.807 88.407 112.807 83.921 99.421 84.121 106.095 84.121 112.807 81.954 112.807 81.954 95.574 84.748 95.574"/>
  <polygon class="cls-1" points="108.818 104.842 102.722 104.842 102.722 110.951 109.824 110.951 109.824 112.807 100.557 112.807 100.557 95.574 109.705 95.574 109.705 97.434 102.722 97.434 102.722 102.985 108.818 102.985 108.818 104.842"/>
  <path class="cls-1" d="M114.99138,110.94929h8.17913V112.807h-10.5828v-1.70452l7.84818-13.67069h-7.7642V95.57408h10.18023v1.65759Zm2.90017-17.97891,1.40794-2.01083h1.78609v.1161l-2.59138,3.24353H117.264l-2.54449-3.24353v-.1161h1.75156Z"/>
  <rect class="cls-1" x="126.39575" y="95.57382" width="2.1665" height="17.23287"/>
  <path class="cls-1" d="M73.73477,73.864l.00241-.00988H70.17751l.00242.00988V83.95278c.33592-.09883.67442-.205,1.0203-.32609a16.88878,16.88878,0,0,0,2.53454-1.124Z"/>
  <path class="cls-1" d="M75.55312,36.9423a26.91094,26.91094,0,0,0-19.35,45.62169,16.18983,16.18983,0,0,0,12.24525,1.83543V73.86355l.00256-.00988H66.55859a.86585.86585,0,0,1,0-1.7317H77.84793a.86585.86585,0,0,1,0,1.7317H75.46416l.00242.00988v7.59868c1.539-1.02271,2.94962-2.18131,4.55523-3.30776v-11.072a.83128.83128,0,0,1,.05684-.28406H74.8885a.86585.86585,0,0,1,0-1.7317H93.27017a.86585.86585,0,0,1,0,1.7317H81.69422a.83294.83294,0,0,1,.05925.28406v9.93066c3.84131-2.34679,9.12781-4.286,19.1746-4.15753A26.92074,26.92074,0,0,0,75.55312,36.9423m5.87679,10.48152h4.05134a.86585.86585,0,0,1,0,1.73169H81.42991a.86585.86585,0,0,1,0-1.73169m0,3.53007h6.55618a.86461.86461,0,1,1,0,1.72921H81.42991a.86461.86461,0,0,1,0-1.72921m-5.46427,0h1.88229a.86461.86461,0,1,1,0,1.72921H75.96564a.86461.86461,0,1,1,0-1.72921m-8.69553-7.05766h1.88243a.86583.86583,0,0,1,0,1.73166H67.27011a.86583.86583,0,0,1,0-1.73166m-1.08453,3.52759h4.04893a.86585.86585,0,1,1,0,1.73169H66.18558a.86585.86585,0,0,1,0-1.73169M64.281,50.95389h8.38433a.86461.86461,0,1,1,0,1.72921H64.281a.86461.86461,0,1,1,0-1.72921m-1.54636,3.52759h28.705a.86585.86585,0,0,1,0,1.73169h-28.705a.86585.86585,0,1,1,0-1.73169M58.75987,58.0091H79.02624a.86583.86583,0,1,1,0,1.73166H58.75987a.86583.86583,0,1,1,0-1.73166m-1.78609,7.92229a.86565.86565,0,0,1,.8647-.86463H71.84509a.86585.86585,0,0,1,0,1.7317H57.83848a.86617.86617,0,0,1-.8647-.86707m19.765,2.663a.86583.86583,0,0,1,0,1.73166H64.45392a.86583.86583,0,1,1,0-1.73166Zm10.26662-5.326h-26.178a.86585.86585,0,1,1,0-1.7317h26.178a.86585.86585,0,0,1,0,1.7317m5.56317-3.52763H82.3908a.86583.86583,0,1,1,0-1.73166H92.56861a.86583.86583,0,0,1,0,1.73166"/>
</svg>