<svg xmlns:xlink="http://www.w3.org/1999/xlink" xmlns="http://www.w3.org/2000/svg" id="Layer_1" viewBox="0 0 150 150" width="200"  height="200" >
  <defs>
    <style>.cls-1{fill:none;}.cls-2{fill:#ed1c24;}.cls-2,.cls-3,.cls-4{fill-rule:evenodd;}.cls-3{fill:#fefefe;}.cls-4{fill:#00aeea;}</style>
  </defs>
  <g>
    <path class="cls-2" d="M29.4,94.1H124.51l5.09-38.2H24.36l-3.81,28.24s-2.01,9.96,8.85,9.96"/>
    <path class="cls-3" d="M105.61,65.03s3-1.05,4.94-.71c1.94,.34,2.93,1.88,1.96,5.29-.97,3.42-4.22,10-7.89,12.56,0,0,5.89-12.73,1-17.15m-8.98,16.67h-3.93c-1.29,0-1.84-.93-1.84-1.7,.03,0,1.29-9.35,1.29-9.35l4.71,.07s1.24,.09,1.07,1.55c-.04,.45-1.3,9.26-1.3,9.42h0Zm1.81-13.81s-.18,1.41-.22,1.55h-4.53c-1.57,0-1.31-1.24-1.31-1.24l.19-1.15h4.7c1.29,0,1.17,.84,1.17,.84Zm-54.24,7h-4.02l.29-2.2s2.8-.09,3.22,.34c.03,0,.51,.3,.51,.89,.01,0,0,.96,0,.96Zm1.6,2.57v-.02s1.85-.17,2.82-.77c.97-.6,1.25-1.91,1.25-3.13-.02-.96-.22-3.32-5.58-3.32h-9.67l-1.53,11.49s4,.01,6,.02c0,0,.62-4.98,.63-5.06,.02,0,2.65,3.93,2.65,3.93,0,0,.78,1.13,2.82,1.13h4.85s-4.25-4.26-4.25-4.27Zm19.53-6.77h18.09c1,0,4.13,.34,3.72,3.36-.42,3.09-1.07,7.68-1.07,7.68h-3.8s-1.77-.18-1.57-1.64c.17-1.2,.62-4.85,.74-5.79,.13-1.01-1.03-.92-1.03-.92h-1.46l-1.07,8.35h-3.64s-2.05,.15-1.85-1.53c.2-1.67,.59-4.53,.7-5.61,.11-1.21-1-1.19-1-1.19l-1.44-.03-1.07,8.35h-5.78l1.53-11.04Zm-6.32,11.04h-3.93c-1.29,0-1.85-.93-1.84-1.7,.03,0,1.29-9.35,1.29-9.35l4.71,.07s1.23,.09,1.07,1.56c-.04,.45-1.3,9.27-1.31,9.42h0Zm1.81-13.81s-.19,1.41-.22,1.55h-4.53c-1.57,0-1.31-1.23-1.31-1.23l.19-1.15h4.7c1.29,0,1.17,.83,1.17,.83Z"/>
    <path class="cls-4" d="M113.28,66.45s2.68-.77,4.3-.35c1.62,.41,1.8,1.76,1.5,2.84-.3,1.08-2.51,7.79-11.26,11.61,0,0,9.15-11.44,5.46-14.09"/>
  </g>
  <rect class="cls-1" width="150" height="150"/>
</svg>