<svg width="150" height="150" viewBox="0 0 150 150" fill="none" xmlns="http://www.w3.org/2000/svg">
<mask id="mask0_4705_924" style="mask-type:luminance" maskUnits="userSpaceOnUse" x="23" y="42" width="105" height="67">
<path d="M127.25 42H23V108.222H127.25V42Z" fill="white"/>
</mask>
<g mask="url(#mask0_4705_924)">
<path d="M84.9573 42.0027H82.7969V61.375H84.9573V42.0027Z" fill="#B27E54"/>
<path d="M69.455 61.3751H71.615V56.1246H71.6205C71.6205 54.2669 73.1298 52.7545 74.9819 52.7545C76.8355 52.7545 78.3441 54.2678 78.3441 56.1246H78.3494V61.3551H80.5091V46.2976H78.3494V51.7334C77.6865 51.2211 76.9082 50.8577 76.0611 50.6869V42H73.9013V50.6869C73.0517 50.855 72.2731 51.222 71.6132 51.7334V46.3176H69.4531V55.2771V61.3723V61.3751H69.455Z" fill="#B27E54"/>
<path d="M67.1679 42.0027H65.0078V61.375H67.1679V42.0027Z" fill="#B27E54"/>
<path d="M40.2815 82.2097C40.2815 85.1674 37.477 87.2242 32.1649 87.2242C28.3739 87.2242 25.2907 86.1522 23 84.2036L24.9695 81.8681C26.811 83.5611 29.1871 84.3544 32.2502 84.3544C35.3134 84.3544 36.8308 83.7742 36.8308 82.5317C36.8308 81.2892 35.2907 80.9443 31.8409 80.646C27.558 80.2815 23.5772 79.338 23.5772 76.1226C23.5772 72.9089 26.9163 71.2793 31.5432 71.2793C34.8196 71.2793 37.645 72.0932 39.5518 73.5721L37.6676 75.9502C36.0194 74.6849 33.9846 74.1725 31.5432 74.1498C29.5083 74.1271 27.0242 74.4941 27.0242 75.8649C27.0242 77.15 29.1671 77.2785 32.1422 77.5146C36.9161 77.9014 40.2788 78.9078 40.2788 82.2071L40.2815 82.2097Z" fill="#B27E54"/>
<path d="M47.0208 71.7517H43.5938V86.7528H47.0208V71.7517Z" fill="#B27E54"/>
<path d="M68.2838 83.7085C66.7863 85.7457 63.8302 87.2242 59.7615 87.2242C53.7451 87.2242 50.082 84.2665 50.082 79.2513C50.082 74.2361 53.7423 71.2783 59.7615 71.2783C63.4445 71.2783 66.0566 72.6718 67.5569 74.128L64.8794 76.0793C63.5725 74.7938 62.0514 74.1934 59.7842 74.1934C55.8652 74.1934 53.5745 75.9081 53.5745 79.2507C53.5745 82.5926 55.9306 84.3071 59.9113 84.3071C62.1594 84.3071 64.0009 83.8147 65.0719 82.5297V81.0734H59.4194V78.2856H68.2829L68.2838 83.7085Z" fill="#B27E54"/>
<path d="M88.7638 71.7517V86.7528H85.7655L75.0152 75.9075V86.7528H71.6953V71.7517H75.3359L85.4416 82.0393V71.7517H88.7605H88.7638Z" fill="#B27E54"/>
<path d="M107.909 83.8823V86.7554H92.4688V71.7544H107.693V74.6276H95.8729V77.7132H105.746V80.5857H95.8729V83.885H107.909V83.8823Z" fill="#B27E54"/>
<path d="M127.248 74.7094H120.695V86.7554H117.268V74.7094H110.758V71.7517H127.246V74.7094H127.248Z" fill="#B27E54"/>
<path d="M50.3365 103.716C50.3365 102.194 49.2029 101.916 47.2761 101.916H40.2114V105.516H47.2761C49.2029 105.516 50.3365 105.217 50.3365 103.716ZM40.2086 99.3014H46.569C48.4333 99.3014 49.5868 99.0024 49.5868 97.6091C49.5868 96.2152 48.4305 95.9169 46.569 95.9169H40.2086V99.304V99.3014ZM53.8489 104.103C53.8489 106.76 51.5781 108.219 47.9803 108.219H36.8242V93.2175H47.1227C50.7204 93.2175 52.9885 94.6311 52.9885 97.0551C52.9885 98.7697 51.8748 100.226 49.6495 100.377C52.0056 100.505 53.8471 101.727 53.8471 104.105L53.8489 104.103Z" fill="#B27E54"/>
<path d="M68.0871 102.262L64.9813 96.1555L61.8755 102.262H68.0852H68.0871ZM69.522 105.047H60.4651L58.8596 108.218H55.1992L63.1425 93.2168H66.8909L74.834 108.218H71.1284L69.522 105.047Z" fill="#B27E54"/>
<path d="M94.0655 93.2151V108.215H91.0679L80.3203 97.37V108.215H77V93.2151H80.6409L90.7466 103.503V93.2151H94.0655Z" fill="#B27E54"/>
<path d="M110.897 108.218L105.116 101.167L101.197 104.49V108.218H97.7695V93.2175H101.197V100.826L110.103 93.2175H114.598L107.619 99.1342L115.007 108.222H110.897V108.218Z" fill="#B27E54"/>
</g>
</svg>
