<svg xmlns="http://www.w3.org/2000/svg" xmlns:xlink="http://www.w3.org/1999/xlink" id="Layer_1" data-name="Layer 1" width="150" height="150" viewBox="0 0 150 150">
  <defs>
    <style>.cls-1{fill:none;}.cls-2{clip-path:url(#clip-path);}.cls-3{fill:#e6332a;}.cls-4{fill:#d81117;}.cls-5{fill:#f1d406;}.cls-5,.cls-6{fill-rule:evenodd;}.cls-6,.cls-7{fill:#1d1d1b;}</style>
    <clipPath id="clip-path">
      <rect class="cls-1" x="-957.50302" y="-868.98151" width="946.77102" height="366.48599"/>
    </clipPath>
  </defs>
  <g class="cls-2">
    <rect class="cls-3" x="-1009.81958" y="-261.65322" width="1868.3578" height="60.14297" transform="translate(141.59841 -121.31483) rotate(-45.00002)"/>
    <rect class="cls-4" x="-1051.47425" y="-303.30782" width="1868.35781" height="60.14297" transform="translate(158.85229 -162.9695) rotate(-45.00002)"/>
  </g>
  <path class="cls-5" d="M64.82947,66.02945V84.88922a.39383.39383,0,0,1-.39087.39375h-.01433a.39206.39206,0,0,1-.38658-.39375V66.02945a.393.393,0,0,1,.38658-.39371h.01433a.39476.39476,0,0,1,.39087.39371"/>
  <path class="cls-6" d="M85.13313,69.65505H81.2732v3.66659h3.85993v-1.247l1.44594.28924v.69291a1.4975,1.4975,0,0,1-.32638,1.101,1.84442,1.84442,0,0,1-1.21979.2892H81.36059a1.81057,1.81057,0,0,1-1.20127-.2892,1.41356,1.41356,0,0,1-.325-1.101v-3.0996a1.487,1.487,0,0,1,.31214-1.09238,1.856,1.856,0,0,1,1.21411-.28924H85.0329a1.8593,1.8593,0,0,1,1.23124.28924,1.47425,1.47425,0,0,1,.31493,1.09238v.577l-1.44594.20045Z"/>
  <rect class="cls-7" x="88.43816" y="68.57529" width="1.42593" height="5.87281"/>
  <polygon class="cls-6" points="91.959 74.448 91.959 68.575 98.26 68.575 98.26 69.613 93.401 69.613 93.401 70.897 96.228 70.897 96.228 71.903 93.401 71.903 93.401 73.347 98.333 73.347 98.333 74.448 91.959 74.448"/>
  <polygon class="cls-6" points="99.88 74.448 99.88 68.575 100.86 68.575 105.838 72.473 105.838 68.575 107.158 68.575 107.158 74.448 106.153 74.448 101.185 70.485 101.185 74.448 99.88 74.448"/>
  <path class="cls-6" d="M114.2387,69.65505h-3.85564v3.66659h3.85564v-1.247l1.446.28924v.69291a1.52729,1.52729,0,0,1-.312,1.101,1.919,1.919,0,0,1-1.23273.2892h-3.66226a1.80591,1.80591,0,0,1-1.20555-.2892,1.45618,1.45618,0,0,1-.31353-1.101v-3.0996a1.48253,1.48253,0,0,1,.305-1.09238,1.8167,1.8167,0,0,1,1.21411-.28924h3.66226a1.85108,1.85108,0,0,1,1.23273.28924,1.46244,1.46244,0,0,1,.312,1.09238v.577l-1.446.20045Z"/>
  <polygon class="cls-6" points="117.426 74.448 117.426 68.575 123.727 68.575 123.727 69.613 118.87 69.613 118.87 70.897 121.697 70.897 121.697 71.903 118.87 71.903 118.87 73.347 123.799 73.347 123.799 74.448 117.426 74.448"/>
  <path class="cls-7" d="M77.011,69.67624H72.9893v1.21984h3.79831a1.83022,1.83022,0,0,1,1.20258.29064,1.46871,1.46871,0,0,1,.31214,1.10383v.796a1.44754,1.44754,0,0,1-.31214,1.09522,1.81277,1.81277,0,0,1-1.20258.28064H72.9893a1.8201,1.8201,0,0,1-1.20407-.28064,1.3874,1.3874,0,0,1-.33214-1.09522v-.16752L72.723,72.69v.69007h4.2937v-1.3458H73.22838a1.875,1.875,0,0,1-1.18973-.28058,1.4196,1.4196,0,0,1-.33364-1.10384V70.0156a1.4077,1.4077,0,0,1,.33364-1.10816,1.83667,1.83667,0,0,1,1.18973-.28347h3.47613a2.0248,2.0248,0,0,1,1.184.25913,1.24872,1.24872,0,0,1,.35653,1.01938v.12741l-1.23412.26918Z"/>
  <rect class="cls-7" x="71.91928" y="76.26206" width="1.42742" height="5.87281"/>
  <polygon class="cls-6" points="75.19 82.135 75.19 76.263 76.167 76.263 81.163 80.161 81.163 76.263 82.451 76.263 82.451 82.135 81.461 82.135 76.487 78.172 76.487 82.135 75.19 82.135"/>
  <path class="cls-6" d="M101.00187,77.27615H97.7276v1.562h3.27427a.83438.83438,0,0,0,.50535-.116.408.408,0,0,0,.14033-.3608V77.7486a.40089.40089,0,0,0-.14033-.36365.82081.82081,0,0,0-.50535-.1088m-4.68019,4.85916V76.2625h5.28725a1.64364,1.64364,0,0,1,1.05228.2663,1.06861,1.06861,0,0,1,.33075.87764v1.29425a1.063,1.063,0,0,1-.33075.87764,1.67842,1.67842,0,0,1-1.05228.26914H97.7276v2.28784Z"/>
  <path class="cls-6" d="M104.50186,77.64509a1.47808,1.47808,0,0,1,.31354-1.09239,1.82589,1.82589,0,0,1,1.21262-.29064h4.54851a1.78063,1.78063,0,0,1,1.21123.29064,1.47847,1.47847,0,0,1,.31353,1.09239v3.0982a1.46576,1.46576,0,0,1-.31353,1.10239,1.84789,1.84789,0,0,1-1.21123.28924H106.028a1.85226,1.85226,0,0,1-1.21262-.28924,1.46537,1.46537,0,0,1-.31354-1.10239Zm1.43887,3.3645h4.73752V77.343h-4.73752Z"/>
  <path class="cls-6" d="M113.8626,82.13492V76.26355h5.29591a1.62071,1.62071,0,0,1,1.05079.26486,1.07689,1.07689,0,0,1,.32647.879V78.789a1.05178,1.05178,0,0,1-.32647.86331,1.66821,1.66821,0,0,1-1.05079.25914h-.80892l2.79612,2.22344H119.0969l-2.46685-2.22344h-1.35287v2.22344Zm4.69173-4.8592h-3.27715v1.62355h3.27715a.82732.82732,0,0,0,.50674-.11024.428.428,0,0,0,.14611-.36649V77.7482a.40894.40894,0,0,0-.14611-.3622.79822.79822,0,0,0-.50674-.11028"/>
  <polygon class="cls-6" points="126.04 77.306 126.04 82.135 124.61 82.135 124.61 77.306 121.777 77.306 121.777 76.263 128.881 76.263 128.881 77.306 126.04 77.306"/>
  <path class="cls-7" d="M93.27731,77.36419h-4.016V78.584h3.79692a1.84368,1.84368,0,0,1,1.20258.29064,1.44438,1.44438,0,0,1,.315,1.10383v.79887a1.42035,1.42035,0,0,1-.315,1.09238,1.82571,1.82571,0,0,1-1.20258.28064H89.26132a1.8745,1.8745,0,0,1-1.21263-.28064,1.4349,1.4349,0,0,1-.32638-1.09238V80.607l1.27415-.22908V81.068H93.293v-1.3458H89.50329a1.87117,1.87117,0,0,1-1.19262-.28059,1.43056,1.43056,0,0,1-.33494-1.10384v-.63423a1.41834,1.41834,0,0,1,.33494-1.10816,1.83307,1.83307,0,0,1,1.19262-.28347H92.978a1.99012,1.99012,0,0,1,1.18117.25913,1.22566,1.22566,0,0,1,.35364,1.01938v.12741l-1.23552.26918Z"/>
  <path class="cls-6" d="M41.32188,66.76435c-.01433.05011.07157.03006.063.07589-.03863.02434-.01285.06729-.00568.09018a.27611.27611,0,0,0-.05733.09162,1.366,1.366,0,0,1-.14313.11312c-.13746-.02862-.27779.07729-.388.16463a2.79382,2.79382,0,0,0-.25341.19041,1.404,1.404,0,0,1-.39943.12029c-.106-.07017-.06877-.19474-.15039-.27059.00149-.0086.00149-.01144,0,0a.71066.71066,0,0,1-.11884-.31786.86158.86158,0,0,1-.41376.11456.246.246,0,0,0-.19758.04579c-.07725.02006-.12312-.00572-.20754.02006-.00148.04583-.10022.14029.01145.16607.02866.05584.13169.01717.11884.10023a1.112,1.112,0,0,1,.40949.51972c.04.12312.14313.21618.08441.35076-.02578.15746-.19041.16607-.30777.21186a.83893.83893,0,0,1-.42521-.00573.85016.85016,0,0,0-.55122.03151c-.03154.05155-.043.116-.07305.16467-.09734.08018-.03574.22619-.15886.282-.043.00861-.05733-.02578-.07445-.05155a.68736.68736,0,0,1-.02578-.12741c-.01294-.05011.01712-.09306.01284-.14174a1.98848,1.98848,0,0,0-.22763.04868c-.00857.00716-.02429.02577-.03434.01717a2.55309,2.55309,0,0,0-.62279.2978.62932.62932,0,0,0,.07734.34932c.03006.03583.07008.03583.09586.08306a.07339.07339,0,0,1-.073.11884.46221.46221,0,0,1-.1489-.00433.24876.24876,0,0,1-.106-.04578.577.577,0,0,1-.07725-.21908c-.05015-.09018-.21907-.1589-.21618-.28347.02289-.07445.09734-.07729.1503-.126a.66846.66846,0,0,0,.34936-.22052c.09446-.10162.179-.24625.30488-.30064.09743-.04295.285-.04583.29212-.219a4.56007,4.56007,0,0,1,.13886-.55122,1.44546,1.44546,0,0,0,0-.22335c-.03723-.01861-.1074-.06584-.06869-.10879-.00437-.02867.03574-.05156.00857-.07017.02149-.05728.00428-.136.02717-.18325l.01145-.04439a.56269.56269,0,0,1,.08738-.19185,1.35352,1.35352,0,0,1,.37934-.25625c.02866-.05728.02866-.14751.10171-.17613.11736-.04294.26338-.07445.39367-.1174.15607-.05295.30069-.08589.45815-.15034-.04867-.0544-.07445-.10879-.11735-.16463a.06668.06668,0,0,0-.03295-.02145c-.09883.02573-.20334.04723-.31353.06728,0,.00573.00428,0,0,0-.09455.01-.15179-.01005-.24625.00573a.46874.46874,0,0,1-.44671-.12885,1.75263,1.75263,0,0,0-.09734-.1933.12932.12932,0,0,1,.0658-.15174c.02149.01.03015.0229.053.01.02578.01289.03006.03434.03862.05728.01862.01429.03006.06873.06012.03862.03583-.01145.05444.04439.06161.06873.05007.08017.15747.02578.20186.13029a.872.872,0,0,0,.18464-.083,1.75191,1.75191,0,0,1,.51827-.209c.06589-.01289.11745.073.1704.10019a.77964.77964,0,0,1,.14462.12312.58411.58411,0,0,0,.1732.21191c.04867.02578.06588.14462.13177.10023a.43416.43416,0,0,1,.01145-.12029.3907.3907,0,0,1,.26058-.219.4163.4163,0,0,1,.29771.03434c.04728.05584.13746.09734.14611.18324,0,.03867.04719.12457-.01861.16035.01.05156.02429.1074-.03295.14462.00857.063.04291.10879.01862.15891-.096-.02434.00288.0945-.08879.0945.07446.063-.063.04868-.063.11312-.063.043-.12024.01862-.18464-.02-.01722.01433.0028.02862.00856.043a.54041.54041,0,0,1-.01721.24769c.0201.03578.06012.07445.0831.1174.03574.05011.02141.083.04579.13169.1503-.093.325-.10019.46672-.18325.09018-.02578.11167-.13029.15318-.19041a.3911.3911,0,0,0,.11456-.04151c.03862.01.05724-.04155.09446-.01717.00717.05868.07874.01285.10451.04007M38.6246,67.81951a1.27708,1.27708,0,0,1-.2348.46816.87037.87037,0,0,0,.50683-.14318.71441.71441,0,0,1,.17468,0c-.0845-.06012-.14174-.14313-.22484-.209-.07445-.04723-.1517-.06585-.22187-.116M38.94819,70.68a2.9815,2.9815,0,1,1,2.97787-2.98075A2.987,2.987,0,0,1,38.94819,70.68"/>
  <path class="cls-6" d="M53.87293,71.33431H45.04357V74.0918h8.36972A3.89032,3.89032,0,0,1,55.946,74.716a3.02552,3.02552,0,0,1,.69435,2.29641v1.9228a3.66272,3.66272,0,0,1-.6199,2.4668,3.8097,3.8097,0,0,1-2.60718.68579H45.11662a3.83407,3.83407,0,0,1-2.61855-.68579,3.68578,3.68578,0,0,1-.61134-2.4668v-.37654l2.77034-.69724V79.704h9.21586V76.47554h-8.218a4.47534,4.47534,0,0,1-2.69439-.60989,2.94818,2.94818,0,0,1-.68439-2.31074V72.17333a3.79708,3.79708,0,0,1,.68439-2.60859,3.91183,3.91183,0,0,1,2.69439-.68719h7.60669a4.02551,4.02551,0,0,1,2.68443.68719,3.27452,3.27452,0,0,1,.69435,2.38379v.30925l-2.76744.61134Z"/>
  <rect class="cls-7" x="37.64582" y="71.33418" width="2.6071" height="10.75347"/>
  <path class="cls-6" d="M33.10535,71.33431H24.266V74.0918h8.37679a3.88745,3.88745,0,0,1,2.53274.62422,3.02065,3.02065,0,0,1,.68579,2.29641v1.9228A3.66146,3.66146,0,0,1,35.25,81.402a3.80713,3.80713,0,0,1-2.60719.68579H24.339a3.80445,3.80445,0,0,1-2.6071-.68579,3.67662,3.67662,0,0,1-.61273-2.4668v-.37654l2.7574-.69724V79.704h9.22879V76.47554H24.88453a4.47248,4.47248,0,0,1-2.69448-.60989,2.96266,2.96266,0,0,1-.693-2.31074V72.17333a3.81591,3.81591,0,0,1,.693-2.60859,3.90952,3.90952,0,0,1,2.69448-.68719h7.598a4.04223,4.04223,0,0,1,2.69308.68719,3.26945,3.26945,0,0,1,.68579,2.38379v.30925l-2.756.61134Z"/>
</svg>