<svg xmlns:xlink="http://www.w3.org/1999/xlink" xmlns="http://www.w3.org/2000/svg" id="Layer_1" viewBox="0 0 150 150" width="200"  height="200" >
  <defs>
    <style>.cls-1{fill:none;}</style>
  </defs>
  <rect class="cls-1" width="150" height="150"/>
  <g>
    <path d="M78.16,87.5h-4.47v-11.77l4.47-2.65v14.42Z"/>
    <circle cx="75.92" cy="57.87" r="2.98"/>
    <circle cx="75.92" cy="67.15" r="2.98"/>
    <path d="M55.32,64.18c2.43,0,4.57,.67,6.43,1.67,1.85,1,3.3,2.38,4.34,4.15,1.04,1.77,1.56,3.81,1.56,6.12s-.52,4.32-1.56,6.1c-1.04,1.78-2.48,3.18-4.32,4.19-1.84,1.01-3.95,1.52-6.32,1.52-6.47,0-9.21-3.3-9.21-3.3v12.46h-4.52v-32.4h4.52v3.04s2.96-3.55,9.08-3.55Zm-.61,4.13c-4.77,0-8.69,3.19-8.69,7.82s4.04,7.69,8.69,7.69,8.64-3.17,8.64-7.69-3.86-7.82-8.64-7.82Z"/>
    <path d="M105.4,80.79c-1.14,.91-3.72,3.02-8.36,3.02s-8.51-3.45-8.51-7.73c0-3.75,2.79-7.78,8.47-7.78,4.75,0,7.39,2.51,8.34,3.53l2.63-3.23c-1.18-1.45-4.7-4.43-11.14-4.43-2.43,0-4.61,.56-6.54,1.61-1.93,1.04-3.45,2.45-4.58,4.23-1.13,1.78-1.69,3.8-1.69,6.06s.56,4.24,1.69,6.04c1.13,1.8,2.66,3.21,4.58,4.26,1.93,1.04,4.1,1.56,6.54,1.56s4.56-.41,6.47-1.22c1.87-.79,3.43-1.71,4.69-2.75l-2.59-3.18Z"/>
    <path d="M21.53,72.74c-1.21-.21-3.46-.76-3.46-2.23,0-1.25,1.42-2.27,5.73-2.27,4.8,0,7.85,1.43,8.92,2.02l2.62-3.21c-.93-.67-4.75-2.86-11.58-2.86s-10.57,2.65-10.57,6.55c0,3.69,3.17,5.31,6.64,6.02,6.61,1.36,11.41,1.41,11.41,3.69s-3.95,3.38-6.92,3.38c-5.29,0-8.84-2.74-8.84-2.74l-2.9,3.38s4.01,3.48,11.64,3.48c8.27,0,11.86-3.17,11.86-7.3,0-6.13-6.85-6.57-14.55-7.9Z"/>
    <path d="M137.41,76.08c0-2.26-.56-4.28-1.69-6.06-1.13-1.78-2.66-3.19-4.58-4.23-1.93-1.04-4.1-1.61-6.54-1.61h-.38c-2.43,0-4.61,.56-6.54,1.61-1.93,1.04-3.45,2.45-4.58,4.23-1.13,1.78-1.69,3.8-1.69,6.06s.56,4.24,1.69,6.04c1.13,1.8,2.66,3.21,4.58,4.26,1.93,1.04,4.1,1.56,6.54,1.56s4.56-.41,6.47-1.22c1.91-.81,3.5-1.75,4.78-2.82l-2.43-3.3c-.98,.75-3.6,3.21-8.6,3.21-4.01,0-7.64-2.75-8.38-6.38h21.27c.05-.44,.08-.89,.08-1.35Zm-13.02-7.78c.11,0,.21,0,.31,.01,4.39,.1,6.99,2.65,7.86,5.55h-16.31c.89-2.97,3.58-5.56,8.14-5.56Z"/>
  </g>
</svg>