<svg xmlns="http://www.w3.org/2000/svg" xmlns:xlink="http://www.w3.org/1999/xlink" id="Layer_1" viewBox="0 0 150 150" width="200"  height="200" ><defs><style>.cls-1{fill:none;}.cls-2{mask:url(#mask);}.cls-3{fill:#fff;}.cls-4{fill:#cd0000;fill-rule:evenodd;}.cls-5{mask:url(#mask-2);}.cls-6{mask:url(#mask-1);}</style><mask id="mask" x="2.61" y="65.71" width="144.79" height="18.58" maskUnits="userSpaceOnUse"><polyline class="cls-3" points="2.61 65.71 147.39 65.71 147.39 84.29 2.61 84.29"/></mask><mask id="mask-1" x="2.61" y="65.71" width="144.79" height="18.58" maskUnits="userSpaceOnUse"><polyline class="cls-3" points="2.61 65.71 147.39 65.71 147.39 84.29 2.61 84.29"/></mask><mask id="mask-2" x="2.61" y="65.71" width="144.79" height="18.58" maskUnits="userSpaceOnUse"><polyline class="cls-3" points="2.61 65.71 147.39 65.71 147.39 84.29 2.61 84.29"/></mask></defs><g><g class="cls-2"><path class="cls-4" d="M26.55,75.39c-3.97-.1-7.87-.55-11.62-1.9-1.23-.44-2.41-.99-3.38-1.9-1.24-1.17-1.24-2.48,.19-3.41,1.07-.69,2.3-1.22,3.52-1.61,2.01-.64,4.09-.95,6.21-.84,.69,.04,1.39,.17,2.05,.39,.74,.25,.79,.92,.12,1.34-.43,.27-.94,.43-1.42,.61-.6,.22-1.23,.36-1.82,.61-1.54,.67-1.7,1.97-.39,3.03,1.07,.87,2.36,1.26,3.67,1.56,2.71,.62,5.46,.81,8.22,.4,.25-.04,.55-.07,.77,.02,.22,.09,.53,.32,.54,.51,.01,.19-.25,.5-.46,.58-.4,.15-.85,.22-1.29,.26-1.63,.13-3.27,.24-4.91,.35Z"/></g><g class="cls-6"><path class="cls-4" d="M9.21,74.71c4.22,0,8.38,.47,12.34,2.05,1.08,.43,2.11,.97,2.93,1.83,.98,1.05,.94,2.12-.16,3.07-1.13,.98-2.52,1.46-3.94,1.83-2.24,.58-4.5,1-6.82,.69-.45-.06-.91-.16-1.32-.35-.63-.29-.68-.86-.11-1.26,.39-.27,.85-.43,1.3-.6,.71-.26,1.46-.42,2.15-.74,1.34-.61,1.5-1.85,.4-2.83-1.05-.93-2.36-1.34-3.68-1.66-2.81-.67-5.65-.84-8.51-.4-.04,0-.08,.01-.12,.01-.45,0-.97,0-1.05-.55-.08-.57,.46-.67,.86-.71,1.45-.16,2.9-.28,4.36-.39,.46-.04,.92,0,1.38,0Z"/></g><g class="cls-5"><path class="cls-4" d="M147.37,74.3c-.27-3.34-3.39-6.37-6.86-6.54-2.3-.11-4.61-.06-6.91-.06-.61,0-.85,.26-.85,.91,0,1.64,0,3.29,0,4.93,0,.7,.03,1.41-.02,2.1-.02,.24-.19,.59-.37,.67-.22,.09-.55-.05-.81-.14-.13-.05-.23-.22-.33-.34-2.13-2.45-4.25-4.91-6.39-7.35-.23-.26-.53-.5-.85-.64-.94-.43-1.57,0-1.57,1.03,0,2.79,0,5.57-.02,8.36,0,.27-.24,.53-.37,.79-.27-.15-.64-.25-.79-.48-.42-.63-.76-1.32-1.13-1.98-1.28-2.29-2.56-4.58-3.84-6.87-.05-.09-.1-.17-.15-.26-.77-1.16-2.03-1.12-2.65,.12-1.68,3.32-3.33,6.66-5,9.99-.17,.34-.36,.68-.6,.96-.45,.52-1.27,.69-1.88,.45-.67-.28-.78-.84-.78-1.48,0-3.19,0-6.37,0-9.56,0-1.07-.18-1.25-1.25-1.25-4.07,0-8.14-.02-12.21,.01-.79,0-1.57,.21-2.36,.29-.35,.04-.72,.02-1.07-.01-.83-.08-1.66-.26-2.5-.28-2.16-.04-4.33-.01-6.49-.01-1.29,0-1.38,.12-1.49,1.37-.02,.29-.24,.73-.46,.8-.3,.09-.83,.02-1.02-.2-2.49-2.76-8.05-3.07-10.66-.44-.48,.48-1.24,.46-1.68-.04-.85-.97-1.99-1.31-3.17-1.36-2.82-.11-5.65-.11-8.47-.13-.65,0-.93,.32-.93,.98,0,1.54,0,3.09,0,4.63,0,1.22-.58,1.59-1.75,1.14-.44-.17-.91-.36-1.38-.38-1.5-.08-3-.08-4.5-.14-.59-.03-1.2-.09-1.78-.24-.96-.25-1.53-.92-1.55-1.7-.02-.77,.6-1.52,1.56-1.75,.69-.17,1.42-.26,2.13-.28,1.46-.04,2.93,0,4.39-.03,.28,0,.67-.15,.81-.36,.58-.89,.02-1.88-1.02-1.88-1.62,0-3.25-.03-4.87,0-1.33,.03-2.62,.27-3.78,.99-1.6,.99-2.33,2.71-1.84,4.49,.42,1.52,1.61,2.22,3.01,2.66,1.62,.51,3.3,.29,4.95,.37,.81,.04,1.63,.15,2.42,.36,.7,.19,1.16,.7,1.17,1.5,0,.77-.37,1.4-1.17,1.63-.76,.22-1.56,.35-2.35,.37-2.4,.04-4.81,.01-7.22,.01-.77,0-.99,.25-.99,1.09,0,.91,.19,1.16,.97,1.16,2.91,0,5.81,.05,8.72-.03,.87-.02,1.73-.4,2.61-.55,.39-.07,.97-.16,1.18,.04,.57,.55,1.19,.57,1.88,.55,.86-.02,1.13-.28,1.14-1.16,0-1.22,0-2.45,0-3.67,0-.83,.42-1.27,1.24-1.29,2.1-.05,4.2-.1,6.3-.14,.88-.01,1.18,.23,1.44,1.05,1.38,4.44,5.32,6.26,9.54,5.34,1.41-.31,2.63-.95,3.59-2.04,.31-.35,.68-.47,1.13-.31,.45,.15,.43,.52,.43,.89,0,.14,0,.28,0,.42,.04,.65,.3,.89,.94,.9,.2,0,.4,0,.6,0,1,0,1.18-.17,1.18-1.2,0-1.18-.01-2.37,0-3.55,.01-.92,.46-1.36,1.38-1.37,.72,0,1.44,.01,2.16,0,.94-.02,1.6,.38,2.06,1.19,.75,1.35,1.53,2.68,2.29,4.02,.35,.61,.85,.94,1.57,.91,.26-.01,.52,0,.78,0,.76,0,.94-.3,.57-.97-.72-1.32-1.47-2.62-2.2-3.93-.45-.82-.32-1.42,.45-1.89,1.65-1.01,2.08-2.55,1.9-4.34-.08-.78,.2-1.19,.98-1.23,.3-.02,.6,0,.9,0,1.41,.01,1.74,.34,1.74,1.73,0,2.99,0,5.97,0,8.96q0,1.68,1.66,1.68c.82,0,1.03-.2,1.03-1.02,0-3.09,0-6.17,0-9.26,0-.28-.01-.56,.02-.84,.08-.82,.51-1.22,1.33-1.24,.52-.01,1.04,0,1.56,0,1.39,0,1.74,.35,1.74,1.75,0,3.19,0,6.37,0,9.56,0,.87,.2,1.06,1.06,1.06,1.66,0,3.33,0,4.99,0,1.68,0,3.37,0,5.05,0,.85,0,1.06-.23,1.06-1.13s-.23-1.11-1.09-1.11c-.52,0-1.04,0-1.56,0-.42,0-.77-.12-.82-.6-.05-.45,.25-.7,.64-.83,.18-.06,.39-.06,.59-.06,1.56,0,3.13,.01,4.69,0,.81,0,1.37,.36,1.76,1.03,.35,.61,.71,1.21,1.04,1.82,.32,.59,.83,.86,1.47,.87,.84,.02,1.68,.02,2.53,0,.6,0,.85-.28,.86-.9,0-1.32,0-2.65,0-3.97,0-1.02-.02-2.05,.02-3.07,0-.24,.18-.62,.35-.67,.26-.08,.59,.05,.88,.15,.13,.05,.22,.22,.33,.34,2.03,2.35,4.08,4.68,6.09,7.05,.64,.75,1.45,1.05,2.38,1.07,1.52,.03,3.05,.03,4.57,0,.75-.02,1.52-.09,2.26-.24,3.63-.78,6.03-4.04,5.73-7.72Zm-85.06-2.25c-.07,.77-.5,1.32-1.21,1.47-.99,.21-2.01,.25-3.01,.36-.2,.02-.4,0-.6,0-.68,0-1.36,0-2.04,0-.84,0-1.29-.45-1.32-1.29-.02-.52-.03-1.04,.02-1.56,.05-.68,.48-1.14,1.16-1.14,1.72,0,3.44,.02,5.15,.14,1.22,.09,1.95,.97,1.86,2.01Zm12.41,6.37c-1.7,2.18-4.82,2.63-7.08,.96-1.46-1.08-2.06-2.6-2.07-4.81,.05-1.74,.85-3.5,2.88-4.44,1.96-.91,3.86-.67,5.56,.71,2.09,1.7,2.42,5.38,.71,7.57Zm12.7-4.83c-1.14,.26-2.33,.28-3.49,.41v-.12c-.69,0-1.37,0-2.05,0-.79,0-1.24-.42-1.29-1.19-.03-.52-.03-1.04,0-1.56,.04-.75,.47-1.21,1.21-1.21,1.66,0,3.32,.01,4.98,.11,.8,.04,1.54,.38,1.88,1.19,.43,1.04-.07,2.12-1.23,2.38Zm28.79,2.58c-.46,.02-.92,0-1.38,0h0c-.46,0-.92,.02-1.38,0-.57-.03-.84-.43-.61-.95,.42-.95,.87-1.89,1.36-2.8,.29-.54,.96-.55,1.26,0,.51,.9,.97,1.84,1.4,2.78,.24,.54-.06,.95-.65,.98Zm24.35,3.71c-1.32,.17-2.67,.13-4.01,.12-.68,0-1.07-.5-1.08-1.2,0-1.28,0-2.56,0-3.84h0c0-1.24,0-2.48,0-3.72,0-.79,.45-1.34,1.22-1.34,1.24,0,2.49-.02,3.71,.12,2.45,.28,4.2,2.32,4.24,4.82,.04,2.63-1.59,4.73-4.08,5.06Z"/></g></g><rect class="cls-1" width="150" height="150"/></svg>