<svg xmlns:xlink="http://www.w3.org/1999/xlink" xmlns="http://www.w3.org/2000/svg" id="Layer_1" viewBox="0 0 150 150" width="200"  height="200" ><defs><style>.cls-1{fill:none;}.cls-2{fill:#231f20;}</style></defs><path class="cls-2" d="M75,56.72c-15.61,0-28.26,8.19-28.26,18.28s12.65,18.29,28.26,18.29,28.26-8.19,28.26-18.29-12.65-18.28-28.26-18.28Zm0,28.72c-2.32,0-4.22-4.57-4.33-10.33,1.4,.12,2.85,.19,4.33,.19s2.94-.07,4.33-.19c-.12,5.75-2.01,10.33-4.33,10.33Zm-4.05-14.89c.63-4.07,2.21-6.95,4.05-6.95s3.42,2.89,4.05,6.95c-1.3,.12-2.65,.18-4.05,.18s-2.75-.06-4.05-.18Zm4.05-11.18c-3.03,0-5.62,4.54-6.57,10.87-5.75-.9-9.76-2.94-9.76-5.31,0-3.2,7.31-5.8,16.33-5.8s16.33,2.6,16.33,5.8c0,2.37-4.01,4.42-9.76,5.31-.95-6.34-3.54-10.87-6.57-10.87Zm-24.21,14.95c0-3.1,1.19-6.01,3.27-8.5-.02,.17-.04,.35-.04,.53,0,3.9,5.85,7.23,14.02,8.46,0,.28,0,.57,0,.85,0,7.28,2.04,13.44,4.86,15.53-12.39-.75-22.1-8.02-22.1-16.87Zm26.31,16.87c2.82-2.09,4.86-8.25,4.86-15.53,0-.29,0-.57,0-.85,8.16-1.23,14.02-4.55,14.02-8.46,0-.18-.01-.36-.04-.53,2.08,2.5,3.27,5.4,3.27,8.5,0,8.85-9.72,16.12-22.1,16.87Z"/><rect class="cls-1" width="150" height="150"/></svg>