<svg xmlns:xlink="http://www.w3.org/1999/xlink" xmlns="http://www.w3.org/2000/svg" id="Layer_1" viewBox="0 0 150 150" width="200"  height="200" ><defs><style>.cls-1{fill:none;}.cls-2{fill:#272525;}</style></defs><g><g><g><path d="M45.02,81.31c-.17,0-.29-.09-.34-.25l-3.21-11.54c-.07-.2,.03-.34,.25-.34h2.26c.19,0,.29,.08,.32,.27l.93,3.87c.27,1.14,.73,3.39,.95,4.82h.07c.25-1.46,.73-3.48,1.1-4.89l.98-3.65c.05-.17,.15-.25,.34-.25h2.26c.19,0,.29,.09,.32,.25l1.02,3.65c.36,1.39,.81,3.43,1.07,4.89h.07c.24-1.42,.7-3.68,.97-4.82l.92-3.87c.03-.19,.15-.27,.32-.27h2.27c.2,0,.32,.14,.25,.34l-3.21,11.54c-.05,.17-.17,.25-.34,.25h-2.43c-.17,0-.29-.09-.34-.25l-1.1-3.88c-.36-1.31-.75-3.29-.9-4.39h-.07c-.14,1.1-.53,3.09-.88,4.39l-1.1,3.88c-.05,.17-.17,.25-.34,.25h-2.42Z"/><path d="M62.45,78.85h5.58c.19,0,.3,.1,.3,.29v1.87c0,.2-.12,.31-.3,.31h-8.01c-.2,0-.31-.1-.31-.31v-11.52c0-.2,.1-.3,.31-.3h7.74c.2,0,.31,.1,.31,.3v1.87c0,.19-.1,.29-.31,.29h-5.31v2.32h4.75c.2,0,.3,.1,.3,.29v1.83c0,.19-.1,.29-.3,.29h-4.75v2.48Z"/><path d="M74.3,81.51c-1.73,0-3.02-.51-4.46-1.66-.15-.12-.17-.25-.07-.41l1.15-1.64c.1-.14,.25-.17,.41-.05,1.02,.71,2.05,1.15,3.16,1.17,1.1,0,1.88-.37,1.88-1.12,0-.87-1.02-1.14-2.19-1.37-1.71-.36-4.26-1.2-4.26-3.95,0-2.36,2.02-3.51,4.6-3.51,1.49,0,2.7,.37,4.1,1.31,.17,.1,.2,.25,.09,.41l-1.09,1.63c-.1,.15-.25,.19-.42,.08-.88-.56-1.87-.85-2.82-.85-1.2,0-1.68,.41-1.68,1.02,0,.75,.71,.95,2.15,1.29,2.36,.58,4.31,1.36,4.31,3.87,0,2.37-1.9,3.8-4.87,3.8Z"/><path d="M84.88,81.51c-1.73,0-3.02-.51-4.46-1.66-.15-.12-.17-.25-.07-.41l1.15-1.64c.1-.14,.25-.17,.41-.05,1.02,.71,2.05,1.15,3.15,1.17,1.1,0,1.88-.37,1.88-1.12,0-.87-1.02-1.14-2.19-1.37-1.71-.36-4.26-1.2-4.26-3.95,0-2.36,2.02-3.51,4.6-3.51,1.49,0,2.7,.37,4.1,1.31,.17,.1,.2,.25,.08,.41l-1.09,1.63c-.1,.15-.25,.19-.42,.08-.88-.56-1.87-.85-2.82-.85-1.2,0-1.68,.41-1.68,1.02,0,.75,.71,.95,2.15,1.29,2.36,.58,4.31,1.36,4.31,3.87,0,2.37-1.9,3.8-4.87,3.8Z"/></g><g><path d="M18.8,67.56l-7.83,7.83-4.63-4.64-3.59,3.59,8.01,8.01c.12,.12,.31,.12,.43,0l14.79-14.79h-7.18Z"/><path d="M22.57,75.39l-1.54-1.54-3.59,3.59,4.92,4.92c.12,.12,.31,.12,.43,0l14.79-14.79h-7.18l-7.83,7.83Z"/></g></g><g><path class="cls-2" d="M97.76,81.31c-.14,0-.2-.07-.2-.19v-11.76c0-.12,.07-.19,.2-.19h1.29c.08,0,.17,.03,.22,.14l2.63,4.78c.42,.78,1.05,2.04,1.36,2.68h.05c.3-.64,.93-1.9,1.36-2.66l2.65-4.8c.03-.1,.12-.14,.22-.14h1.29c.12,0,.19,.07,.19,.19v11.76c0,.12-.07,.19-.19,.19h-1.07c-.12,0-.19-.07-.19-.19v-5.12c0-1.43,.05-3.16,.1-4.6l-.03-.02c-.46,.92-.98,1.92-1.54,2.99l-2.12,3.94c-.05,.08-.14,.14-.24,.14h-.9c-.1,0-.19-.05-.22-.14l-2.12-3.94c-.58-1.07-1.1-2.07-1.54-2.99l-.03,.02c.03,1.44,.08,3.17,.08,4.6v5.12c0,.12-.07,.19-.19,.19h-1.05Z"/><path class="cls-2" d="M114.81,81.49c-2.29,0-3.73-1.34-3.73-3.32v-2.44c0-1.98,1.44-3.38,3.73-3.38s3.73,1.39,3.73,3.38v2.44c0,1.98-1.42,3.32-3.73,3.32Zm0-1.24c1.53,0,2.34-.81,2.34-2.09v-2.44c0-1.29-.81-2.12-2.34-2.12s-2.32,.83-2.32,2.12v2.44c0,1.27,.81,2.09,2.32,2.09Z"/><path class="cls-2" d="M123.27,80.21c.19,0,.51-.02,.81-.03,.14,0,.2,.07,.2,.19v.9c0,.1-.05,.19-.17,.2-.3,.02-.69,.03-.92,.03-1.7,0-2.95-.92-2.95-3v-7.9c0-.14,.07-.2,.2-.2h.88c.1,0,.17,.07,.19,.19l.12,2.05h2.2c.12,0,.19,.07,.19,.19v.85c0,.14-.07,.2-.19,.2h-2.2v4.56c0,1.12,.58,1.78,1.63,1.78Z"/><path class="cls-2" d="M128.99,81.49c-2.29,0-3.73-1.34-3.73-3.32v-2.44c0-1.98,1.44-3.38,3.73-3.38s3.73,1.39,3.73,3.38v2.44c0,1.98-1.43,3.32-3.73,3.32Zm0-1.24c1.53,0,2.34-.81,2.34-2.09v-2.44c0-1.29-.81-2.12-2.34-2.12s-2.32,.83-2.32,2.12v2.44c0,1.27,.81,2.09,2.32,2.09Z"/><path class="cls-2" d="M134.67,81.31c-.12,0-.19-.07-.19-.19v-7.92c0-.1,.03-.19,.14-.22,.85-.41,1.9-.63,2.9-.63,.56,0,1.14,.05,1.75,.14,.12,.02,.17,.1,.17,.22v.83c0,.14-.07,.2-.2,.17-.48-.07-1.02-.12-1.53-.12-.7,0-1.37,.15-1.83,.34v7.19c0,.12-.07,.19-.2,.19h-1Z"/><path class="cls-2" d="M143.81,81.49c-1.17,0-2.34-.34-3.36-1.09-.1-.07-.1-.17-.05-.27l.46-.78c.07-.12,.15-.14,.27-.05,.81,.61,1.75,.95,2.71,.95,1.14,0,2-.48,2-1.36,0-.95-1.05-1.17-2-1.36-1.22-.25-3.31-.73-3.31-2.7,0-1.73,1.65-2.49,3.34-2.49,1.07,0,2.02,.27,2.95,.8,.12,.05,.14,.15,.07,.25l-.46,.76c-.05,.1-.15,.14-.25,.07-.7-.37-1.53-.63-2.37-.63-1.19,0-1.9,.48-1.9,1.24,0,.93,1,1.19,2.2,1.43,1.36,.27,3.14,.66,3.14,2.56,0,1.73-1.46,2.66-3.44,2.66Z"/></g></g><rect class="cls-1" width="150" height="150"/></svg>