<svg xmlns:xlink="http://www.w3.org/1999/xlink" xmlns="http://www.w3.org/2000/svg" width="127" height="36" viewBox="0 0 127 36" fill="none">
<path d="M126.209 14.9961C125.475 16.464 123.921 17.1692 122.741 16.5791C121.561 15.9891 121.187 14.3197 121.921 12.8518C122.64 11.3983 124.195 10.6932 125.375 11.2832C126.555 11.8732 126.929 13.5426 126.195 14.9961M125.432 11.053C123.979 10.319 122.137 11.0242 121.331 12.636C120.525 14.2622 121.057 16.133 122.525 16.867C123.993 17.6009 125.821 16.867 126.627 15.2695C127.433 13.6721 126.886 11.7725 125.432 11.0386" fill="#272525"/>
<path d="M123.548 13.6004H124.037C124.498 13.6004 124.786 13.4565 124.973 13.1111C125.102 12.924 125.174 12.6794 125.174 12.4779C125.174 12.1037 124.944 11.9598 124.311 11.9598H123.951L123.548 13.6004ZM123.505 13.7587L123.16 15.1402C123.16 15.1402 123.131 15.2698 123.131 15.2985C123.131 15.4568 123.203 15.4856 123.505 15.5144L123.476 15.6151C123.16 15.5864 123.016 15.5864 122.857 15.5864C122.67 15.5864 122.555 15.5864 122.195 15.6151L122.238 15.5144C122.641 15.4712 122.699 15.4424 122.785 15.1402L123.491 12.2764C123.519 12.1901 123.519 12.1469 123.519 12.1181C123.519 11.9598 123.447 11.931 123.131 11.9022L123.16 11.7871H124.44C124.872 11.7871 125.102 11.8447 125.275 11.9598C125.433 12.0893 125.52 12.2908 125.52 12.5354C125.52 13.1686 125.016 13.6723 124.268 13.7443C124.483 13.8019 124.541 13.8738 124.627 14.1904L124.814 14.9531C124.915 15.3417 125.016 15.4568 125.232 15.4568C125.347 15.4568 125.376 15.4568 125.548 15.3849L125.505 15.5432C125.361 15.6008 125.217 15.6439 125.059 15.6439C124.656 15.6439 124.541 15.5 124.383 14.8668L124.224 14.248C124.109 13.7875 124.037 13.7443 123.591 13.7443H123.491L123.505 13.7587Z" fill="#272525"/>
<path d="M55.6672 26.826L52.8321 34.4821H31.375L31.634 33.4747C35.2606 33.1725 35.8075 32.8271 36.4694 30.208L42.7152 5.16746C42.9167 4.31838 42.9598 3.9586 42.9598 3.59882C42.9598 2.49071 42.1539 2.13094 39.5348 1.88629L39.7794 0.878906H60.2867L59.1786 7.91615H58.2144C58.0705 2.9944 57.3941 2.27484 52.8177 2.27484H46.7735L43.3052 16.1335H54.6454L54.2424 17.6877H42.9023L40.0384 29.2725C39.7794 30.2367 39.6931 30.9851 39.6931 31.388C39.6931 32.5393 40.686 33.043 43.1181 33.043H46.9318C50.0546 33.043 51.2059 32.453 52.8753 30.0353C53.638 28.8696 53.9978 28.2652 54.703 26.7973H55.6528L55.6672 26.826Z" fill="#272525"/>
<path d="M91.0079 28.0482C89.5831 32.0346 87.7123 33.9198 85.2514 33.9198C82.9488 33.9198 81.74 32.2504 81.74 29.1132C81.74 26.7818 82.3156 24.2058 83.395 21.5866C84.7765 18.2479 86.4603 16.7081 88.7053 16.7081H88.9068C91.1374 16.8232 92.2311 18.4206 92.2311 21.5435C92.2311 23.5726 91.7994 25.832 91.0079 28.0338M119.891 31.5309C118.739 32.9988 118.265 33.3873 117.588 33.3873C116.984 33.3873 116.595 32.9124 116.595 32.1497C116.595 31.6892 116.725 31.0704 116.984 29.9623L117.315 28.7822L118.984 21.9464C119.301 20.7951 119.459 19.7302 119.459 19.097C119.459 16.9527 117.905 15.5999 115.487 15.5999C113.343 15.5999 111.76 16.521 110.062 18.694C109.687 16.5929 108.507 15.5999 106.248 15.5999C103.989 15.5999 102.449 16.4778 100.779 18.5645C101.096 17.3557 101.384 16.3339 101.657 15.1682C99.9879 15.7582 96.9946 18.2047 91.6267 16.0892C91.5547 16.0461 91.4972 16.0317 91.4108 16.0029C91.382 15.9885 91.3676 15.9741 91.3245 15.9597C90.6913 15.7295 89.9861 15.5856 89.1658 15.5568H88.8492C86.7049 15.5568 84.8773 16.2763 83.4094 17.6579C82.0278 18.9675 80.9053 20.8527 80.1714 22.9394C80.085 23.2704 79.9267 23.6014 79.826 23.918C78.0415 29.7896 74.2998 33.2722 69.7522 33.2722C65.4637 33.2722 62.9021 30.1062 62.9021 24.8678C62.9021 20.7376 63.967 15.5855 65.622 11.4121C68.3851 4.72027 72.1555 1.33837 76.9478 1.33837C80.8909 1.33837 83.2511 3.79925 83.2511 7.94388C83.2511 8.69222 83.2079 9.10956 83.0496 10.0594H84.2153L85.9854 1.69815C85.3234 2.04354 85.0212 2.15866 84.575 2.15866C84.2153 2.15866 83.7691 2.01475 83.2223 1.75571L81.5097 0.949812C80.2577 0.345386 78.6315 0 76.8758 0C72.8463 0 69.2341 1.66936 66.4998 4.69149C62.1681 9.42616 59.3906 17.0391 59.3906 24.0907C59.3906 31.1423 62.9164 35.0135 69.119 35.0135C73.3356 35.0135 76.8038 33.0132 79.2647 29.2283C79.495 32.9268 81.5673 34.9991 85.1075 34.9991C90.533 34.9991 94.7495 29.329 94.7495 22.0471C94.7495 20.6224 94.5049 19.428 94.0588 18.4638C96.6348 19.0394 98.7503 17.3844 98.7503 17.8737C98.7503 17.9313 98.7215 18.0896 98.6927 18.2191C98.6495 18.4062 98.1746 20.3634 98.1746 20.3634L94.5481 34.6825H97.0089L99.9447 22.9538C100.333 21.3852 100.621 20.6656 101.168 19.8021C102.204 18.2191 103.701 17.2981 105.212 17.2981C106.723 17.2981 107.615 18.1328 107.615 19.5575C107.615 20.1907 107.5 20.9534 107.227 22.0184L104.075 34.6825H106.536L109.587 22.3638C110.378 19.1545 112.249 17.2837 114.58 17.2837C116.005 17.2837 116.912 18.1472 116.912 19.5143C116.912 20.018 116.797 20.9678 116.552 21.9176L114.969 28.1922C114.249 30.9984 114.091 31.8763 114.091 32.6246C114.091 34.0493 115.113 35.0423 116.624 35.0423C118.135 35.0423 119.243 34.222 120.51 32.0633L119.876 31.5165L119.891 31.5309Z" fill="#272525"/>
<path d="M33.042 1.03612C31.9914 1.03612 31.1279 0.978562 28.2641 0.791478L28.0195 1.74128C30.4228 1.98593 31.2431 2.48962 31.2431 3.79921C31.2431 4.25973 31.1423 4.96489 30.9984 5.67006L25.4435 28.6814L15.4273 0.777084C14.0169 0.877822 13.4557 0.920998 12.1029 0.920998C10.7501 0.920998 10.045 0.877822 8.41879 0.777084L8.15975 1.7269C10.7789 1.8852 11.2394 2.08667 11.887 3.03649L6.76381 23.6445C5.55496 28.4224 4.64832 31.3582 4.08707 32.1065C3.48264 33.0131 2.47527 33.4161 0.259037 33.6176L0 34.6249C2.76309 34.3659 3.62655 34.3227 4.73467 34.3227C5.84278 34.3227 6.54795 34.3659 9.57008 34.6249L9.81472 33.6176C7.44019 33.3729 6.70625 32.8548 6.70625 31.6028C6.70625 31.1423 6.76381 30.7969 7.16676 28.8397L7.65606 26.5084L8.36123 23.6445L13.2542 3.29553L24.3497 35.0135H25.2708L32.2936 7.00843C33.2003 3.22357 34.3084 2.11546 37.4888 1.71251L37.7478 0.762695C35.0711 0.964171 34.222 1.00734 33.0563 1.00734" fill="#272525"/>
</svg>